<svg id="Ícone_-_CS" data-name="Ícone - CS" xmlns="http://www.w3.org/2000/svg" width="72.264" height="72.648" viewBox="0 0 72.264 72.648">
  <rect id="Retângulo_1853" data-name="Retângulo 1853" width="72.264" height="72.648" transform="translate(0 0)" fill="none"/>
  <path id="Caminho_7447" data-name="Caminho 7447" d="M23.526,0A23.526,23.526,0,0,1,47.052,23.526H0A23.526,23.526,0,0,1,23.526,0Z" transform="translate(5.473 34.147)" fill="none" stroke="#000" stroke-linecap="round" stroke-linejoin="round" stroke-width="4"/>
  <g id="Elipse_891" data-name="Elipse 891" transform="translate(14.398 6.234)" fill="none" stroke="#000" stroke-width="4">
    <ellipse cx="14.758" cy="14.758" rx="14.758" ry="14.758" stroke="none"/>
    <ellipse cx="14.758" cy="14.758" rx="12.758" ry="12.758" fill="none"/>
  </g>
  <path id="Caminho_7444" data-name="Caminho 7444" d="M38.5,46.3l6.746,4.274A1.131,1.131,0,0,0,46.925,49.3l-1.949-7.668a1.171,1.171,0,0,1,.38-1.187l6.05-5.035a1.16,1.16,0,0,0-.637-2.047l-7.9-.513a1.126,1.126,0,0,1-.969-.716l-2.947-7.42a1.113,1.113,0,0,0-2.081,0l-2.947,7.42a1.126,1.126,0,0,1-.969.716l-7.9.513a1.16,1.16,0,0,0-.637,2.047l6.05,5.035a1.171,1.171,0,0,1,.38,1.187l-1.808,7.111a1.357,1.357,0,0,0,2.013,1.527L37.321,46.3A1.1,1.1,0,0,1,38.5,46.3Z" transform="translate(14.968 15.661)" fill="#f4f5f7" stroke="#000" stroke-linecap="round" stroke-linejoin="round" stroke-width="4"/>
</svg>
