<svg xmlns="http://www.w3.org/2000/svg" width="186.583" height="48" viewBox="0 0 186.583 48">
  <g id="Botão_-_Global_Service_Center" data-name="Botão - Global Service Center" transform="translate(5146.292 -11417)">
    <g id="Botão_Global_Service_Center" data-name="Botão Global Service Center" transform="translate(-5296.829 11417.279)">
      <path id="Fundo_Botão" data-name="Fundo Botão" d="M23.819,0H162.764a24,24,0,0,1,0,48H23.819a24,24,0,0,1,0-48Z" transform="translate(150.537 -0.279)" fill="#287add"/>
      <g id="Logo" transform="translate(231.823 6.221)">
        <text id="GLOBAL" fill="#fff" font-size="18" font-family="Poppins-Regular, Poppins" letter-spacing="-0.025em"><tspan x="0" y="19">GLOBAL</tspan></text>
        <text id="SERVICE_CENTER" data-name="SERVICE CENTER" transform="translate(34 29)" fill="#fff" font-size="9" font-family="Poppins-Regular, Poppins" letter-spacing="-0.026em"><tspan x="-33" y="0">SERVICE CENTER</tspan></text>
      </g>
    </g>
    <g id="Grupo_4425" data-name="Grupo 4425" transform="translate(9.961 4.6)">
      <g id="noun_User_4216248" transform="translate(-5117.075 11426.391)">
        <path id="Caminho_4844" data-name="Caminho 4844" d="M32.012,13.524a4.153,4.153,0,0,0,4.152-4.152,4.152,4.152,0,0,0-8.3,0,4.153,4.153,0,0,0,4.152,4.152Z" transform="translate(-24.923 -5.22)" fill="#fff" stroke="#287add" stroke-width="2"/>
        <path id="Caminho_4845" data-name="Caminho 4845" d="M26.955,53.4a10.2,10.2,0,0,0-.141-1.089,8.445,8.445,0,0,0-.268-1.1,5.453,5.453,0,0,0-.45-1.022,3.882,3.882,0,0,0-.679-.885,3,3,0,0,0-.976-.612,3.356,3.356,0,0,0-1.245-.225,1.274,1.274,0,0,0-.676.287c-.2.133-.439.285-.7.452a3.943,3.943,0,0,1-.91.4,3.547,3.547,0,0,1-2.225,0,3.962,3.962,0,0,1-.909-.4c-.262-.167-.5-.32-.7-.454a1.269,1.269,0,0,0-.676-.287,3.363,3.363,0,0,0-1.245.225,3.015,3.015,0,0,0-.976.612,3.84,3.84,0,0,0-.679.885,5.453,5.453,0,0,0-.45,1.022,8.445,8.445,0,0,0-.268,1.1,10.716,10.716,0,0,0-.141,1.089c-.023.329-.035.672-.035,1.018a2.861,2.861,0,0,0,.851,2.165,3.064,3.064,0,0,0,2.19.8h8.3a3.061,3.061,0,0,0,2.19-.8,2.864,2.864,0,0,0,.851-2.165C26.992,54.073,26.979,53.731,26.955,53.4Z" transform="translate(-12.6 -40.145)" fill="#fff" stroke="#287add" stroke-width="2"/>
      </g>
      <g id="noun_User_4216248-2" data-name="noun_User_4216248" transform="translate(-5107.354 11424.661)">
        <path id="Caminho_4844-2" data-name="Caminho 4844" d="M33.515,16.53a5.472,5.472,0,0,0,4-1.657,5.476,5.476,0,0,0,1.657-4A5.657,5.657,0,0,0,33.515,5.22a5.472,5.472,0,0,0-4,1.657,5.476,5.476,0,0,0-1.657,4,5.657,5.657,0,0,0,5.655,5.655Z" transform="translate(-23.859 -5.22)" fill="#fff" stroke="#287add" stroke-width="2"/>
        <path id="Caminho_4845-2" data-name="Caminho 4845" d="M32.152,55.187A13.888,13.888,0,0,0,31.96,53.7a11.5,11.5,0,0,0-.364-1.492,7.427,7.427,0,0,0-.613-1.392,5.287,5.287,0,0,0-.925-1.206,4.079,4.079,0,0,0-1.329-.834,4.571,4.571,0,0,0-1.7-.307,1.736,1.736,0,0,0-.92.391c-.275.181-.6.388-.957.616a5.371,5.371,0,0,1-1.24.545,4.831,4.831,0,0,1-3.031,0,5.4,5.4,0,0,1-1.237-.545c-.357-.228-.679-.435-.96-.619a1.728,1.728,0,0,0-.92-.391,4.581,4.581,0,0,0-1.7.307,4.107,4.107,0,0,0-1.329.834,5.23,5.23,0,0,0-.925,1.206,7.427,7.427,0,0,0-.613,1.392,11.5,11.5,0,0,0-.364,1.492,14.6,14.6,0,0,0-.191,1.484c-.031.448-.047.915-.047,1.387a3.9,3.9,0,0,0,1.159,2.949,4.173,4.173,0,0,0,2.983,1.088H28.049a4.169,4.169,0,0,0,2.983-1.088,3.9,3.9,0,0,0,1.159-2.949C32.2,56.1,32.183,55.635,32.152,55.187Z" transform="translate(-12.6 -37.132)" fill="#fff" stroke="#287add" stroke-width="2"/>
      </g>
    </g>
  </g>
</svg>
