<svg xmlns="http://www.w3.org/2000/svg" width="60.139" height="36.752" viewBox="0 0 60.139 36.752">
  <g id="Grupo_5866" data-name="Grupo 5866" transform="translate(-146.841 -451.093)">
    <path id="Caminho_7525" data-name="Caminho 7525" d="M176.911,476.709a5.568,5.568,0,1,1-5.568,5.568,5.568,5.568,0,0,1,5.568-5.568" fill="#5294e3"/>
    <path id="Caminho_7526" data-name="Caminho 7526" d="M201.412,476.708a5.568,5.568,0,1,1-5.568,5.568,5.568,5.568,0,0,1,5.568-5.568" fill="#5294e3"/>
    <path id="Caminho_7529" data-name="Caminho 7529" d="M176.91,451.093a5.568,5.568,0,1,1-5.568,5.568,5.568,5.568,0,0,1,5.568-5.568" fill="#5294e3"/>
    <path id="Caminho_7530" data-name="Caminho 7530" d="M152.409,451.093a5.568,5.568,0,1,1-5.568,5.568,5.568,5.568,0,0,1,5.568-5.568" fill="#5294e3"/>
  </g>
</svg>
