<svg xmlns="http://www.w3.org/2000/svg" width="62.365" height="36.751" viewBox="0 0 62.365 36.751">
  <g id="Grupo_5867" data-name="Grupo 5867" transform="translate(-646.85 -33.949)">
    <path id="Caminho_7532" data-name="Caminho 7532" d="M652.418,33.949a5.568,5.568,0,1,1-5.568,5.568,5.568,5.568,0,0,1,5.568-5.568" fill="#5294e3"/>
    <path id="Caminho_7533" data-name="Caminho 7533" d="M678.032,33.949a5.568,5.568,0,1,1-5.568,5.568,5.568,5.568,0,0,1,5.568-5.568" fill="#5294e3"/>
    <path id="Caminho_7535" data-name="Caminho 7535" d="M678.032,59.564a5.568,5.568,0,1,1-5.568,5.568,5.568,5.568,0,0,1,5.568-5.568" fill="#5294e3"/>
    <path id="Caminho_7536" data-name="Caminho 7536" d="M703.647,59.564a5.568,5.568,0,1,1-5.568,5.568,5.568,5.568,0,0,1,5.568-5.568" fill="#5294e3"/>
  </g>
</svg>
