<svg xmlns="http://www.w3.org/2000/svg" width="175.01" height="155.617" viewBox="0 0 175.01 155.617">
  <g id="DATA_SECURITY" data-name="DATA SECURITY" transform="translate(24.252)">
    <g id="Data_Security-2" data-name="Data Security" transform="translate(-15.252 103.311)">
      <text id="Data_Security-3" data-name="Data Security" transform="translate(5.005 33.653)" fill="#373737" font-size="22" font-family="Poppins-Regular, Poppins"><tspan x="0" y="0">Data Security</tspan></text>
      <g id="Retângulo_1162" data-name="Retângulo 1162" transform="translate(-9)" fill="none" stroke="#707070" stroke-width="1" opacity="0">
        <rect width="175.01" height="52.305" stroke="none"/>
        <rect x="0.5" y="0.5" width="174.01" height="51.305" fill="none"/>
      </g>
    </g>
    <g id="Ícone_-_Data_Security" data-name="Ícone - Data Security" transform="translate(27.072 0)">
      <rect id="Retângulo_1846" data-name="Retângulo 1846" width="72.362" height="72.362" transform="translate(0)" fill="none"/>
      <path id="Caminho_7435" data-name="Caminho 7435" d="M40,66.86v-16.6A2.263,2.263,0,0,1,42.263,48H87.527a2.263,2.263,0,0,1,2.263,2.263v16.6c0,23.768-20.172,31.642-24.2,32.978a2.135,2.135,0,0,1-1.39,0C60.172,98.5,40,90.628,40,66.86Z" transform="translate(-28.813 -37.635)" fill="none" stroke="#000" stroke-linecap="round" stroke-linejoin="round" stroke-width="4"/>
      <path id="Caminho_7436" data-name="Caminho 7436" d="M108.9,104,92.3,119.842,84,111.921" transform="translate(-60.366 -77.793)" fill="none" stroke="#000" stroke-linecap="round" stroke-linejoin="round" stroke-width="4"/>
    </g>
  </g>
</svg>
