<svg xmlns="http://www.w3.org/2000/svg" width="206.724" height="38.067" viewBox="0 0 206.724 38.067">
  <g id="Grupo_10" data-name="Grupo 10" transform="translate(-113 -85)">
    <g id="Grupo_6" data-name="Grupo 6" transform="translate(113 85)">
      <path id="Caminho_13" data-name="Caminho 13" d="M-345.317-335.354a22.774,22.774,0,0,1,18.419-8.6c.61-11.81-16.516,3.255-18.419,8.6Z" transform="translate(347.328 349.154)" fill="#fff"/>
      <path id="Caminho_14" data-name="Caminho 14" d="M-255.407-338.795c.253.668-7.788,5.3-14.27,6.085.067-6.243,2.86-17.033-3.2-18.826,11.887-1.494,18.3,10.745,17.472,12.741Z" transform="translate(292.33 351.662)" fill="#fff"/>
      <path id="Caminho_15" data-name="Caminho 15" d="M-343.441-280.348c-10.568-6.233-15.008-18.143-3.2-26.639-4.356,10.549-2.494,19.6,3.2,26.639Z" transform="translate(353.671 317.743)" fill="#fff"/>
      <path id="Caminho_16" data-name="Caminho 16" d="M-325.09-279.15c10.847,1.458,24.167-.563,30.753-8.421.706,18.161-29.879,35.935-30.753,8.421Z" transform="translate(331.971 303.001)" fill="#fff"/>
      <path id="Caminho_17" data-name="Caminho 17" d="M-151.464-338.455a8.613,8.613,0,0,1,3.453.69,8.941,8.941,0,0,1,2.8,1.895,8.933,8.933,0,0,1,1.894,2.8,8.613,8.613,0,0,1,.69,3.453v7.1a8.612,8.612,0,0,1-.69,3.453,9.172,9.172,0,0,1-1.894,2.822,8.766,8.766,0,0,1-2.8,1.914,8.614,8.614,0,0,1-3.453.691h-1.776v-3.513h1.776a5.14,5.14,0,0,0,3.137-1.006,5.347,5.347,0,0,0,1.914-2.585h-5.051a8.654,8.654,0,0,1-3.434-.691,8.957,8.957,0,0,1-2.842-1.914,8.936,8.936,0,0,1-1.914-2.842,8.654,8.654,0,0,1-.691-3.433,8.614,8.614,0,0,1,.691-3.453,8.773,8.773,0,0,1,1.914-2.8,9.126,9.126,0,0,1,2.842-1.895,8.658,8.658,0,0,1,3.434-.69Zm-5.367,8.84a5.346,5.346,0,0,0,.414,2.091,5.309,5.309,0,0,0,1.145,1.717,5.3,5.3,0,0,0,1.717,1.144,5.34,5.34,0,0,0,2.092.415h5.367v-5.367a5.205,5.205,0,0,0-.414-2.072,5.368,5.368,0,0,0-1.145-1.7,5.311,5.311,0,0,0-1.716-1.145,5.351,5.351,0,0,0-2.092-.414,5.349,5.349,0,0,0-2.092.414,5.31,5.31,0,0,0-1.717,1.145,5.372,5.372,0,0,0-1.145,1.7,5.205,5.205,0,0,0-.414,2.072Zm18.9-15.944h3.512v24.824h-3.512v-24.824Zm8.359,16.023a8.606,8.606,0,0,1,.691-3.453,8.926,8.926,0,0,1,1.894-2.8,8.871,8.871,0,0,1,2.821-1.895,8.659,8.659,0,0,1,3.434-.69,8.614,8.614,0,0,1,3.453.69,9.175,9.175,0,0,1,2.822,1.895,8.772,8.772,0,0,1,1.914,2.8,8.614,8.614,0,0,1,.69,3.453,8.656,8.656,0,0,1-.69,3.433,8.945,8.945,0,0,1-1.914,2.841,9.013,9.013,0,0,1-2.822,1.914,8.614,8.614,0,0,1-3.453.69,8.659,8.659,0,0,1-3.434-.69,8.72,8.72,0,0,1-2.821-1.914,9.1,9.1,0,0,1-1.894-2.841,8.648,8.648,0,0,1-.691-3.433Zm3.473,0a5.348,5.348,0,0,0,.414,2.091,5.31,5.31,0,0,0,1.145,1.717,5.31,5.31,0,0,0,1.717,1.144,5.344,5.344,0,0,0,2.092.414,5.346,5.346,0,0,0,2.092-.414,5.31,5.31,0,0,0,1.717-1.144,5.309,5.309,0,0,0,1.145-1.717,5.348,5.348,0,0,0,.414-2.091,5.205,5.205,0,0,0-.414-2.072,5.367,5.367,0,0,0-1.145-1.7,5.3,5.3,0,0,0-1.717-1.144,5.342,5.342,0,0,0-2.092-.415,5.34,5.34,0,0,0-2.092.415,5.3,5.3,0,0,0-1.717,1.144,5.368,5.368,0,0,0-1.145,1.7,5.2,5.2,0,0,0-.414,2.072Zm27.855-8.84a8.614,8.614,0,0,1,3.453.69,8.935,8.935,0,0,1,2.8,1.895,8.926,8.926,0,0,1,1.894,2.8,8.61,8.61,0,0,1,.691,3.453A8.652,8.652,0,0,1-90.1-326.1a9.1,9.1,0,0,1-1.894,2.841,8.781,8.781,0,0,1-2.8,1.914,8.614,8.614,0,0,1-3.453.69,8.657,8.657,0,0,1-3.434-.69,8.952,8.952,0,0,1-2.842-1.914,8.944,8.944,0,0,1-1.914-2.841,8.656,8.656,0,0,1-.69-3.433V-345.48h3.512v7.1Zm0,14.207a5.2,5.2,0,0,0,2.072-.414,5.366,5.366,0,0,0,1.7-1.144,5.313,5.313,0,0,0,1.145-1.717,5.348,5.348,0,0,0,.414-2.091,5.205,5.205,0,0,0-.414-2.072,5.371,5.371,0,0,0-1.145-1.7,5.359,5.359,0,0,0-1.7-1.144,5.2,5.2,0,0,0-2.072-.415h-5.367v5.328a5.348,5.348,0,0,0,.414,2.091,5.309,5.309,0,0,0,1.145,1.717,5.307,5.307,0,0,0,1.717,1.144,5.346,5.346,0,0,0,2.092.414Zm22.29-14.286a8.613,8.613,0,0,1,3.453.69,8.943,8.943,0,0,1,2.8,1.895,8.941,8.941,0,0,1,1.894,2.8,8.609,8.609,0,0,1,.691,3.453v8.88h-8.84a8.65,8.65,0,0,1-3.433-.691,8.946,8.946,0,0,1-2.842-1.914,8.945,8.945,0,0,1-1.914-2.842,8.657,8.657,0,0,1-.69-3.433,8.617,8.617,0,0,1,.69-3.453,8.782,8.782,0,0,1,1.914-2.8,9.115,9.115,0,0,1,2.842-1.895,8.654,8.654,0,0,1,3.433-.69Zm5.328,14.208v-5.367a5.2,5.2,0,0,0-.415-2.072,5.366,5.366,0,0,0-1.144-1.7,5.376,5.376,0,0,0-1.7-1.145,5.205,5.205,0,0,0-2.072-.414,5.347,5.347,0,0,0-2.091.414,5.311,5.311,0,0,0-1.717,1.145,5.366,5.366,0,0,0-1.144,1.7,5.2,5.2,0,0,0-.414,2.072,5.337,5.337,0,0,0,.414,2.091,5.3,5.3,0,0,0,1.144,1.717,5.3,5.3,0,0,0,1.717,1.144,5.338,5.338,0,0,0,2.091.415Zm8.123-21.311h3.512v24.824h-3.512v-24.824Z" transform="translate(206.888 347.028)" fill="#fff"/>
      <path id="Caminho_18" data-name="Caminho 18" d="M290.816-316.234v3.512h-10.7a1.718,1.718,0,0,0-1.263.513,1.718,1.718,0,0,0-.513,1.263,1.784,1.784,0,0,0,.513,1.283,1.686,1.686,0,0,0,1.263.533h7.1a5.208,5.208,0,0,1,2.072.414,5.538,5.538,0,0,1,1.7,1.125,5.138,5.138,0,0,1,1.144,1.677,5.2,5.2,0,0,1,.414,2.072,5.2,5.2,0,0,1-.414,2.072,5.363,5.363,0,0,1-1.144,1.7,5.365,5.365,0,0,1-1.7,1.145,5.2,5.2,0,0,1-2.072.414H276.569v-3.512h10.656a1.764,1.764,0,0,0,1.3-.513,1.764,1.764,0,0,0,.513-1.3,1.716,1.716,0,0,0-.513-1.263,1.764,1.764,0,0,0-1.3-.513h-7.1a5.2,5.2,0,0,1-2.072-.414,5.138,5.138,0,0,1-1.678-1.144,5.543,5.543,0,0,1-1.125-1.7,5.206,5.206,0,0,1-.414-2.072,5.206,5.206,0,0,1,.414-2.072,5.3,5.3,0,0,1,1.125-1.677,5.3,5.3,0,0,1,1.678-1.125,5.2,5.2,0,0,1,2.072-.414Zm20.561.039v15.944a8.609,8.609,0,0,1-.691,3.453,9.176,9.176,0,0,1-1.894,2.822,8.766,8.766,0,0,1-2.8,1.914,8.605,8.605,0,0,1-3.453.691h-1.776v-3.512h1.776a5.2,5.2,0,0,0,2.072-.415,5.355,5.355,0,0,0,1.7-1.144,5.312,5.312,0,0,0,1.145-1.717,5.347,5.347,0,0,0,.414-2.091v-.04a8.455,8.455,0,0,1-2.467,1.341,8.637,8.637,0,0,1-2.861.474,8.653,8.653,0,0,1-3.434-.691,8.947,8.947,0,0,1-2.841-1.914,8.954,8.954,0,0,1-1.914-2.842,8.656,8.656,0,0,1-.69-3.433v-8.84h3.512v8.84a5.347,5.347,0,0,0,.414,2.091,5.305,5.305,0,0,0,1.145,1.717,5.315,5.315,0,0,0,1.717,1.145,5.355,5.355,0,0,0,2.092.414,5.211,5.211,0,0,0,2.072-.414,5.372,5.372,0,0,0,1.7-1.145,5.311,5.311,0,0,0,1.145-1.717,5.347,5.347,0,0,0,.414-2.091v-8.84Zm17.128-.039v3.512h-10.7a1.718,1.718,0,0,0-1.263.513,1.717,1.717,0,0,0-.513,1.263,1.783,1.783,0,0,0,.513,1.283,1.686,1.686,0,0,0,1.263.533h7.1a5.208,5.208,0,0,1,2.072.414,5.547,5.547,0,0,1,1.7,1.125,5.142,5.142,0,0,1,1.144,1.677,5.2,5.2,0,0,1,.414,2.072,5.2,5.2,0,0,1-.414,2.072,5.366,5.366,0,0,1-1.144,1.7,5.373,5.373,0,0,1-1.7,1.145,5.2,5.2,0,0,1-2.072.414H314.258v-3.512h10.656a1.764,1.764,0,0,0,1.3-.513,1.764,1.764,0,0,0,.513-1.3,1.716,1.716,0,0,0-.513-1.263,1.764,1.764,0,0,0-1.3-.513h-7.1a5.2,5.2,0,0,1-2.072-.414,5.138,5.138,0,0,1-1.678-1.144,5.543,5.543,0,0,1-1.125-1.7,5.209,5.209,0,0,1-.414-2.072,5.21,5.21,0,0,1,.414-2.072,5.3,5.3,0,0,1,1.125-1.677,5.3,5.3,0,0,1,1.678-1.125,5.2,5.2,0,0,1,2.072-.414Z" transform="translate(-123.518 324.763)" fill="#fff"/>
    </g>
  </g>
</svg>
