<svg id="Logo_Globalsys" data-name="Logo Globalsys" xmlns="http://www.w3.org/2000/svg" width="185.641" height="34.185" viewBox="0 0 185.641 34.185">
  <path id="Caminho_148" data-name="Caminho 148" d="M8.353,1122.893a20.453,20.453,0,0,1,16.541-7.72c.548-10.605-14.832,2.923-16.541,7.72Z" transform="translate(-6.547 -1110.5)" fill="#575756"/>
  <path id="Caminho_149" data-name="Caminho 149" d="M96.482,1119.465c.227.6-6.994,4.762-12.815,5.465.06-5.606,2.568-15.3-2.875-16.906,10.674-1.341,16.437,9.649,15.69,11.442Z" transform="translate(-63.325 -1107.91)" fill="#575756"/>
  <path id="Caminho_150" data-name="Caminho 150" d="M9.186,1176.508c-9.49-5.6-13.478-16.293-2.875-23.922-3.912,9.473-2.24,17.6,2.875,23.922Z" transform="translate(0 -1142.927)" fill="#575756"/>
  <path id="Caminho_151" data-name="Caminho 151" d="M28.581,1179.564c9.74,1.309,21.7-.506,27.617-7.562.634,16.309-26.832,32.27-27.617,7.562Z" transform="translate(-22.402 -1158.145)" fill="#008ad1"/>
  <path id="Caminho_152" data-name="Caminho 152" d="M201.3,1120.393a7.736,7.736,0,0,1,3.1.62,8.005,8.005,0,0,1,4.217,4.218,7.735,7.735,0,0,1,.62,3.1v6.379a7.735,7.735,0,0,1-.62,3.1,8.237,8.237,0,0,1-1.7,2.534,7.869,7.869,0,0,1-2.516,1.719,7.734,7.734,0,0,1-3.1.62h-1.595v-3.154H201.3a4.616,4.616,0,0,0,2.818-.9,4.8,4.8,0,0,0,1.719-2.321H201.3a7.774,7.774,0,0,1-3.083-.62,8.036,8.036,0,0,1-4.27-4.271,8.016,8.016,0,0,1,0-6.184,7.878,7.878,0,0,1,1.719-2.516,8.188,8.188,0,0,1,2.552-1.7,7.776,7.776,0,0,1,3.083-.62Zm-4.82,7.939a4.794,4.794,0,0,0,4.82,4.82h4.82v-4.82a4.679,4.679,0,0,0-.372-1.861,4.821,4.821,0,0,0-1.028-1.524,4.865,4.865,0,0,0-6.84,0,4.824,4.824,0,0,0-1.028,1.524,4.675,4.675,0,0,0-.372,1.861Zm16.969-14.318H216.6v22.292h-3.154v-22.292Zm7.507,14.389a7.728,7.728,0,0,1,.62-3.1,7.959,7.959,0,0,1,4.235-4.218,8.024,8.024,0,0,1,6.184,0,8.247,8.247,0,0,1,2.534,1.7,7.877,7.877,0,0,1,1.719,2.516,8.02,8.02,0,0,1,0,6.184,8.085,8.085,0,0,1-4.253,4.271,8.02,8.02,0,0,1-6.184,0,7.831,7.831,0,0,1-2.534-1.719,8.185,8.185,0,0,1-1.7-2.552,7.767,7.767,0,0,1-.62-3.083Zm3.119,0a4.82,4.82,0,1,0,9.64,0,4.674,4.674,0,0,0-.372-1.861,4.818,4.818,0,0,0-1.028-1.524,4.865,4.865,0,0,0-6.84,0,4.819,4.819,0,0,0-1.028,1.524,4.674,4.674,0,0,0-.372,1.861Zm25.014-7.938a7.738,7.738,0,0,1,3.1.62,8.006,8.006,0,0,1,4.217,4.218,8.018,8.018,0,0,1,0,6.184,8.185,8.185,0,0,1-1.7,2.552,7.886,7.886,0,0,1-2.516,1.719,8.02,8.02,0,0,1-6.184,0,8.036,8.036,0,0,1-4.271-4.271,7.774,7.774,0,0,1-.62-3.083v-14.318h3.154v6.38Zm0,12.758a4.672,4.672,0,0,0,1.861-.372,4.818,4.818,0,0,0,1.524-1.028,4.832,4.832,0,0,0,1.4-3.42,4.674,4.674,0,0,0-.372-1.861,4.816,4.816,0,0,0-2.552-2.552,4.668,4.668,0,0,0-1.861-.372h-4.82v4.785a4.794,4.794,0,0,0,4.82,4.82Zm20.017-12.829a7.736,7.736,0,0,1,3.1.62,8,8,0,0,1,4.218,4.218,7.732,7.732,0,0,1,.62,3.1v7.974h-7.939a7.77,7.77,0,0,1-3.083-.62,8.039,8.039,0,0,1-4.271-4.271,8.022,8.022,0,0,1,0-6.184,7.886,7.886,0,0,1,1.719-2.516,8.181,8.181,0,0,1,2.552-1.7,7.772,7.772,0,0,1,3.083-.62Zm4.785,12.759v-4.82a4.67,4.67,0,0,0-.372-1.861,4.814,4.814,0,0,0-2.552-2.552,4.673,4.673,0,0,0-1.861-.372,4.791,4.791,0,0,0-4.447,2.924,4.668,4.668,0,0,0-.372,1.861,4.795,4.795,0,0,0,4.82,4.82Zm7.294-19.138h3.154v22.292h-3.154v-22.292Z" transform="translate(-151.53 -1112.694)" fill="#575756"/>
  <path id="Caminho_153" data-name="Caminho 153" d="M642.857,1143.339v3.154h-9.6a1.573,1.573,0,0,0-1.594,1.595,1.6,1.6,0,0,0,.46,1.152,1.514,1.514,0,0,0,1.134.478h6.379a4.674,4.674,0,0,1,1.861.372,4.968,4.968,0,0,1,1.524,1.01,4.611,4.611,0,0,1,1.028,1.506,4.838,4.838,0,0,1,0,3.722,4.815,4.815,0,0,1-2.552,2.552,4.674,4.674,0,0,1-1.861.372h-9.569V1156.1h9.569a1.576,1.576,0,0,0,1.63-1.63,1.541,1.541,0,0,0-.461-1.134,1.584,1.584,0,0,0-1.17-.461h-6.379a4.675,4.675,0,0,1-1.86-.372,4.613,4.613,0,0,1-1.506-1.028,4.978,4.978,0,0,1-1.01-1.524,4.839,4.839,0,0,1,0-3.721,4.685,4.685,0,0,1,2.516-2.516,4.671,4.671,0,0,1,1.86-.372Zm18.464.035v14.318a7.732,7.732,0,0,1-.62,3.1,8.236,8.236,0,0,1-1.7,2.534,7.866,7.866,0,0,1-2.516,1.719,7.731,7.731,0,0,1-3.1.62h-1.595v-3.154h1.595a4.667,4.667,0,0,0,1.861-.373,4.809,4.809,0,0,0,2.924-4.448v-.036a7.592,7.592,0,0,1-2.215,1.2,7.972,7.972,0,0,1-5.653-.195,8.037,8.037,0,0,1-4.271-4.27,7.775,7.775,0,0,1-.62-3.083v-7.939h3.154v7.939a4.793,4.793,0,0,0,4.82,4.82,4.682,4.682,0,0,0,1.861-.372,4.822,4.822,0,0,0,1.524-1.028,4.831,4.831,0,0,0,1.4-3.42v-7.939Zm15.381-.035v3.154h-9.6a1.573,1.573,0,0,0-1.594,1.595,1.6,1.6,0,0,0,.46,1.152,1.514,1.514,0,0,0,1.134.478h6.379a4.672,4.672,0,0,1,1.861.372,4.975,4.975,0,0,1,1.524,1.01,4.617,4.617,0,0,1,1.028,1.506,4.838,4.838,0,0,1,0,3.722,4.815,4.815,0,0,1-2.552,2.552,4.672,4.672,0,0,1-1.861.372h-9.569V1156.1h9.569a1.576,1.576,0,0,0,1.63-1.63,1.54,1.54,0,0,0-.461-1.134,1.584,1.584,0,0,0-1.17-.461H667.1a4.675,4.675,0,0,1-1.86-.372,4.611,4.611,0,0,1-1.506-1.028,4.975,4.975,0,0,1-1.01-1.524,4.84,4.84,0,0,1,0-3.721,4.686,4.686,0,0,1,2.516-2.516,4.67,4.67,0,0,1,1.86-.372Z" transform="translate(-492.621 -1135.679)" fill="#008ad1"/>
</svg>