<svg xmlns="http://www.w3.org/2000/svg" width="44.816" height="44.816" viewBox="0 0 44.816 44.816">
  <g id="Grupo_11" data-name="Grupo 11" transform="translate(-73.946 -0.001)">
    <path id="Caminho_24" data-name="Caminho 24" d="M100.643,22.409a4.289,4.289,0,1,1-4.289-4.289,4.289,4.289,0,0,1,4.289,4.289Z" fill="#fff"/>
    <path id="Caminho_25" data-name="Caminho 25" d="M106.384,14.82a4.263,4.263,0,0,0-2.442-2.442,7.138,7.138,0,0,0-2.389-.443c-1.357-.062-1.764-.075-5.2-.075s-3.843.013-5.2.075a7.138,7.138,0,0,0-2.389.443,4.264,4.264,0,0,0-2.443,2.442,7.138,7.138,0,0,0-.443,2.389c-.062,1.357-.075,1.764-.075,5.2s.013,3.842.075,5.2A7.138,7.138,0,0,0,86.321,30a4.263,4.263,0,0,0,2.442,2.442,7.088,7.088,0,0,0,2.389.443c1.357.062,1.763.075,5.2.075s3.843-.013,5.2-.075a7.088,7.088,0,0,0,2.389-.443A4.263,4.263,0,0,0,106.383,30a7.138,7.138,0,0,0,.443-2.389c.062-1.357.075-1.764.075-5.2s-.013-3.843-.075-5.2a7.088,7.088,0,0,0-.443-2.389Zm-10.03,14.2a6.607,6.607,0,1,1,6.607-6.607h0A6.607,6.607,0,0,1,96.354,29.02Zm6.868-11.931a1.544,1.544,0,1,1,1.544-1.544,1.544,1.544,0,0,1-1.544,1.544Z" fill="#fff"/>
    <path id="Caminho_26" data-name="Caminho 26" d="M96.354,0a22.408,22.408,0,1,0,22.408,22.408h0A22.41,22.41,0,0,0,96.354,0Zm12.792,27.713a9.45,9.45,0,0,1-.6,3.123,6.578,6.578,0,0,1-3.763,3.763,9.45,9.45,0,0,1-3.123.6c-1.372.063-1.81.078-5.3.078s-3.933-.015-5.305-.078a9.45,9.45,0,0,1-3.123-.6,6.578,6.578,0,0,1-3.763-3.763,9.45,9.45,0,0,1-.6-3.123c-.063-1.372-.078-1.811-.078-5.305s.015-3.933.078-5.3a9.45,9.45,0,0,1,.6-3.123,6.584,6.584,0,0,1,3.763-3.763,9.45,9.45,0,0,1,3.123-.6c1.372-.063,1.81-.078,5.3-.078s3.933.015,5.3.078a9.45,9.45,0,0,1,3.123.6,6.584,6.584,0,0,1,3.763,3.763,9.449,9.449,0,0,1,.6,3.123c.063,1.372.077,1.81.077,5.3s-.015,3.933-.078,5.3Z" fill="#fff"/>
  </g>
</svg>
