<svg xmlns="http://www.w3.org/2000/svg" width="44.994" height="44.997" viewBox="0 0 44.994 44.997">
  <g id="Grupo_13" data-name="Grupo 13" transform="translate(-148.004 -0.003)">
    <path id="Caminho_28" data-name="Caminho 28" d="M170.5,45a22.505,22.505,0,0,1-8.757-43.229,22.5,22.5,0,0,1,17.514,41.462A22.365,22.365,0,0,1,170.5,45Zm4.959-24.537c2.273,0,2.273,2.156,2.273,3.729v6.859H182.1v-7.74a8.849,8.849,0,0,0-.96-4.769c-.818-1.3-2.219-1.931-4.282-1.931a4.612,4.612,0,0,0-4.137,2.273h-.062v-1.92h-4.194V31.051h4.369V24.077c0-1.79.31-3.618,2.622-3.618Zm-14.108-3.5V31.05h4.375V16.963Zm2.185-7.013a2.546,2.546,0,1,0,2.535,2.534,2.535,2.535,0,0,0-2.535-2.534h0Z" fill="#fff"/>
  </g>
</svg>
