<svg xmlns="http://www.w3.org/2000/svg" width="45" height="45" viewBox="0 0 45 45">
  <g id="YouTube-Logo.wine" transform="translate(113.915 164.588)">
    <g id="g7433" transform="translate(-113 -153)">
      <circle id="Elipse_892" data-name="Elipse 892" cx="22.5" cy="22.5" r="22.5" transform="translate(-0.915 -11.588)" fill="#fff"/>
      <path id="path7429" d="M30.528,3.415A3.905,3.905,0,0,0,27.781.668C25.342,0,15.585,0,15.585,0S5.828,0,3.389.642A3.985,3.985,0,0,0,.642,3.415,41.15,41.15,0,0,0,0,10.912a41,41,0,0,0,.642,7.5,3.905,3.905,0,0,0,2.747,2.747c2.465.668,12.2.668,12.2.668s9.757,0,12.2-.642a3.905,3.905,0,0,0,2.747-2.747,41.15,41.15,0,0,0,.642-7.5,39.073,39.073,0,0,0-.642-7.523Z" transform="translate(6)" fill="#0868b1"/>
      <path id="polygon7431" d="M48.6,24.3v9.346l8.113-4.673Z" transform="translate(-30.122 -18.061)" fill="#fff"/>
    </g>
  </g>
</svg>
