<svg id="Coocafe" xmlns="http://www.w3.org/2000/svg" viewBox="0 0 194.954 54.101">
  <path id="Caminho_4738" data-name="Caminho 4738" d="M497.066,602.89s11.539,3.312,12.481,4.641S507.894,609,507.894,609a71.948,71.948,0,0,0-10.828-6.115Z" transform="translate(-484.726 -576.183)" fill="#307e34"/>
  <g id="Grupo_4196" data-name="Grupo 4196" transform="translate(0 0)">
    <path id="Caminho_4739" data-name="Caminho 4739" d="M519.268,646.662a27.05,27.05,0,1,1,26.945-27.048A27.05,27.05,0,0,1,519.268,646.662Zm0-53.105a26.058,26.058,0,1,0,25.954,26.058,26.058,26.058,0,0,0-25.954-26.058Z" transform="translate(-492.112 -592.561)" fill="#307e33"/>
  </g>
  <path id="Caminho_4740" data-name="Caminho 4740" d="M509.668,622.088c-.429.983-1.4.543-2.076.225a29.673,29.673,0,0,1-13.027-10.968c-2.319-3.7-1.526-6.681,1.965-8.455q.074.074.147.155c-1.821,2.575-.987,5.062.4,7.42,2.676,4.556,6.829,7.493,11.351,9.97C509.128,620.819,510.107,621.087,509.668,622.088Z" transform="translate(-490.781 -576.183)" fill="#297631"/>
  <path id="Caminho_4741" data-name="Caminho 4741" d="M506.914,616.772c-.062-1.133-.91-1.551-1.593-2.133-3.7-3.147-7.48-6.2-9.771-10.635-.044-.088-.039-.2.168-.541,3.312,3.93,7.7,6.687,11.178,10.766" transform="translate(-487.167 -575.273)" fill="#307e34"/>
  <path id="Caminho_4742" data-name="Caminho 4742" d="M512.354,622.192a19.131,19.131,0,0,1-6.774,2.131c-.951.068-1.991.215-2.237-1.021-.233-1.187.77-1.285,1.607-1.559,5.21-1.673,10.133-3.856,13.967-7.961a13.122,13.122,0,0,0,3.449-6.366c.339-1.642-.189-3.126-1.326-4.871a7.07,7.07,0,0,1,3.026,10.444C521.21,617.4,516.944,620.017,512.354,622.192Z" transform="translate(-474.827 -576.728)" fill="#870c17"/>
  <path id="Caminho_4743" data-name="Caminho 4743" d="M523.768,604.618Z" transform="translate(-442.387 -573.447)" fill="#2b7832"/>
  <path id="Caminho_4744" data-name="Caminho 4744" d="M522.765,605.654Z" transform="translate(-443.98 -571.801)" fill="#040505"/>
  <path id="Caminho_4745" data-name="Caminho 4745" d="M523.87,604.481Z" transform="translate(-442.228 -573.659)" fill="#2b7832"/>
  <path id="Caminho_4746" data-name="Caminho 4746" d="M523.636,604.783Z" transform="translate(-442.599 -573.182)" fill="#2b7832"/>
  <path id="Caminho_4747" data-name="Caminho 4747" d="M576.271,600.6h0c-.132-.17-.253-.352-.4-.512a3.071,3.071,0,0,0-2.373-.954,11.507,11.507,0,0,0-5.107,1.12,9.644,9.644,0,0,0-2.19,1.285,8.88,8.88,0,0,0-1.795,1.482,4.979,4.979,0,0,0-.972,1.034,1.146,1.146,0,0,0-.352.426h0a4.19,4.19,0,0,0-.693.954,7.36,7.36,0,0,0-.908,1.592,1.634,1.634,0,0,0-.129.316,3.6,3.6,0,0,0-.419,1.016,5.224,5.224,0,0,0-.431,1.474h0a4.939,4.939,0,0,0-.264,1.562,5.6,5.6,0,0,0,.085,2.363,4.76,4.76,0,0,0,.548,1.541,4.178,4.178,0,0,0,1.934,2.33,6.8,6.8,0,0,0,2.953.709,9.356,9.356,0,0,0,2.4-.181,5.05,5.05,0,0,0,1.446-.411,1.164,1.164,0,0,0,.569-.183,5.954,5.954,0,0,0,1.435-.757h0a1.7,1.7,0,0,0,.6-.357.306.306,0,0,0,.263-.168h0a.5.5,0,0,0,.344-.264h0l.088-.08-.013-.015v0l.01.021a.5.5,0,0,0,.161-.062,17.524,17.524,0,0,0,2.061-2.048.4.4,0,0,0-.01-.577c-.129-.15-.267-.293-.4-.437-.08-.08-.174-.153-.248-.241a.226.226,0,0,0-.365-.034,19.543,19.543,0,0,1-2.069,1.391l-.745.333a6.779,6.779,0,0,1-3.188.62,2.69,2.69,0,0,1-1.962-.85h0a1.021,1.021,0,0,0-.049-.2,3.4,3.4,0,0,1-.295-1.422c0-.488.065-.972.1-1.456.021-.329.044-.365.357-.44a2.469,2.469,0,0,1,.339-.039c.771-.08,1.536-.178,2.3-.321a11.249,11.249,0,0,0,2.609-.853,3.649,3.649,0,0,0,1.156-.643c.241-.134.482-.259.716-.4a9.173,9.173,0,0,0,2.878-2.935,4.908,4.908,0,0,0,.811-3A2.458,2.458,0,0,0,576.271,600.6Zm-9.357,4.517-.015-.008.023-.013Zm.69-1.339-.023-.062h.047Zm-.411.716-.015.051-.023-.036Zm-1.937,7.94h.021v.021Zm.023-1.88v-.062h.047a.242.242,0,0,1-.047.063Zm.166,2.335-.013-.018h.013v.015Zm11.1-11.335.008.013h-.008Zm-2.774,5.277Zm-1.484-4.765v-.013h.01Zm-.1-.276a.854.854,0,0,0,.026.183l.008.181c-.018.382-.161.742-.2,1.125a3.727,3.727,0,0,0-.261.779c-.119.22-.241.439-.339.669a1.573,1.573,0,0,0-.08.2,4.238,4.238,0,0,0-.463.771c-.287.37-.577.74-.9,1.084a1.392,1.392,0,0,0-.421.349,8.741,8.741,0,0,1-2.42,1.176,1.629,1.629,0,0,1-.292.08.841.841,0,0,0-.114.036l-.111.039c-.1-.028-.153-.1-.129-.241h0c.1-.065.085-.161.088-.259a.515.515,0,0,0,.168-.437.5.5,0,0,0-.168.437c-.1.059-.088.161-.088.259a.285.285,0,0,0-.1.047c.013-.051.036-.1.055-.153a18.51,18.51,0,0,1,2.544-4.975c.034-.047.072-.091.106-.14a.33.33,0,0,0,.023-.051c.07.021.1-.057.15-.093.057-.062.119-.121.174-.186a4.76,4.76,0,0,1,1.422-1.233,1.687,1.687,0,0,1,.964-.14.353.353,0,0,1,.321.181c.014.1.019.207.034.315Zm-6.214,12.14h0Zm6.482,2.324h0l.018.021Z" transform="translate(-384.684 -582.149)" fill="#2b7832"/>
  <path id="Caminho_4748" data-name="Caminho 4748" d="M562.915,616.874h0a1.871,1.871,0,0,0,.866-.864h0l.085-.088h0c.026-.031.055-.059.08-.091h0a.413.413,0,0,0,.263-.342h0c.026-.034.055-.059.08-.091h0a.257.257,0,0,0,.176-.256.266.266,0,0,0,.174-.259.262.262,0,0,0,.174-.259.268.268,0,0,0,.173-.261h0a.254.254,0,0,0,.168-.263h0a.161.161,0,0,0,.091-.17,2,2,0,0,0,.1-.191c.161-.365.114-.5-.248-.677a.413.413,0,0,1-.189-.161v0a.089.089,0,0,0,.062-.109h0c-.085-.2-.305-.194-.458-.289a.23.23,0,0,0-.359.088c-.264.393-.541.779-.811,1.167a4.513,4.513,0,0,1-1.21.964l-.1-.013h0a.169.169,0,0,1-.057-.191c.14-.541.274-1.081.424-1.619.225-.8.458-1.6.69-2.4.339-1.172.688-2.34,1.019-3.514a12.874,12.874,0,0,0,.452-1.7l-.031-.015h.01l.019.018a.946.946,0,0,0,.165-.616h0a.832.832,0,0,0,.173-.6q.136-.474.272-.951c.268-.923.54-1.844.8-2.767.08-.289.036-.452-.227-.5s-.241-.191-.253-.365h0c.034-.222-.129-.178-.248-.176-1.324.046-2.651.1-3.971.142a.321.321,0,0,0-.346.293c-.085.321-.181.636-.272.954-.106.07-.1.168-.075.274h0a.068.068,0,0,1-.021.07c-.121.07-.161-.01-.222-.1-.161-.246-.253-.548-.562-.664a.089.089,0,0,0-.07-.1,2.274,2.274,0,0,0-1.4-.942,3.066,3.066,0,0,0-1.246-.055,7.5,7.5,0,0,0-3.793,1.936,8.582,8.582,0,0,0-1.9,1.823,3.439,3.439,0,0,0-.685.869,4.459,4.459,0,0,0-.7,1.034,5.462,5.462,0,0,0-.69,1.21h0a2.578,2.578,0,0,0-.435.872,11.364,11.364,0,0,0-.936,2.5l-.021.047a1.531,1.531,0,0,0-.161.631h0a4.111,4.111,0,0,0-.256,1.3,2.1,2.1,0,0,0-.087.791h0a5.738,5.738,0,0,0,.067,1.971,4,4,0,0,0,.442,1.432h0c.01.189.147.331.2.5a.129.129,0,0,0,.091.176,2.936,2.936,0,0,0,.688,1.216h0a1.246,1.246,0,0,0,.494.468,3.623,3.623,0,0,0,3.392.1,8.471,8.471,0,0,0,2.676-2.281c.388-.419.723-.884,1.1-1.35l.049.225h0a.069.069,0,0,1-.016.072c-.121.1-.091.235-.07.365h0a2.692,2.692,0,0,0,.344,1.784.433.433,0,0,0,.044.289,1.915,1.915,0,0,0,1.35,1.1,4.381,4.381,0,0,0,2.089-.044,6.1,6.1,0,0,0,2.579-1.335Zm-2.262-15.94Zm3.033,14.968v0Zm-4.452-10.557,0,0Zm-.047.062.013-.018Zm-6.749,7.3Zm2.076-7.005Zm0,0v0h0Zm.259-1.908-.015.044-.015-.051Zm-.951,2.079v.01l-.008,0Zm-1.3,4.5Zm1.98-4.173v.005h0Zm10.058-1.285h.015l-.013.011Zm-5.215-.869a6.162,6.162,0,0,0-.166,1.045,3.056,3.056,0,0,0-.184.775,4.176,4.176,0,0,0-.267.864c-.251.594-.5,1.189-.75,1.787a9.779,9.779,0,0,0-.445.978l-.861,1.567a.186.186,0,0,0-.1.168,5.28,5.28,0,0,0-.6.856.852.852,0,0,0-.274.352h0l-.941,1.034a4.94,4.94,0,0,1-.52.3,1.111,1.111,0,0,1-1.109.049c-.019-.145-.072-.276-.1-.419a5.63,5.63,0,0,1-.006-1.588,13.843,13.843,0,0,1,.272-1.787,3.176,3.176,0,0,0,.272-1.032h0l.944-2.6a.2.2,0,0,0,.028-.064q.477-.993.946-1.986a1.413,1.413,0,0,0,.062-.2h0a.174.174,0,0,0,.088-.173.177.177,0,0,0,.091-.171h0a.271.271,0,0,0,.166-.263h0a.169.169,0,0,0,.091-.17.263.263,0,0,0,.171-.261h0a.177.177,0,0,0,.091-.17h0c.023-.034.055-.059.08-.091h0a.173.173,0,0,0,.091-.168h0a.688.688,0,0,1,.08-.091h0a.266.266,0,0,0,.176-.259h0a.929.929,0,0,1,.08-.091h0a.432.432,0,0,0,.267-.341h0a.3.3,0,0,1,.085-.088h0a.38.38,0,0,1,.085-.087h0l.018-.015a.294.294,0,0,1,.07-.07h0a.271.271,0,0,0,.256-.176h0a.171.171,0,0,0,.171-.088h0c.636-.241.964-.217,1.35.134.015.08.026.161.041.241a7.539,7.539,0,0,1,.132,1.7.842.842,0,0,0,.122.606ZM556.6,614.63a.43.43,0,0,0,.067-.036v.018a.086.086,0,0,0-.061.023Z" transform="translate(-405.002 -582.154)" fill="#2b7832"/>
  <path id="Caminho_4749" data-name="Caminho 4749" d="M542.1,597.015c.161-.677.171-.675-.476-.921h0l-.031-.085h0c.039-.186.055-.329-.225-.326a.889.889,0,0,0-.683.267,2.369,2.369,0,0,1-2.283.7c-.251-.055-.509-.085-.762-.127h0a1.717,1.717,0,0,0-.7-.178h0v0a7.633,7.633,0,0,0-1.823-.431,1.457,1.457,0,0,0-.584-.108,10.529,10.529,0,0,0-3.667.106,6.107,6.107,0,0,0-1.649.349h0a1.219,1.219,0,0,0-.613.173h0a8.6,8.6,0,0,0-1.9.688,4.066,4.066,0,0,0-.951.439h0a8.676,8.676,0,0,0-1.727.959.389.389,0,0,0-.272.165,4.942,4.942,0,0,0-1.027.7.661.661,0,0,0-.349.263.11.11,0,0,0-.1.08h0a4.5,4.5,0,0,0-1.021.853,7.694,7.694,0,0,0-1.469,1.484,1.2,1.2,0,0,0-.161.142,14.227,14.227,0,0,0-1.613,2.233A11.213,11.213,0,0,0,517,606.574a.86.86,0,0,0-.168.435,6.707,6.707,0,0,0-.533,1.642,2.1,2.1,0,0,0-.17.7,5.373,5.373,0,0,0-.241,1.388l-.008.088a11.275,11.275,0,0,0-.124,2.622,3.815,3.815,0,0,0,.119,1.024l.021-.019v0h0l-.021.013a6.152,6.152,0,0,0,.421,1.9.312.312,0,0,0,.093.259h0a5.179,5.179,0,0,0,.287.845h0a.372.372,0,0,0,.028.253c.217.437.424.879.669,1.3a10.38,10.38,0,0,0,1.859,2.2,8.641,8.641,0,0,0,1.665,1.224,9.935,9.935,0,0,0,4.37,1.331,15.612,15.612,0,0,0,3.956-.153,9.951,9.951,0,0,0,3.984-1.642.4.4,0,0,1,.091-.085h0a.182.182,0,0,0,.17-.091h0a.549.549,0,0,1,.091-.08h0l.1-.085h0a.337.337,0,0,0,.072-.008l.088-.08h0a.564.564,0,0,1,.091-.085.309.309,0,0,1,.088-.085h0a.18.18,0,0,0,.168-.1h0l.085-.085h0a.963.963,0,0,1,.091-.085h0a.569.569,0,0,1,.091-.088h0a.363.363,0,0,1,.091-.088h0a.32.32,0,0,1,.088-.088h0a.643.643,0,0,0,.424-.354h0a.854.854,0,0,0,.085-.08v0a.815.815,0,0,0,.08-.08h0a.178.178,0,0,0,.1-.166h0l.085-.085h0a.281.281,0,0,1,.087-.088h0a.392.392,0,0,1,.085-.088h0a.366.366,0,0,1,.088-.091h0a.466.466,0,0,1,.088-.087h0a.7.7,0,0,1,.088-.088h0c.028-.031.057-.059.085-.087h0c.028-.028.055-.057.08-.088h0a.173.173,0,0,0,.1-.166h0a.392.392,0,0,1,.085-.087.689.689,0,0,1,.085-.088h0c.026-.031.057-.057.08-.088h0a.188.188,0,0,0,.093-.168h0a.305.305,0,0,1,.085-.088.951.951,0,0,1,.08-.091h0a.178.178,0,0,0,.093-.168h0a.307.307,0,0,1,.085-.088.913.913,0,0,1,.08-.091h0a.188.188,0,0,0,.093-.168h0a.459.459,0,0,1,.085-.091h0l.08-.088a.37.37,0,0,0,.008-.076.4.4,0,0,1,.085-.1h0c.029-.028.055-.059.08-.088a.723.723,0,0,0,.01-.072l.08-.1h0a.187.187,0,0,0,.088-.174h0c.111-.225.093-.261-.176-.352h0c-.106-.155-.336,0-.439-.176.016-.108.15-.173.119-.344h-.711a.339.339,0,0,0-.256.132c-.411.437-.825.871-1.236,1.308h0l-1.725,1.407c-.533.321-1.081.607-1.642.877a.848.848,0,0,0-.448.16h0c-.1.021-.2.034-.295.062a9.578,9.578,0,0,1-2.979.339,8.978,8.978,0,0,1-2.237-.4h0a.2.2,0,0,0-.183-.08,2.167,2.167,0,0,0-.52-.259l-.773-.543c-.153-.235-.419-.378-.537-.643a.57.57,0,0,0-.026-.165,8.593,8.593,0,0,1-.657-1.67c-.008-.121.031-.253-.085-.349h0a.42.42,0,0,0,0-.08c-.023-.176.062-.367-.085-.522h0v-.085c0-.241.008-.482,0-.723-.008-.165.062-.346-.08-.488h0v-.341c.114-.1.08-.241.08-.362v-1.285c.161-.215.055-.463.085-.693h0v-.085h0c.145-.153.062-.344.088-.517h0c.142-.155.062-.346.085-.522h0c.121-.093.08-.227.085-.349h0l0-.08h0a.3.3,0,0,0,.085-.189,21.477,21.477,0,0,1,.634-2.218,1.581,1.581,0,0,0,.147-.533h0c.171-.393.333-.791.517-1.18a18.863,18.863,0,0,1,.918-1.9c.235-.375.429-.775.643-1.166h0a.675.675,0,0,1,.08-.088l.008-.08a.364.364,0,0,1,.08-.1h0l.08-.088.008-.081a.377.377,0,0,1,.08-.1h0a.886.886,0,0,1,.08-.088,11.864,11.864,0,0,1,4.506-3.982,2.042,2.042,0,0,0,.241-.085,6.973,6.973,0,0,1,2.456-.6,5.4,5.4,0,0,1,1.662.186c.411.085.775.3,1.179.406h0a.791.791,0,0,0,.52.346h0a6.949,6.949,0,0,0,1.037,1.044c.241.212.305.546.524.775h0c.052.134.109.264.153.4a9.745,9.745,0,0,1,.4,2.11c.021.233-.057.494.14.693h0a.781.781,0,0,1,.085.375.416.416,0,0,0,.308.414.643.643,0,0,0,.892-.471c.063-.4.181-.781.272-1.172Q541.374,600.111,542.1,597.015Zm-19.457,14.513-.023.008.023-.028h0ZM536.639,617.146Zm-19.027,1.825v0h0v0h0v0Zm4.767-19.327h0l-.021.031Zm-.165,17.032v.028l-.013-.015Zm0-6.288v.039l-.01-.015.013-.023Zm.354,7.271-.008-.01,0,0ZM536.675,598.437Zm.6.512h0l-.013-.008h.013Zm3.55.1h0v-.019l.015-.013Zm-10.234-.37h0l.018.021h0Zm10.495-.753v0h0Zm.925-1.5a.828.828,0,0,0-.116-.117.2.2,0,0,1,.12.117ZM522.328,599.7a.08.08,0,0,1-.052.018h0a.152.152,0,0,0,.052-.017Zm.849,18.981h0v-.008h0Zm-.452-7.7v-.013l.018.013Z" transform="translate(-455.118 -587.616)" fill="#2b7832"/>
  <path id="Caminho_4750" data-name="Caminho 4750" d="M537.831,605.654Z" transform="translate(-420.088 -571.801)" fill="#040505"/>
  <path id="Caminho_4751" data-name="Caminho 4751" d="M537.966,605.553Z" transform="translate(-419.877 -571.961)" fill="#2b7832"/>
  <path id="Caminho_4752" data-name="Caminho 4752" d="M550.564,602.331a.322.322,0,0,0-.178-.176c-.176-.15-.207-.424-.448-.517h0a4.2,4.2,0,0,0-.921-1.05.527.527,0,0,0-.207-.212,6.084,6.084,0,0,0-2.789-1.174,8.187,8.187,0,0,0-3.247.217,10.747,10.747,0,0,0-3.4,1.513,4.953,4.953,0,0,0-1.216.861,5.819,5.819,0,0,0-1.223,1.125h0a3.8,3.8,0,0,0-.771.869,4.585,4.585,0,0,0-.771,1.04,4.717,4.717,0,0,0-.7,1.125,6.219,6.219,0,0,0-.636,1.21,8.708,8.708,0,0,0-.737,2.231h0a.46.46,0,0,0-.085.36h0a3.026,3.026,0,0,0-.174,1.04h0a7.082,7.082,0,0,0-.08,1.751,4.351,4.351,0,0,0,.416,1.821,2.836,2.836,0,0,0,.28.685,1.9,1.9,0,0,0,.509.964h0a.3.3,0,0,0,.181.251,4.641,4.641,0,0,0,2.162,1.647.613.613,0,0,0,.522.174c.093.119.225.08.346.08h0a1.988,1.988,0,0,0,.868.171,9.769,9.769,0,0,0,2.146-.1,3.3,3.3,0,0,0,1.231-.333h0a.6.6,0,0,0,.522-.171c.1,0,.2.01.259-.088a.589.589,0,0,0,.346-.088.493.493,0,0,0,.429-.176h0a.172.172,0,0,0,.176-.085h0a.175.175,0,0,0,.174-.085h0a.177.177,0,0,0,.174-.088h0a.167.167,0,0,0,.17-.088h0a.161.161,0,0,0,.171-.088h0a.259.259,0,0,0,.263-.166h0a.171.171,0,0,0,.17-.088h0a.269.269,0,0,0,.261-.171h0a.171.171,0,0,0,.168-.093h0c.031-.026.057-.057.091-.08h0a.186.186,0,0,0,.173-.088h0a.426.426,0,0,1,.1-.085l.08,0a.657.657,0,0,1,.088-.08h0a.453.453,0,0,1,.088-.085.3.3,0,0,1,.093-.085l.08,0a.9.9,0,0,1,.088-.085h0a.712.712,0,0,1,.091-.085.358.358,0,0,1,.093-.085l.161-.091c.028-.031.06-.057.088-.085h0a.9.9,0,0,1,.088-.085h0a.541.541,0,0,1,.088-.085h0a.481.481,0,0,1,.088-.088h0a.479.479,0,0,1,.088-.088h0a.292.292,0,0,1,.093-.085l.161-.093.085-.085h0l.085-.085h0l.085-.08h0l.085-.085.266-.336a.3.3,0,0,1,.085-.093h0a.558.558,0,0,1,.085-.088h0a.573.573,0,0,1,.088-.088h0a.954.954,0,0,1,.088-.091h0a.922.922,0,0,1,.085-.087h0l.085-.085,0-.08a.3.3,0,0,1,.085-.1h0a.684.684,0,0,1,.085-.088h0a.717.717,0,0,1,.085-.091h0l.08-.085.008-.08a.331.331,0,0,1,.085-.1h0a.563.563,0,0,1,.088-.088h0l.085-.088,0-.08a.424.424,0,0,1,.085-.1.882.882,0,0,1,.08-.085l0-.08a.315.315,0,0,1,.088-.1,2.557,2.557,0,0,0,.522-.861l-.018-.01h0l.016.01a4.751,4.751,0,0,0,.781-1.559l-.018,0v0l.015.01a.22.22,0,0,0,.085-.17l-.019-.013h0l.015.015a.606.606,0,0,0,.174-.435l-.018-.013h0l.015.015a.848.848,0,0,0,.186-.38,11.658,11.658,0,0,0,.683-4.258A6,6,0,0,0,550.564,602.331ZM539.647,605.8l.013,0v.015Zm6.144-1.913a.091.091,0,0,0-.044.044,10.7,10.7,0,0,0-.222,1.427.327.327,0,0,0,.093.333l-.006.011-.618,2.508h0a9.958,9.958,0,0,0-.416,1.277c-.264.562-.482,1.146-.693,1.732a.193.193,0,0,0-.08.186,5.032,5.032,0,0,0-.45.954,2.222,2.222,0,0,0-.339.672,2.813,2.813,0,0,0-.429.783l-.931,1.466c-.241.008-.339.223-.473.375a1.975,1.975,0,0,1-2.627.429c-.044-.034-.085-.067-.129-.1a1.22,1.22,0,0,0-.023-.142,2.718,2.718,0,0,1-.113-1.148c.109-.569,0-1.153.153-1.714.161-.184.062-.4.088-.6h0a2.079,2.079,0,0,0,.174-.955,4.9,4.9,0,0,0,.344-1.386h0a.823.823,0,0,0,.173-.6h0a6.731,6.731,0,0,0,.521-1.562h0a1.106,1.106,0,0,0,.259-.69h0a.5.5,0,0,0,.174-.435h0a.5.5,0,0,0,.173-.431h0a.5.5,0,0,0,.173-.431.173.173,0,0,0,.08-.176h0a.5.5,0,0,0,.176-.432l.693-1.469a.123.123,0,0,0,.106,0c.178-.1.233-.282.321-.445a5.9,5.9,0,0,1,1.248-1.637,2.089,2.089,0,0,1,1.706-.562.836.836,0,0,1,.825.921c.01.447,0,.892,0,1.337,0,.166-.023.34.109.467Zm4.685-.7.015.018h-.015Zm-8.056-1.308v.008h0Zm-2.834,5.83-.023-.018.026.013Zm-.2.75v.013h0Zm1.645-4.306-.023.013.023-.026h0Zm.008-1.366-.019-.026h.026Zm-3.116,8.892v-.039h.015Zm0,3.865,0,.026-.021-.01Zm9.352-1.526v.01l-.018,0Zm2.687-12.212h0l0,0h0Zm-7.511,15.821-.023.023Zm.137-.153h.008l0,0Zm-8.2-1.394.011.013h-.013Z" transform="translate(-427.8 -582.154)" fill="#2b7832"/>
  <path id="Caminho_4753" data-name="Caminho 4753" d="M546.6,601.769Z" transform="translate(-406.179 -577.961)" fill="#2b7832"/>
  <path id="Caminho_4754" data-name="Caminho 4754" d="M557.154,601.5c-.145-.241-.259-.517-.546-.643.01-.189-.108-.282-.261-.349h0l-.222-.191a1.171,1.171,0,0,0-.463-.442,3.949,3.949,0,0,0-1.179-.52,7.444,7.444,0,0,0-3-.15,10.894,10.894,0,0,0-4.328,1.63,7.361,7.361,0,0,0-1.8,1.3.119.119,0,0,0-.1.091h0a5.482,5.482,0,0,0-1.133,1.125,5.9,5.9,0,0,0-1.032,1.3,6.461,6.461,0,0,0-.949,1.551h0a1.073,1.073,0,0,0-.269.528,5.808,5.808,0,0,0-.667,1.719h0a2.5,2.5,0,0,0-.259.964h0a5.922,5.922,0,0,0-.264,1.878,2.92,2.92,0,0,0-.008,1.169,3.3,3.3,0,0,0,.259,1.3,2.871,2.871,0,0,0,.422,1.13h0l.038.153h0a.669.669,0,0,0,.026.165,4.658,4.658,0,0,0,1.95,2.188h0c.039.044.067.1.114.127a5.652,5.652,0,0,0,2.764.825,9.978,9.978,0,0,0,2.1-.093,4.277,4.277,0,0,0,1.275-.331h0a7.349,7.349,0,0,0,1.98-.791.29.29,0,0,1,.1-.08.235.235,0,0,0,.075-.01.532.532,0,0,1,.091-.08h0a1.51,1.51,0,0,0,.643-.339,5.388,5.388,0,0,0,1.427-1.143h0a.241.241,0,0,0,.2-.067c.455-.452.941-.884,1.355-1.371.341-.4.341-.53-.039-.9-.062-.059-.13-.114-.194-.168h0c-.01-.044-.03-.08-.08-.085h0a2.357,2.357,0,0,0-.45-.465,10.207,10.207,0,0,1-1.825,1.409c-.592.293-1.21.533-1.823.773h0a.5.5,0,0,0-.346.093h0c-.1.016-.2.021-.295.042a4.352,4.352,0,0,1-2.725-.134,3.845,3.845,0,0,1-1.052-.83h0c.028-.161-.109-.241-.166-.357a.2.2,0,0,0-.08-.178l-.01.008h0l.01-.008a.217.217,0,0,0-.08-.178l-.015.01h0l.021-.008a1.379,1.379,0,0,0-.034-.256,6.266,6.266,0,0,1-.129-2.812,13.553,13.553,0,0,1,.717-3.007,1.184,1.184,0,0,0,.129-.5l.6-1.3a5.433,5.433,0,0,0,.7-1.119l-.013-.008h0l.01.008a.309.309,0,0,0,.176-.259l-.01-.008h0l.01.008.08-.091-.008-.008h0l.008.008a.2.2,0,0,0,.1-.165h0a1.767,1.767,0,0,0,.259-.276,10.778,10.778,0,0,1,1.027-1.12l.085-.085h0c.031-.029.057-.059.091-.085a.374.374,0,0,1,.088-.08h0a.293.293,0,0,0,.261-.174h0l.091-.08-.011-.013h0l.011.015a.2.2,0,0,0,.168-.1l-.01-.008h0l.008.008.091-.08-.01-.013h0l.01.013a.212.212,0,0,0,.174-.091h0a.215.215,0,0,0,.17-.088l-.01-.01h0l.008.01a.2.2,0,0,0,.173-.088l-.013-.008h0l.008.008a.206.206,0,0,0,.174-.08l-.008-.01h0l0,.013c.093-.008.194,0,.259-.091h0c.093,0,.191,0,.259-.085l0-.01h0v.013c.121-.011.251.023.346-.085l0-.01h0v.013h1.205v-.013h0l0,.01c.065.088.161.08.256.085h0l.08.1h0l0,.15,0,.005a.1.1,0,0,0-.072.1h0l-.189.248a2.329,2.329,0,0,0-.97.861,1.113,1.113,0,0,0-.333.693,1.38,1.38,0,0,0,0,1.055.3.3,0,0,0,.1.269l.019.138c-.016.085,0,.153.091.181a.491.491,0,0,0,.055.329,2.235,2.235,0,0,0,2.875,1.239.178.178,0,0,0,.174-.08.186.186,0,0,0,.173-.088h0a.367.367,0,0,1,.1-.08l.08-.008.088-.08a.542.542,0,0,1,.088-.085h0a1.018,1.018,0,0,0,.607-.6h0l.085-.088h-.01l.008,0,.08-.088h0a.192.192,0,0,0,.091-.17h0a.54.54,0,0,1,.08-.091h0a.177.177,0,0,0,.088-.17h0a.184.184,0,0,0,.085-.176h0c.1-.059.088-.161.088-.256.1-.064.085-.166.085-.261v-.08c.134-.126.072-.289.085-.437a3.228,3.228,0,0,0-.391-1.985Zm-10.663,12.163.008,0,0,0v-.01Zm4.23,1.032h0a.286.286,0,0,1-.064.049c.018-.016.041-.031.062-.05Zm-4.74-1.81-.021-.047.015-.013Zm-.442-1.647Zm7.886,3.48ZM548.557,603.528ZM556.88,601.713Zm.091,1.044v.091l-.023-.036Zm-.357,1.228-.008-.01.015-.008Zm.344.928v-.008l.015.01Zm-3.193,10.573h0v0ZM553.93,615.476Zm-3.648-13.763h.013v.01Zm.194.008-.011-.011h0Zm.509-.354h0l.01.01Zm.779-.349h0l.008.011Zm2.089-.176h0v0Zm3.1,4.248h0l.008.008Z" transform="translate(-415.675 -582.153)" fill="#2b7832"/>
  <path id="Caminho_4755" data-name="Caminho 4755" d="M572.7,605.58a.3.3,0,0,1-.233-.305l.028-.08h0c.116-.2-.055-.176-.15-.178-.465-.01-.933-.01-1.4-.013h0l-.018-.329v-.08c.1-.068.08-.165.085-.263h0c.125-.091.08-.225.091-.344.1-.064.08-.166.08-.261l0-.08c.093-.067.08-.166.085-.261.1-.065.08-.166.085-.261.1-.064.085-.161.088-.259.1-.065.08-.166.085-.261a.18.18,0,0,0,.08-.174h0l0-.08a.193.193,0,0,0,.08-.178c.1-.062.085-.161.091-.259a.18.18,0,0,0,.08-.174h0c.1-.062.088-.161.091-.259a.184.184,0,0,0,.085-.173.182.182,0,0,0,.085-.174.19.19,0,0,0,.088-.176h0c.21-.372.411-.75.636-1.117a11.087,11.087,0,0,1,1.624-1.985h0a.722.722,0,0,0,.261-.137,1.811,1.811,0,0,1,.931-.305h0l.008.161h0l-.1.241a1.33,1.33,0,0,0-.329.853,2.057,2.057,0,0,0,.264,1.146h0a.976.976,0,0,0,.01.215,1.958,1.958,0,0,0,2.571,1.146,2.169,2.169,0,0,0,1.432-1.745,2.606,2.606,0,0,0-.923-2.528h0l-.147-.114a2.283,2.283,0,0,0-1.458-.921,7.237,7.237,0,0,0-2.916-.049,5.223,5.223,0,0,0-1.607.452.784.784,0,0,0-.435.174l-.354.168a.186.186,0,0,0-.176.088,7.358,7.358,0,0,0-1.978,1.394,6.376,6.376,0,0,0-1.3,1.373,4.5,4.5,0,0,0-.781,1.04.416.416,0,0,0-.181.271,4.87,4.87,0,0,0-.69,1.1,1.359,1.359,0,0,0-.251.4c-.266.5-.553.98-.851,1.456a2.651,2.651,0,0,1-2.294,1.318c-.241.008-.535-.085-.709.08s-.161.482-.22.732a8.708,8.708,0,0,0-.308,1.424h0c.093.134.284.01.375.147a.986.986,0,0,1,0,.125c-.055.393.015.482.414.492.272.008.543-.006.815,0,.178.008.372-.062.533.08-.08.38-.241.742-.285,1.13h0a8.9,8.9,0,0,0-.419,1.477.528.528,0,0,0-.1.344c-.267.8-.5,1.607-.688,2.425a3.376,3.376,0,0,0-.253.923,12.3,12.3,0,0,0-.52,1.821h0a1.536,1.536,0,0,0-.173.613h0a3.3,3.3,0,0,0-.259.944,5.055,5.055,0,0,0-.346,1.205,1.437,1.437,0,0,0-.176.615h0a1.378,1.378,0,0,0-.17.613h0a17.6,17.6,0,0,0-.541,1.8q-.469,1.648-.851,3.323c-.194.571-.367,1.148-.509,1.735a1.261,1.261,0,0,0-.181.517l-.6,1.125-.8.946h0l-.491.284c-.117-.161.021-.3.039-.447a1.64,1.64,0,0,0-.456-1.484h0a.373.373,0,0,0-.155-.259,1.312,1.312,0,0,0-.925-.766,2.677,2.677,0,0,0-1.49,0,1.629,1.629,0,0,0-1.179.853,1.476,1.476,0,0,0-.253,1.42h0c-.013.215.127.378.191.562a1.6,1.6,0,0,0,.261.675,2.755,2.755,0,0,0,1.944,1.148,7.385,7.385,0,0,0,2.226.021,8.6,8.6,0,0,0,3.616-1.316h0l.023-.021a.38.38,0,0,1,.067-.059h0a.262.262,0,0,0,.253-.178h0a.889.889,0,0,1,.091-.08h0c.254-.049.375-.256.525-.431h0l.085-.085.088-.085.085-.085.088-.088a4.041,4.041,0,0,0,1.117-1.394h0a9.982,9.982,0,0,0,.7-1.114.684.684,0,0,0,.266-.431h0a.248.248,0,0,0,.091-.168,1.283,1.283,0,0,0,.155-.2,20.877,20.877,0,0,0,1.045-2.41h0a.392.392,0,0,0,.075-.1c.683-1.743,1.231-3.535,1.8-5.316a1.4,1.4,0,0,0,.034-.3c.336-.97.574-1.965.861-2.948a.208.208,0,0,0,.042-.1,11.214,11.214,0,0,0,.579-2.05h0a13.394,13.394,0,0,0,.6-2.169l-.026-.018h0l.023.021a1.03,1.03,0,0,0,.155-.4c.145-.507.28-1.019.432-1.526s.155-.507.668-.509h1.375c.562,0,.693-.124.734-.7.129-.456.261-.908.38-1.366C573.025,605.8,572.979,605.681,572.7,605.58Zm-6.622,14.676h0v-.013h.015Zm3.116-12.372.008,0v.01Zm2.676-.613-.021.018v-.022Zm-6.05,12.292h0l0-.023h.023Zm.174-.517h0v-.026l.01,0Zm.951-3.12h0V615.9h.015ZM566.6,617.055ZM561.491,628.3h0l0,.008,0-.008Zm17.4-29.345v-.013h0Zm-5.371-1.481h0l0-.013,0,0ZM567.9,614.533Zm6.568-16.724h0l.023.026Zm-10.627,11.416-.031.023ZM556.3,628.3Zm4.85,1.484Zm2.485-3.209.013-.01h0v.01Zm4.334-12.042h.013v0Z" transform="translate(-397.261 -587.616)" fill="#2b7832"/>
  <path id="Caminho_4756" data-name="Caminho 4756" d="M544.294,600.229Z" transform="translate(-409.843 -580.403)" fill="#2b7832"/>
  <path id="Caminho_4757" data-name="Caminho 4757" d="M543.573,605.879a1.71,1.71,0,0,0,0-1.14h0l-.006-.251h0c0-.125.031-.259-.08-.357h0l0-.161c0-.1.008-.2-.08-.269h0a.393.393,0,0,0,0-.08h0a.208.208,0,0,0-.08-.183h0a.369.369,0,0,0,0-.08h0a.228.228,0,0,0-.08-.183h0a.715.715,0,0,0,0-.075.209.209,0,0,0-.085-.181h0c0-.027,0-.054-.006-.08a.408.408,0,0,1-.08-.1.4.4,0,0,0,0-.08l-.08-.1h0a.682.682,0,0,0,0-.075l-.08-.1h0a.359.359,0,0,0-.008-.076l-.08-.1h0a.4.4,0,0,0-.01-.08l-.08-.085a.276.276,0,0,1-.08-.1.353.353,0,0,0-.008-.075.917.917,0,0,1-.08-.088.349.349,0,0,1-.085-.088h0a.956.956,0,0,0-.445-.509h0c-.256-.227-.424-.546-.737-.714a4.83,4.83,0,0,0-1.787-1.016,6.766,6.766,0,0,0-3.2-.274,10.457,10.457,0,0,0-4.258,1.551,7.056,7.056,0,0,0-1.722,1.218,7.846,7.846,0,0,0-1.567,1.557,1.73,1.73,0,0,0-.422.525,3.825,3.825,0,0,0-.683.954,6.429,6.429,0,0,0-.858,1.474,8.029,8.029,0,0,0-.706,1.549,4.764,4.764,0,0,0-.342,1.187h0a1.552,1.552,0,0,0-.165.719h0a4.317,4.317,0,0,0-.178,1.358,1.524,1.524,0,0,0-.036.264,4.307,4.307,0,0,0,.034,1.249,3.506,3.506,0,0,0,.339,1.473,2.225,2.225,0,0,0,.186.525,1.474,1.474,0,0,0,.287.711,5.26,5.26,0,0,0,2.585,2.384,7.243,7.243,0,0,0,4.031.316,11.065,11.065,0,0,0,3.975-1.5,9.181,9.181,0,0,0,1.864-1.383c.171-.03.264-.165.378-.274a14.71,14.71,0,0,0,3.168-4.326.548.548,0,0,0,.161-.248,12.609,12.609,0,0,0,.874-2.384,4.987,4.987,0,0,0,.261-1.433h0c.142-.161.062-.352.08-.527Zm-2.521,6.392h0v0h0Zm1.324-10.389Zm-12.3,11.687-.01.015v-.015Zm2.846-9.859v0h0Zm-2.857,10.123v.008l0,0Zm8.207-10.645-.176,1.732a1.152,1.152,0,0,0-.08.52h0l-.439,1.988-.773,2.394a14.684,14.684,0,0,0-.6,1.479.2.2,0,0,0-.08.191,10.96,10.96,0,0,0-.7,1.446,2.986,2.986,0,0,0-.431.778,1.281,1.281,0,0,0-.261.46l-.938,1.386c-.241-.034-.352.178-.5.308a1.815,1.815,0,0,1-2.348.2c-.038-.028-.075-.055-.114-.08a6.147,6.147,0,0,1-.161-.98c.055-.843.125-1.687.241-2.523a20.582,20.582,0,0,1,.794-3.345,38.705,38.705,0,0,1,1.5-3.949,14.755,14.755,0,0,1,1.7-3.043,2.657,2.657,0,0,1,1.607-1.089,1.571,1.571,0,0,1,1.171.137,1.392,1.392,0,0,1,.411.431,1.925,1.925,0,0,0,.018.276,5.006,5.006,0,0,1,.047.626c.01.22-.055.46.117.649Zm-7.775,7.364v-.015h.013Zm-3.548,5.618Zm11.682-.936,0,0h0v.01Z" transform="translate(-439.942 -582.151)" fill="#2b7832"/>
  <path id="Caminho_4758" data-name="Caminho 4758" d="M532.878,607.615a.269.269,0,0,0,0,.047h1.06A3.721,3.721,0,0,0,532.878,607.615Z" transform="translate(-427.947 -568.715)" fill="#040505"/>
  <path id="Caminho_4759" data-name="Caminho 4759" d="M532.038,600.261Z" transform="translate(-429.274 -580.352)" fill="#2b7832"/>
  <path id="Caminho_4760" data-name="Caminho 4760" d="M531.971,600.161Z" transform="translate(-429.38 -580.511)" fill="#2b7832"/>
  <path id="Caminho_4761" data-name="Caminho 4761" d="M538.718,608.085a2.141,2.141,0,0,0-.786-.1C538.172,608.191,538.454,608.052,538.718,608.085Z" transform="translate(-419.928 -568.094)" fill="#040505"/>
  <path id="Caminho_4762" data-name="Caminho 4762" d="M526.268,608.246c.1,0,.215.031.285-.08A.33.33,0,0,0,526.268,608.246Z" transform="translate(-438.422 -567.825)" fill="#040505"/>
  <path id="Caminho_4763" data-name="Caminho 4763" d="M531.435,607.607c.055.085.111.088.17,0A.189.189,0,0,0,531.435,607.607Z" transform="translate(-430.23 -568.733)" fill="#040505"/>
  <path id="Caminho_4764" data-name="Caminho 4764" d="M572.831,596.655l.01.008.08-.085c.145-.406.1-.5-.295-.527-.114-.01-.235.021-.321-.088a.1.1,0,0,0,.08-.093c.072-.125.2-.267-.091-.267h-5.315a2.945,2.945,0,0,0-.3.026c-.023.011-.064.015-.07.031a16.081,16.081,0,0,0-.537,1.678.309.309,0,0,0-.089.261h0a13.573,13.573,0,0,0-.607,1.813,2.7,2.7,0,0,0-.259.786.485.485,0,0,0-.1.227q-.287.845-.579,1.687h0c-.1.057-.1.153-.088.251h0c.176.093.4.134.269.442a.292.292,0,0,0,.241.4,7.828,7.828,0,0,0,1.722-.01.192.192,0,0,0,.081-.036,2.519,2.519,0,0,0,.812-.869l-.013-.008h0l.01.01.088-.085-.018-.008h0l.013.008.085-.085-.015,0v0h0l.013.01.085-.088-.015,0,.006,0h0l.01.01.088-.085-.018-.008,0-.006.01.013.088-.088-.019,0,0,0h0l.013.01.085-.088-.019,0,.006,0,.013.011.085-.085-.018-.008,0,0h0l.013.013.085-.087-.019,0,.008-.008h0l.011.013.087-.088-.015-.01h0v0l.013.015a8.1,8.1,0,0,0,.775-.745c.112-.106.251-.2.267-.378l-.013-.006h0l.01.008.088-.085-.019-.008h0l.013.01.085-.088-.015,0v0h0l.013.01.085-.085-.015-.008h0l.01.01.085-.088-.015,0,0,0h0l.01.01.088-.088-.018-.006,0,0h0l.013.01.085-.085-.018-.008,0,0h0l.013.013.085-.088-.018,0,.008,0h0l.01.01.088-.085-.015-.013h0l.013.015a8.452,8.452,0,0,0,.773-.747c.112-.106.251-.2.269-.378l-.013,0h0l.01.008.085-.085-.016-.008h.006l.01.01.088-.088-.018-.006,0,0h0l.013.01.085-.088-.016,0,0,0h0l.01.01.085-.085-.01-.01v0l.008.015.085-.085-.01-.013h0l0,0,0,.018.088-.088-.013-.013h0l.006,0,.008.018.085-.088-.01-.01h0l0,0,0,.015.085-.085-.01-.013h0l0,0,0,.018.088-.088-.013-.013h0l0,0,.008.019.085-.088-.013-.01h0v0l.013.015a3.758,3.758,0,0,0,.577-.548c.142-.147.344-.256.38-.489l-.013,0h0ZM568.161,600.218Zm-1.215,1.29h0l-.006-.019.042-.013Zm3.209-3.374h0l-.01-.018.044-.008Z" transform="translate(-378.042 -587.74)" fill="#2b7832"/>
  <path id="Caminho_4765" data-name="Caminho 4765" d="M566.595,596.582Z" transform="translate(-374.483 -586.189)" fill="#2b7832"/>
  <path id="Caminho_4766" data-name="Caminho 4766" d="M562.95,602.3a.167.167,0,0,0-.08.176c-.106.057-.091.161-.093.256.1-.062.091-.161.093-.256a.184.184,0,0,0,.08-.176.537.537,0,0,0,.178-.431A.483.483,0,0,0,562.95,602.3Z" transform="translate(-380.538 -577.801)" fill="#2b7832"/>
  <path id="Caminho_4767" data-name="Caminho 4767" d="M562.8,602.38c-.1.06-.088.161-.091.256.1-.059.088-.161.091-.256a.179.179,0,0,0,.08-.176A.172.172,0,0,0,562.8,602.38Z" transform="translate(-380.644 -577.271)" fill="#2b7832"/>
  <path id="Caminho_4768" data-name="Caminho 4768" d="M536.806,609.4a1.135,1.135,0,0,0-.69.186,3.832,3.832,0,0,0-1.1,1.013,3.466,3.466,0,0,0-.68,1.293.649.649,0,0,0,.047.494.42.42,0,0,0,.321.217,1.824,1.824,0,0,0,1.262-.577,3.455,3.455,0,0,0,1.244-1.841.788.788,0,0,0-.026-.562A.482.482,0,0,0,536.806,609.4Z" transform="translate(-425.669 -565.866)" fill="#9b1e20"/>
  <path id="Caminho_4769" data-name="Caminho 4769" d="M539.754,609.99a.533.533,0,0,0-.393-.235c-.385-.055-.861.2-1.422.749a3.563,3.563,0,0,0-1.04,1.673.732.732,0,0,0,.034.527.43.43,0,0,0,.321.227q.482.07,1.435-.825a3.534,3.534,0,0,0,1.125-1.639.585.585,0,0,0-.06-.477Z" transform="translate(-421.613 -565.31)" fill="#9b1e20"/>
  <path id="Caminho_4770" data-name="Caminho 4770" d="M526.163,611.857q.857-.2,1.706-.37.407-1.21.812-2.417Q527.424,610.443,526.163,611.857Z" transform="translate(-438.589 -566.384)" fill="#9b1e20"/>
  <path id="Caminho_4771" data-name="Caminho 4771" d="M541.473,610.207a.482.482,0,0,0-.378-.22,1.156,1.156,0,0,0-.69.189,3.841,3.841,0,0,0-1.1,1.008,3.427,3.427,0,0,0-.677,1.285.66.66,0,0,0,.047.5.428.428,0,0,0,.322.223,1.8,1.8,0,0,0,1.262-.574,3.484,3.484,0,0,0,1.244-1.848A.765.765,0,0,0,541.473,610.207Z" transform="translate(-418.863 -564.941)" fill="#9b1e20"/>
  <path id="Caminho_4772" data-name="Caminho 4772" d="M532.209,609.07a2.213,2.213,0,0,0-1.51.959,4.564,4.564,0,0,0-1.024,1.874.723.723,0,0,0,.08.639.624.624,0,0,0,.527.21,2.239,2.239,0,0,0,1.479-.949,4.474,4.474,0,0,0,1.027-1.885.746.746,0,0,0-.07-.631A.6.6,0,0,0,532.209,609.07Z" transform="translate(-433.07 -566.382)" fill="#9b1e20"/>
  <path id="Caminho_4773" data-name="Caminho 4773" d="M548.721,610.155a.417.417,0,0,0-.4-.1,1.682,1.682,0,0,0-.732.359,5.594,5.594,0,0,0-1.148,1.228,4.071,4.071,0,0,0-.7,1.381.522.522,0,0,0,.055.458.357.357,0,0,0,.341.13,2.593,2.593,0,0,0,1.329-.866,4.513,4.513,0,0,0,1.3-2.074C548.817,610.421,548.8,610.249,548.721,610.155Z" transform="translate(-407.589 -564.832)" fill="#9b1e20"/>
  <path id="Caminho_4774" data-name="Caminho 4774" d="M594.112,608.628a.97.97,0,0,0-.276-.571.21.21,0,0,0-.308-.031,6.984,6.984,0,0,1-1.083.615,8.136,8.136,0,0,0-1.034.352h0l-1.474.341a4.849,4.849,0,0,0-1.034.186,7.831,7.831,0,0,0-1.386.176,3.785,3.785,0,0,0-.951.091,4.7,4.7,0,0,0-1.125.091,8.949,8.949,0,0,0-1.556.08,1.421,1.421,0,0,0-.607.021h0c-.161-.008-.316-.021-.473-.018q-3.037.051-6.076-.075c-.817-.031-1.632-.132-2.454-.1a5.888,5.888,0,0,0-1.3-.08,6.627,6.627,0,0,0-1.3-.088.183.183,0,0,0-.171-.015,16.251,16.251,0,0,0-1.908-.161,4.976,4.976,0,0,0-1.125-.1,4.207,4.207,0,0,0-1.032-.1,8.139,8.139,0,0,0-1.564-.161,10.032,10.032,0,0,0-1.642-.178,2.705,2.705,0,0,0-.864-.1,7.446,7.446,0,0,0-1.474-.17,1.6,1.6,0,0,0-.69-.081h0c-.251-.106-.535.055-.781-.093a27.48,27.48,0,0,0-3.121-.339,3.075,3.075,0,0,0-.923-.088,26.837,26.837,0,0,0-3.188-.261,4.771,4.771,0,0,0-1.3-.085.386.386,0,0,0-.142-.031,7.025,7.025,0,0,0-1.259-.059h0a13.985,13.985,0,0,0-2.082-.088,8.066,8.066,0,0,0-1.057-.029v-.018a16.181,16.181,0,0,0-1.908-.028,9.983,9.983,0,0,0-1.645,0,.113.113,0,0,1-.17,0h-.088a21.936,21.936,0,0,0-2.857.085,2.117,2.117,0,0,0-.256-.013q-1.916.08-3.816.289a9.924,9.924,0,0,0-1.655.241,4.24,4.24,0,0,0-1.138.168,6.455,6.455,0,0,0-1.381.263h0a4.344,4.344,0,0,0-1.2.264,1.834,1.834,0,0,0-.693.171h0c-.08.085-.2.021-.279.08a1.407,1.407,0,0,0-.605.173h0q-.524.157-1.039.341a3.835,3.835,0,0,0-1.112.442h0a3.345,3.345,0,0,0-1.032.522c-.7.241-.951.858-1.223,1.461l-.147.191a2.171,2.171,0,0,0-.445.773,8.848,8.848,0,0,0-.853,5.409,11.264,11.264,0,0,0,1.541,4.274c.184.3.267.321.6.191.458-.178.91-.365,1.37-.527A44.212,44.212,0,0,1,532.8,620.7c.926-.2,1.854-.385,2.793-.527.693-.106,1.386-.227,2.082-.321.6-.08,1.2-.145,1.8-.186.444-.031.889-.075,1.331-.117.7-.068,1.4-.127,2.1-.134,2.118-.023,4.236-.07,6.353.059.545.034,1.089.091,1.634.121.344.021.693.026,1.032.08,1.034.161,2.079.233,3.116.4,1.146.189,2.3.357,3.434.592,1.182.246,2.36.507,3.55.705,1.583.267,3.165.543,4.763.737,1.182.142,2.368.261,3.55.391,1.1.119,2.211.137,3.315.168a47.8,47.8,0,0,0,5.87-.14c1.187-.111,2.368-.241,3.545-.435a26.141,26.141,0,0,0,4.8-1.213,2.345,2.345,0,0,0,1.1-.643c.535-.66,1.086-1.3,1.569-2,.049-.073.109-.137.088-.235a8.4,8.4,0,0,0,.548-.848h0a10.93,10.93,0,0,0,1.473-2.6.812.812,0,0,0,.093-.14,19.978,19.978,0,0,0,1.316-4.285A4.077,4.077,0,0,0,594.112,608.628Zm-61.369,7.513q-1.319.214-2.661.512l.1-.176.114-.026a1.547,1.547,0,0,0,.562-.235,1.089,1.089,0,0,0,.289-.325,4.232,4.232,0,0,0,.253-.667l.259-.779q-.964.194-1.947.429l-.889,1a5.128,5.128,0,0,0-.39.482.776.776,0,0,0-.114.246.171.171,0,0,0,.075.207.6.6,0,0,0,.409,0l-.093.176q-1.016.26-2.04.569l.093-.181a2.154,2.154,0,0,0,.719-.414,13.316,13.316,0,0,0,1.06-1.114q2.621-2.983,5.194-5.766l.176-.028q-.838,2.536-1.675,5.081c-.08.241-.129.393-.145.468a.328.328,0,0,0,.01.256.314.314,0,0,0,.212.145,1.575,1.575,0,0,0,.528-.028Zm4.538-2.169a15.384,15.384,0,0,1-1.174,2.037,5.754,5.754,0,0,1-1.419,1.479,2.366,2.366,0,0,1-.964.4.606.606,0,0,1-.465-.091.23.23,0,0,1-.085-.263.489.489,0,0,1,.184-.264.633.633,0,0,1,.331-.147.253.253,0,0,1,.206.044.149.149,0,0,1,.049.161.382.382,0,0,1-.145.2c-.062.047-.1.08-.1.1a.047.047,0,0,0,.021.057.207.207,0,0,0,.129.013,1.316,1.316,0,0,0,.473-.176,2.088,2.088,0,0,0,.5-.406,4.081,4.081,0,0,0,.5-.723q.112-.194.651-1.265.772-1.539,1.544-3.075-.423.035-.845.08l.137-.3a2.407,2.407,0,0,0,.574-.1,1.035,1.035,0,0,0,.339-.219,4.754,4.754,0,0,0,.473-.562,6.425,6.425,0,0,1,.737-.864,3.86,3.86,0,0,1,.884-.633,1.946,1.946,0,0,1,.783-.227.741.741,0,0,1,.545.15.362.362,0,0,1,.134.365.462.462,0,0,1-.171.263.5.5,0,0,1-.308.113.274.274,0,0,1-.223-.072.18.18,0,0,1-.049-.186.449.449,0,0,1,.1-.176.535.535,0,0,0,.093-.142.08.08,0,0,0-.021-.091.264.264,0,0,0-.173-.039,1.132,1.132,0,0,0-.584.2,3.055,3.055,0,0,0-.747.766q-.19.267-.781,1.326c.241-.015.473-.028.711-.041l-.155.3c-.235.013-.471.026-.705.041-.332.646-.658,1.306-.988,1.965Zm3.666,1.231a3.376,3.376,0,0,1-1.409.4,1.2,1.2,0,0,1-.983-.344,1.044,1.044,0,0,1-.181-.983,3.293,3.293,0,0,1,.709-1.326,4.37,4.37,0,0,1,1.326-1.078,3.115,3.115,0,0,1,1.4-.4,1.125,1.125,0,0,1,.944.388,1.109,1.109,0,0,1,.174,1,3.254,3.254,0,0,1-.683,1.31,3.928,3.928,0,0,1-1.294,1.023Zm5.112-2.9a2.022,2.022,0,0,0-.452.321,13.279,13.279,0,0,0-1.109,1.086,4.22,4.22,0,0,0-.491.643c-.212.333-.333.533-.367.6l-.282.554q-.361-.012-.723-.021l1.515-2.723a3.267,3.267,0,0,0,.31-.677.136.136,0,0,0-.042-.134.328.328,0,0,0-.233-.08,3.032,3.032,0,0,0-.372.028l0-.161q.842-.1,1.687-.189-.59,1.059-1.179,2.123a9.249,9.249,0,0,1,1.928-1.776,1.321,1.321,0,0,1,.69-.261.281.281,0,0,1,.222.1.3.3,0,0,1,.032.256,1.293,1.293,0,0,1-.289.546.439.439,0,0,1-.37.178.234.234,0,0,1-.171-.08.272.272,0,0,1-.047-.21.153.153,0,0,0-.018-.114.108.108,0,0,0-.08-.039.334.334,0,0,0-.165.026Zm4.083.951a.3.3,0,0,1-.22-.114.264.264,0,0,1-.044-.23.378.378,0,0,1,.072-.153.826.826,0,0,1,.184-.155.893.893,0,0,0,.166-.129.261.261,0,0,0,.044-.091.166.166,0,0,0-.051-.165.629.629,0,0,0-.359-.127,1.734,1.734,0,0,0-.974.22,3.122,3.122,0,0,0-.964.8,3.273,3.273,0,0,0-.7,1.334.867.867,0,0,0,.106.737.893.893,0,0,0,.675.326,1.794,1.794,0,0,0,.75-.1,3.732,3.732,0,0,0,.931-.541l.108.129a4.227,4.227,0,0,1-1.166.713,2.465,2.465,0,0,1-.812.17l-.1.112a.617.617,0,0,1,.37.266.571.571,0,0,1,.051.432.767.767,0,0,1-.38.482,1.476,1.476,0,0,1-.895.207,2.741,2.741,0,0,1-.636-.15l.091-.14a1.7,1.7,0,0,0,.391.08.812.812,0,0,0,.5-.1.5.5,0,0,0,.241-.31.271.271,0,0,0-.042-.253.581.581,0,0,0-.367-.14c.161-.165.321-.333.482-.5a1.255,1.255,0,0,1-.944-.435,1.134,1.134,0,0,1-.15-.98,3.023,3.023,0,0,1,.711-1.3,3.926,3.926,0,0,1,1.322-.978,2.786,2.786,0,0,1,1.414-.287,1.07,1.07,0,0,1,.711.282.55.55,0,0,1,.137.52.794.794,0,0,1-.287.45.466.466,0,0,1-.362.118Zm3.581,2.161-.194.388a.793.793,0,0,0-.039.1.179.179,0,0,0,.018.132.113.113,0,0,0,.08.051.33.33,0,0,0,.174-.051,3.144,3.144,0,0,0,.6-.465l.132.127a3.305,3.305,0,0,1-.82.613,1.193,1.193,0,0,1-.68.161.381.381,0,0,1-.274-.134.339.339,0,0,1-.036-.287,2.48,2.48,0,0,1,.235-.562l.174-.321a5.212,5.212,0,0,1-1.359.917,1.512,1.512,0,0,1-.768.132.675.675,0,0,1-.52-.333.984.984,0,0,1-.078-.762,3.471,3.471,0,0,1,.789-1.435,4.386,4.386,0,0,1,1.414-1.117,1.952,1.952,0,0,1,1.089-.248.713.713,0,0,1,.437.2.8.8,0,0,1,.174.507l.284-.482c.253,0,.5-.008.758-.01q-.8,1.442-1.6,2.883Zm6.547,1.776a1.141,1.141,0,0,1-.7.183.309.309,0,0,1-.233-.142.4.4,0,0,1-.031-.316,2.565,2.565,0,0,1,.295-.656l.308-.522a6.072,6.072,0,0,1-1.536,1.2,1.387,1.387,0,0,1-.783.161.715.715,0,0,1-.541-.385,1.15,1.15,0,0,1-.07-.848,3.122,3.122,0,0,1,.766-1.347,4.173,4.173,0,0,1,1.437-1.052,2.109,2.109,0,0,1,1.13-.23.858.858,0,0,1,.406.161,1.1,1.1,0,0,1,.279.373l.809-1.477c.06-.106.109-.189.145-.251a.989.989,0,0,0,.121-.284.18.18,0,0,0-.031-.161.38.38,0,0,0-.233-.111,3.178,3.178,0,0,0-.357-.018l.039-.161c.548-.01,1.093-.021,1.644-.036q-1.4,2.505-2.8,5.005a2.8,2.8,0,0,0-.259.541.124.124,0,0,0,.091.142.3.3,0,0,0,.161-.039,4.427,4.427,0,0,0,.649-.458l.134.114a4.758,4.758,0,0,1-.838.613Zm4.338.344a.114.114,0,0,0,.08.051.345.345,0,0,0,.174-.055,3.1,3.1,0,0,0,.6-.476l.134.124a3.335,3.335,0,0,1-.822.626,1.215,1.215,0,0,1-.68.168.372.372,0,0,1-.276-.132.339.339,0,0,1-.036-.287,2.467,2.467,0,0,1,.236-.562l.174-.321a5.147,5.147,0,0,1-1.36.918,1.491,1.491,0,0,1-.766.124.689.689,0,0,1-.52-.346,1.012,1.012,0,0,1-.072-.77,3.443,3.443,0,0,1,.786-1.425,4.432,4.432,0,0,1,1.412-1.1,1.972,1.972,0,0,1,1.089-.246.7.7,0,0,1,.437.2.774.774,0,0,1,.176.5l.284-.482.76-.023q-.8,1.451-1.6,2.9l-.2.391a.4.4,0,0,0-.036.1.172.172,0,0,0,.017.131Zm18.211-5.184a1.292,1.292,0,0,1,.693-.352,1.384,1.384,0,0,1,.8.174,1.255,1.255,0,0,0,.643.189.579.579,0,0,0,.31-.168,1.4,1.4,0,0,0,.31-.533l.15-.029a1.78,1.78,0,0,1-.465.91,1.357,1.357,0,0,1-.719.418,1.257,1.257,0,0,1-.771-.134,5.114,5.114,0,0,0-.507-.227.419.419,0,0,0-.184-.01.577.577,0,0,0-.321.155,1.529,1.529,0,0,0-.293.509l-.161.021a1.986,1.986,0,0,1,.508-.925Zm-2.973.755a.605.605,0,0,1,.214-.326.659.659,0,0,1,.375-.155.367.367,0,0,1,.313.1.305.305,0,0,1,.07.3.6.6,0,0,1-.218.326.663.663,0,0,1-.372.161.363.363,0,0,1-.313-.1.307.307,0,0,1-.076-.3Zm-8.47,5.334a1.045,1.045,0,0,1-.537.145.342.342,0,0,1-.264-.114.3.3,0,0,1-.044-.259,1.968,1.968,0,0,1,.155-.4c.1-.215.352-.68.758-1.4a10.74,10.74,0,0,1-1.73,1.624,1.817,1.817,0,0,1-1.1.4.441.441,0,0,1-.331-.171.43.43,0,0,1-.064-.372,4.393,4.393,0,0,1,.442-1l.723-1.334a3.639,3.639,0,0,0,.292-.6.117.117,0,0,0-.018-.093.119.119,0,0,0-.08-.044.388.388,0,0,0-.21.049,4.184,4.184,0,0,0-.563.455l-.121-.108a3.246,3.246,0,0,1,.917-.7,1.219,1.219,0,0,1,.595-.15.349.349,0,0,1,.259.124.321.321,0,0,1,.049.276,4.042,4.042,0,0,1-.385.84l-.773,1.4a4.081,4.081,0,0,0-.354.723.151.151,0,0,0,.026.14.2.2,0,0,0,.145.065.965.965,0,0,0,.437-.119,3.786,3.786,0,0,0,.815-.6,10.616,10.616,0,0,0,.9-.906,8.156,8.156,0,0,0,.9-1.371l.183-.333c.241.01.475.021.716.028q-.717,1.307-1.435,2.606a4.569,4.569,0,0,0-.357.734.16.16,0,0,0,0,.119.08.08,0,0,0,.072.041.372.372,0,0,0,.191-.059,6.064,6.064,0,0,0,.616-.528l.119.106a3.716,3.716,0,0,1-.956.785Zm4.525-.289a.081.081,0,0,0,.07.042.358.358,0,0,0,.153-.062,4.344,4.344,0,0,0,.688-.584l.129.08a4.915,4.915,0,0,1-1.04.868,1.194,1.194,0,0,1-.535.183.322.322,0,0,1-.259-.1.3.3,0,0,1-.044-.269,3.688,3.688,0,0,1,.333-.732c.321-.594.643-1.192.964-1.787a2.47,2.47,0,0,0,.227-.522.15.15,0,0,0-.031-.142.172.172,0,0,0-.14-.051.852.852,0,0,0-.344.111,4.022,4.022,0,0,0-.884.664,13.247,13.247,0,0,0-1.076,1.166,5.422,5.422,0,0,0-.562.817l-.409.723c-.235,0-.473-.01-.708-.018l1.5-2.749a3.966,3.966,0,0,0,.293-.6.179.179,0,0,0-.041-.17.237.237,0,0,0-.189-.081,1.431,1.431,0,0,0-.2.013l-.186.023.01-.161c.562-.08,1.133-.161,1.7-.253q-.55,1.008-1.1,2.008a14.447,14.447,0,0,1,1.74-1.626,1.949,1.949,0,0,1,1.006-.406.437.437,0,0,1,.362.134.4.4,0,0,1,.067.375,3.114,3.114,0,0,1-.305.713q-.508.942-1.016,1.88a2.869,2.869,0,0,0-.194.4.125.125,0,0,0,.01.108Zm2.343-.1a.118.118,0,0,0,.1.036.433.433,0,0,0,.191-.08,4.314,4.314,0,0,0,.688-.607l.145.085a4.913,4.913,0,0,1-.954.835,1.42,1.42,0,0,1-.682.274.37.37,0,0,1-.3-.091.266.266,0,0,1-.062-.267,2.767,2.767,0,0,1,.248-.551c.362-.669.723-1.344,1.089-2.016a3.681,3.681,0,0,0,.295-.623.149.149,0,0,0-.036-.153.247.247,0,0,0-.191-.049,4.2,4.2,0,0,0-.45.072l.039-.17c.574-.114,1.15-.233,1.727-.365q-.841,1.594-1.681,3.175a3.073,3.073,0,0,0-.186.382.128.128,0,0,0,.014.112Zm5.1-.326a1.761,1.761,0,0,1-.723.349.353.353,0,0,1-.3-.046.258.258,0,0,1-.041-.261,2.793,2.793,0,0,1,.241-.587l.181-.346a7.7,7.7,0,0,1-1.43,1.223,2.008,2.008,0,0,1-.809.305.586.586,0,0,1-.554-.2.819.819,0,0,1-.085-.713,4.085,4.085,0,0,1,.812-1.53,6.448,6.448,0,0,1,1.477-1.386,2.922,2.922,0,0,1,1.153-.52.681.681,0,0,1,.468.064.523.523,0,0,1,.193.419l.295-.535c.272-.08.543-.161.815-.246q-.834,1.59-1.665,3.173l-.2.419a.528.528,0,0,0-.036.1.128.128,0,0,0,.021.117.1.1,0,0,0,.091.023.524.524,0,0,0,.183-.1,4.511,4.511,0,0,0,.639-.62l.145.075a5.188,5.188,0,0,1-.875.827Zm6.208-3.8a4.154,4.154,0,0,1-.711,1.435,5.817,5.817,0,0,1-1.366,1.342,4.319,4.319,0,0,1-1.482.723,1.125,1.125,0,0,1-1.029-.142.871.871,0,0,1-.2-.915,3.7,3.7,0,0,1,.723-1.391,5.957,5.957,0,0,1,1.373-1.285,4.85,4.85,0,0,1,1.469-.723,1.162,1.162,0,0,1,1.016.08.773.773,0,0,1,.2.874Z" transform="translate(-442.487 -569.011)" fill="#9b1e20"/>
  <path id="Caminho_4775" data-name="Caminho 4775" d="M550.257,609.684a3.278,3.278,0,0,0-1.583,1.265,5.275,5.275,0,0,0-1.05,1.991.591.591,0,0,0,.091.595.572.572,0,0,0,.554.091,3.127,3.127,0,0,0,1.551-1.259,5.518,5.518,0,0,0,1.065-2.053c.065-.276.036-.465-.08-.569A.588.588,0,0,0,550.257,609.684Z" transform="translate(-404.605 -565.464)" fill="#9b1e20"/>
  <path id="Caminho_4776" data-name="Caminho 4776" d="M501.308,615.187l5.376,1.743-.683-.946,1.019-5.8h6.026l-1.662-7.02-3.116-7.371-11.927,14.4h7.731a4.5,4.5,0,0,0-.972,3.064,1.715,1.715,0,0,1-1.791,1.929Z" transform="translate(-485.886 -587.441)" fill="#307e34"/>
  <path id="Caminho_4777" data-name="Caminho 4777" d="M504.8,620.678a24.8,24.8,0,0,1-1.694-2.059c-1.432-1.91.373-5.543.373-5.543-.267-2.309,8.168-10.284,8.168-10.284a73.243,73.243,0,0,0-8.228,6.541c-3.39,3.268-3.672,6.909-3.491,8.1a3.71,3.71,0,0,0,2.063,2.94c1.859.742,2.759.5,3.232,0" transform="translate(-480.249 -576.346)" fill="#870c17"/>
  <path id="Caminho_4778" data-name="Caminho 4778" d="M502.2,610.1a4.488,4.488,0,0,1-.409-.4" transform="translate(-477.237 -565.374)" fill="#870c17"/>
  <path id="Caminho_4779" data-name="Caminho 4779" d="M501.962,621.117a3.339,3.339,0,0,1,.758-2.33,31.665,31.665,0,0,1,6.309-6.844c3.832-2.922,7.976-5.471,11.178-9.626.308,1.6-.563,2.384-1.086,3.263-2.621,4.429-6.9,7.046-10.94,9.921a24.76,24.76,0,0,0-5.061,4.142,5.4,5.4,0,0,0-1.174,2.175" transform="translate(-476.986 -577.09)" fill="#870c17"/>
  <path id="Caminho_4780" data-name="Caminho 4780" d="M512.772,595.309l-12.305,15.635h6.026s1.366.021.734,3.077-.768,3.511-1.155,3.856,4.866-3.23,4.866-3.23-.233-4.59,1.275-4.5,6.4-.01,6.4-.01Z" transform="translate(-479.333 -588.204)" fill="#ffc100"/>
</svg>
