<svg id="Fortlev_Cor" data-name="Fortlev Cor" xmlns="http://www.w3.org/2000/svg" width="168.523" height="28.419" viewBox="0 0 168.523 28.419">
  <path id="Caminho_4731" data-name="Caminho 4731" d="M212.6,663.754h19.411l-1.291,4.811H218.465l-1.549,5.856h11.172c-.429,1.863-.8,3.472-1.186,5.168h-11.25c-.544,1.952-1.065,3.84-1.664,6H226.22c-.475,1.8-.87,3.306-1.285,4.892h-19.5c2.4-8.948,4.767-17.789,7.165-26.725" transform="translate(-90.202 -663.024)" fill="#092447"/>
  <path id="Caminho_4732" data-name="Caminho 4732" d="M163,663.769v6.78h-8.165v3.342h7.187v6.889H154.7v9.635h-9.437V663.769Z" transform="translate(-145.266 -663.01)" fill="#092447"/>
  <path id="Caminho_4733" data-name="Caminho 4733" d="M184.667,672.166v-8.39h20.292v8.314h-5.39v18.325h-9.49V672.166Z" transform="translate(-109.204 -663.004)" fill="#092447"/>
  <path id="Caminho_4734" data-name="Caminho 4734" d="M231.6,690.48h-8.425c-1-8.927-1.99-17.762-2.994-26.716h6.466q1.095,9.722,2.2,19.486l.387.026,9.272-19.53h6.717c-4.591,9.011-9.1,17.866-13.617,26.735" transform="translate(-76.697 -663.031)" fill="#092447"/>
  <path id="Caminho_4735" data-name="Caminho 4735" d="M208.552,663.76c-1.99,7.3-3.941,14.44-5.96,21.838h11.361c-.471,1.768-.875,3.283-1.3,4.872H194.306c2.4-8.948,4.754-17.78,7.142-26.71Z" transform="translate(-100.382 -663.019)" fill="#092447"/>
  <path id="Caminho_4736" data-name="Caminho 4736" d="M169.6,663.373a14.226,14.226,0,1,0,.054,0H169.6m.015,19.216c-2.617.023-4.486-2.084-4.48-5.057s1.85-5.062,4.486-5.037c2.561.025,4.5,2.262,4.449,5.127-.054,2.849-1.934,4.943-4.455,4.964" transform="translate(-135.855 -663.373)" fill="#092447"/>
  <path id="Caminho_4737" data-name="Caminho 4737" d="M192.688,685.135c-1.092-1.753-2.181-3.5-3.332-5.357a6.906,6.906,0,0,0,4.915-5.031,8.216,8.216,0,0,0-7.242-10.639c-4.924-.478-9.915-.266-14.876-.345-.086,0-.172.122-.266.2v26.484h9.005v-7.876c.126-.021.255-.037.379-.052,1.375,2.672,2.758,5.341,4.108,7.956h10.647c-1.2-1.917-2.272-3.625-3.34-5.334m-7.64-10.568c-.743,1.59-2.434,1.337-4.11,1.291V670.54c1.521-.15,3.114-.437,3.951.965a3.762,3.762,0,0,1,.159,3.061" transform="translate(-120.901 -663.017)" fill="#092447"/>
</svg>
