<svg id="Logo_Vix" data-name="Logo Vix" xmlns="http://www.w3.org/2000/svg" width="75.903" height="75.901" viewBox="0 0 75.903 75.901">
  <path id="Caminho_4728" data-name="Caminho 4728" d="M355.373,644.9h-31.06v29.195h-3.435V644.9h-31.4a5,5,0,0,0-5,5V715.8a5,5,0,0,0,5,5h65.9a5,5,0,0,0,5-5V649.9a5,5,0,0,0-5-5Zm-31.057,70.407h-3.435V691.946h3.435Z" transform="translate(-284.473 -644.9)" fill="#b3c81f"/>
  <path id="Caminho_4729" data-name="Caminho 4729" d="M318.909,675.575c-1.453-1.911-2.443-4.076-4.039-5.973l-3.852,5.925h-4.435l6.178-9.3-5.665-8.442h4.566l3.275,5.276c.52.014.6-.369.771-.638.821-1.281,1.66-2.55,2.44-3.859a1.488,1.488,0,0,1,1.519-.879c1.055.066,2.11.018,3.375.018l-5.695,8.55L323.5,675.5C321.879,675.653,320.392,675.548,318.909,675.575Z" transform="translate(-256.162 -628.528)" fill="#39411a"/>
  <path id="Caminho_4730" data-name="Caminho 4730" d="M288.947,657.752h3.88c1.25,4.2,2,8.477,3.166,12.685,1.461-4.133,2.258-8.415,3.464-12.657a29.5,29.5,0,0,1,3.987-.05c-.591,2.271-1.133,4.388-1.69,6.5-.733,2.775-1.439,5.556-2.221,8.315-.689,2.42-1.868,3.152-3.838,3.028-1.733-.11-2.686-.992-3.223-3.181-.711-2.908-1.394-5.825-2.091-8.737C289.907,661.7,289.433,659.754,288.947,657.752Z" transform="translate(-278.744 -628.523)" fill="#39411a"/>
  <rect id="Retângulo_1216" data-name="Retângulo 1216" width="3.435" height="17.859" transform="translate(36.405 29.191)" fill="#39411a"/>
</svg>
