<svg id="Logo_Sankhya" data-name="Logo Sankhya" xmlns="http://www.w3.org/2000/svg" width="202.892" height="43.516" viewBox="0 0 202.892 43.516">
  <path id="Caminho_4645" data-name="Caminho 4645" d="M82.688,25.7c0,3.759-3.565,5.173-9.486,5.173a64,64,0,0,1-7.916-.471.4.4,0,0,1-.342-.4V28.659A1.983,1.983,0,0,1,67.1,26.682c2.244.2,4.2.3,6.05.3,2.7,0,4.923-.259,4.923-2V23.856c0-1.192-.517-1.284-3.122-1.93l-5.6-1.349c-2.669-.647-4.471-1.8-4.471-5.015V13.474c0-3.8,3.926-5.172,9.615-5.172a41.788,41.788,0,0,1,7.639.619.405.405,0,0,1,.333.4v1.2a1.984,1.984,0,0,1-2.2,1.967,51.838,51.838,0,0,0-5.653-.286c-2.956,0-5.117.222-5.117,1.958v.868c0,1.256.776,1.543,3.861,2.318l4.886,1.192c2.8.7,4.434,1.579,4.434,4.822V25.7Z" transform="translate(-5.008 0.366)" fill="#2e3c50"/>
  <path id="Caminho_4646" data-name="Caminho 4646" d="M124.054,20.752c0-2.6-1.829-2.956-4.406-2.956-2.956,0-3.99.48-4.858,2.281v9.015a1.983,1.983,0,0,1-1.986,1.986h-2.217a.394.394,0,0,1-.4-.4V16.18a1.989,1.989,0,0,1,1.986-1.986h1.755a.4.4,0,0,1,.4.351l.249,2.06h.194c.776-2.023,3.316-2.734,6.817-2.734,4.055,0,7.075,1.219,7.075,4.757V29.093a1.983,1.983,0,0,1-1.986,1.986h-2.217a.394.394,0,0,1-.4-.4V20.752Z" transform="translate(-8.467 -0.059)" fill="#2e3c50"/>
  <path id="Caminho_4647" data-name="Caminho 4647" d="M141.658,23.073l-1,.083a1.975,1.975,0,0,0-1.81,1.977V28.6a1.989,1.989,0,0,1-1.986,1.986h-2.217a.394.394,0,0,1-.4-.4V9.348a1.981,1.981,0,0,1,1.986-1.977h2.217a.394.394,0,0,1,.4.4V18.963a.4.4,0,0,0,.434.4l2.956-.277a.969.969,0,0,0,.628-.3l4.24-4.452a2.016,2.016,0,0,1,1.432-.619h3.353a.393.393,0,0,1,.286.665L145.953,21l6.78,8.941a.4.4,0,0,1-.314.637h-3.344a1.983,1.983,0,0,1-1.561-.757l-4.988-6.373A1,1,0,0,0,141.658,23.073Z" transform="translate(-10.304 0.437)" fill="#2e3c50"/>
  <path id="Caminho_4648" data-name="Caminho 4648" d="M170.724,20.255c0-2.6-1.773-2.956-4.406-2.956-2.956,0-3.99.48-4.858,2.281V28.6a1.983,1.983,0,0,1-1.986,1.986h-2.217a.394.394,0,0,1-.4-.4V9.347a1.983,1.983,0,0,1,1.986-1.986h2.217a.394.394,0,0,1,.4.4v5.616l-.222,2.734h.194c.776-2.023,3.316-2.734,6.817-2.734,4.055,0,7.075,1.219,7.075,4.757V28.6a1.983,1.983,0,0,1-1.986,1.986h-2.217a.394.394,0,0,1-.4-.4Z" transform="translate(-12.03 0.438)" fill="#2e3c50"/>
  <path id="Caminho_4649" data-name="Caminho 4649" d="M185.563,32,178.5,14.776a.394.394,0,0,1,.369-.545h2.854a2,2,0,0,1,1.847,1.256l4.507,11.444,4.35-11.426a1.983,1.983,0,0,1,1.857-1.275h2.789a.394.394,0,0,1,.369.536L189.11,36.528a1.98,1.98,0,0,1-1.847,1.275H184.5a.394.394,0,0,1-.369-.536l1.45-3.8A2.014,2.014,0,0,0,185.563,32Z" transform="translate(-13.679 -0.086)" fill="#2e3c50"/>
  <path id="Caminho_4650" data-name="Caminho 4650" d="M213.8,28.6h-.194c-.711,1.93-3.251,2.7-6.687,2.7-3.953,0-6.974-1.284-6.974-4.794,0-4.36,2.346-5.3,7-5.431a47.379,47.379,0,0,1,6.669.314V20.171c0-1.607-1.385-2.54-5.921-2.54a48.81,48.81,0,0,0-5.921.4.4.4,0,0,1-.453-.388V16.181a1.985,1.985,0,0,1,1.746-1.967,49.2,49.2,0,0,1,6.041-.333c5.985,0,9.1,1.385,9.1,5.3v9.911a1.983,1.983,0,0,1-1.986,1.986h-1.783a.4.4,0,0,1-.4-.351Zm-.194-4.277a39.274,39.274,0,0,0-4.5-.351c-2.891,0-4.535.259-4.535,2,0,1.607,1.866,1.829,4.12,1.829,2.577,0,3.953-.517,4.923-1.8V24.328Z" transform="translate(-15.319 -0.06)" fill="#2e3c50"/>
  <path id="Caminho_4651" data-name="Caminho 4651" d="M100.355,28.6h-.194c-.711,1.93-3.251,2.7-6.687,2.7-3.953,0-6.974-1.284-6.974-4.794,0-4.36,2.346-5.3,7-5.431a47.379,47.379,0,0,1,6.669.314V20.171c0-1.607-1.386-2.54-5.921-2.54a48.809,48.809,0,0,0-5.921.4.4.4,0,0,1-.453-.388V16.181a1.985,1.985,0,0,1,1.746-1.967,49.2,49.2,0,0,1,6.041-.333c5.985,0,9.1,1.385,9.1,5.3v9.911a1.983,1.983,0,0,1-1.986,1.986h-1.783a.4.4,0,0,1-.4-.351Zm-.194-4.277a39.274,39.274,0,0,0-4.5-.351c-2.891,0-4.535.259-4.535,2,0,1.607,1.866,1.829,4.12,1.829,2.577,0,3.953-.517,4.923-1.8V24.328Z" transform="translate(-6.659 -0.06)" fill="#2e3c50"/>
  <path id="Caminho_4652" data-name="Caminho 4652" d="M7.73,33.873l8.053-8.054a4.034,4.034,0,0,0,1.182-2.854V16.628a11.148,11.148,0,0,1,3.251-7.86l3.214-3.224a.406.406,0,0,0-.36-.684c-.979.175-1.958.4-2.946.656C6.807,9.082-1.985,19.418.472,28.589a12.387,12.387,0,0,0,2.937,5.246A3,3,0,0,0,7.73,33.873Z" transform="translate(-0.06 -0.37)" fill="#66cb66"/>
  <path id="Caminho_4653" data-name="Caminho 4653" d="M43.549,10.767,37.2,17.112a4.034,4.034,0,0,0-1.182,2.854V26.3a11.148,11.148,0,0,1-3.251,7.86L27.85,39.1a.406.406,0,0,0,.36.684c.979-.175,1.958-.4,2.946-.656,13.316-3.565,22.108-13.9,19.651-23.073A12.468,12.468,0,0,0,47.88,10.8,3.014,3.014,0,0,0,43.549,10.767Z" transform="translate(-2.172 -0.753)" fill="#66cb66"/>
  <path id="Caminho_4654" data-name="Caminho 4654" d="M35.144,1.174,24.358,11.963a6.062,6.062,0,0,0-1.773,4.286V25.1A3.043,3.043,0,0,1,21.7,27.24L7.514,41.427a.4.4,0,0,0,.12.656,28.165,28.165,0,0,0,3.481,1.265,4.087,4.087,0,0,0,4.036-1.007l12.494-12.5a6.062,6.062,0,0,0,1.773-4.286V16.71a3.042,3.042,0,0,1,.887-2.143L42.781,2.089a.4.4,0,0,0-.12-.656A26.718,26.718,0,0,0,39.18.177,4.042,4.042,0,0,0,35.144,1.174Z" transform="translate(-0.62 0)" fill="#66cb66"/>
</svg>
