<svg xmlns="http://www.w3.org/2000/svg" width="192.801" height="49.747" viewBox="0 0 192.801 49.747">
  <g id="Logo_Gab" data-name="Logo Gab" transform="translate(-9.273 -34.61)">
    <g id="Group_764" transform="translate(0)">
      <g id="Grupo_3975" data-name="Grupo 3975" transform="translate(0 0)">
        <g id="Grupo_4623" data-name="Grupo 4623">
          <path id="Path_333_1_" d="M1748.824,135.329l-9.141-21.822h-3.155l-9.083,21.822h4.452l2.329-5.633h7.815l2.329,5.633Zm-8.228-9.436h-5.012l2.476-6.693h.059Z" transform="translate(-1718.173 -51.37)" fill="#002361"/>
          <g id="Group_762">
            <g id="Grupo_3974" data-name="Grupo 3974">
              <g id="Grupo_4624" data-name="Grupo 4624">
                <path id="Path_334_1_" d="M1879.388,135.492v-.426h-12.819v3.4h8.225a6.441,6.441,0,0,1-5.811,3.609,6.649,6.649,0,0,1-6.37-4.14,6.982,6.982,0,0,1-.558-2.654,6.756,6.756,0,0,1,6.741-6.847,6.294,6.294,0,0,1,5.254,2.76h4.353c-1.354-3.769-5.653-6.158-9.527-6.158a10.222,10.222,0,1,0,.106,20.435c5.493,0,10.4-4.378,10.4-9.977" transform="translate(-1828.858 -61.114)" fill="#002361"/>
                <path id="Path_335_1_" d="M2021.215,140.073V127.6h-3.635v12.473c0,2.283-.744,4.167-3.4,4.167s-3.4-1.884-3.4-4.167V127.6h-3.635v12.473a8.013,8.013,0,0,0,1.221,4.75,7.354,7.354,0,0,0,5.839,2.813,7.205,7.205,0,0,0,5.865-2.919,8.136,8.136,0,0,0,1.141-4.645" transform="translate(-1954.55 -63.28)" fill="#002361"/>
                <rect id="Rectangle_309" width="3.636" height="19.639" transform="translate(70.037 64.319)" fill="#002361"/>
                <path id="Path_336_1_" d="M2175.792,147.236l-8.227-19.639h-2.839l-8.174,19.639h4.008l2.1-5.069h7.033l2.1,5.069Zm-7.4-8.492h-4.511l2.23-6.024h.052Z" transform="translate(-2080.81 -63.278)" fill="#002361"/>
                <path id="Path_337_1_" d="M2309.636,128.842a5.245,5.245,0,0,0-3.745-5.426,4.455,4.455,0,0,0,2.447-4.158,5.667,5.667,0,0,0-1.857-4.07c-1.769-1.593-4.07-1.681-6.311-1.681h-4.718v21.822h5.839a10.318,10.318,0,0,0,5.632-1.3,6.149,6.149,0,0,0,2.713-5.189m-5.338-9.2c0,1.917-1.71,2.359-3.273,2.359h-1.533v-4.718h1.682c1.562,0,3.125.531,3.125,2.359m1.3,9.053c0,2.359-2.152,2.86-4.07,2.86h-2.035v-5.78h2.124c1.887,0,3.981.708,3.981,2.92" transform="translate(-2198.194 -51.37)" fill="#002361"/>
                <path id="Path_338_1_" d="M2410.194,147.235l-5.335-7.245a6.348,6.348,0,0,0,3.265-1.619,6.828,6.828,0,0,0,1.884-4.7,6.064,6.064,0,0,0-2.31-4.75,7.243,7.243,0,0,0-4.776-1.327H2396.9v19.639h3.637v-7.51h.052l5.2,7.51Zm-3.823-13.269c0,2.07-1.566,3.026-3.5,3.026h-2.335v-6h2.336c1.856,0,3.5.955,3.5,2.973" transform="translate(-2283.924 -63.277)" fill="#002361"/>
                <path id="Path_339_1_" d="M2505.607,147.236,2497.38,127.6h-2.839l-8.174,19.639h4.007l2.1-5.069h7.033l2.1,5.069Zm-7.4-8.492h-4.511l2.229-6.024h.053Z" transform="translate(-2359.535 -63.278)" fill="#002361"/>
                <path id="Path_340_1_" d="M2632.25,147.236V127.6h-3.637v14.278h-.053l-8.12-14.278h-4.14v19.639h3.636V132.958h.052l8.2,14.278Z" transform="translate(-2469.342 -63.278)" fill="#002361"/>
                <path id="Path_341_1_" d="M2748.685,131.026a10.063,10.063,0,0,0-9.263-6,10.229,10.229,0,0,0-10.165,10.138,10.347,10.347,0,0,0,10.246,10.3,9.976,9.976,0,0,0,9.076-5.864h-4.22a6.342,6.342,0,0,1-4.937,2.468,6.838,6.838,0,0,1-6.528-6.847c0-3.477,2.787-6.794,6.4-6.794a6.69,6.69,0,0,1,5.255,2.6Z" transform="translate(-2564.801 -61.107)" fill="#002361"/>
                <path id="Path_342_1_" d="M2867.15,147.236l-8.227-19.639h-2.84l-8.174,19.639h4.007l2.1-5.069h7.033l2.1,5.069Zm-7.4-8.492h-4.513l2.229-6.024h.053Z" transform="translate(-2665.076 -63.278)" fill="#002361"/>
                <path id="Path_343_1_" d="M1831.687,113.507l-4.537,4.537h-2.376l2.779-4.537Z" transform="translate(-1800.424 -51.37)" fill="#002361"/>
                <path id="Path_344_1_" d="M1871.807,12.232v-.317h-9.578v2.538h6.147a4.811,4.811,0,0,1-4.343,2.7,4.968,4.968,0,0,1-4.76-3.093,5.252,5.252,0,0,1-.415-1.983,5.048,5.048,0,0,1,5.036-5.116,4.708,4.708,0,0,1,3.928,2.062h3.252c-1.012-2.816-4.224-4.6-7.118-4.6a7.767,7.767,0,0,0-7.815,7.635,7.84,7.84,0,0,0,15.667.178" transform="translate(-1826.932 40.82)" fill="#002361"/>
                <path id="Path_345_1_" d="M1972.676,21.008l-3.986-5.414a4.739,4.739,0,0,0,2.44-1.211,5.1,5.1,0,0,0,1.407-3.51,4.531,4.531,0,0,0-1.725-3.55,5.418,5.418,0,0,0-3.57-.991h-4.5V21.008h2.717V15.4h.04l3.886,5.613Zm-2.855-9.915c0,1.546-1.17,2.26-2.618,2.26h-1.746V8.871h1.746c1.388,0,2.618.715,2.618,2.222" transform="translate(-1917.02 39.202)" fill="#002361"/>
                <path id="Path_346_1_" d="M2039.776,15.652V6.331h-2.717v9.321c0,1.706-.556,3.114-2.539,3.114s-2.538-1.408-2.538-3.114V6.331h-2.717v9.321a6,6,0,0,0,.912,3.55,5.5,5.5,0,0,0,4.363,2.1,5.386,5.386,0,0,0,4.383-2.181,6.078,6.078,0,0,0,.853-3.471" transform="translate(-1973.24 39.204)" fill="#002361"/>
                <path id="Path_347_1_" d="M2117.083,10.873a4.23,4.23,0,0,0-1.388-3.372c-1.268-1.11-2.518-1.17-4.125-1.17H2107.7V21.006h2.716V15.414h1.151c1.607,0,2.857-.059,4.125-1.17a4.228,4.228,0,0,0,1.388-3.372m-2.719,0c0,1.8-1.666,2-3.073,2h-.874V8.87h.973c1.407,0,2.974.219,2.974,2" transform="translate(-2039.527 39.204)" fill="#002361"/>
                <path id="Path_348_1_" d="M2184.067,12.27a7.675,7.675,0,1,0-7.676,7.6,7.675,7.675,0,0,0,7.676-7.6m-2.717-.019a4.959,4.959,0,1,1-9.915,0,4.96,4.96,0,1,1,9.915,0" transform="translate(-2091.09 40.642)" fill="#002361"/>
                <path id="Path_349_1_" d="M2396.72-64.2h33.958l.049,25.246c-2.112,2.344-10.143,2.376-13.335-.974-2.345-2.459-2.158-7.177,1.749-8.166,3.483-.882,5.46-.049,5.063,1.441,4.092-2.551,1.421-8.544-6.231-7.628l-3.851,1.391-2.6-1.182,6.3-.37c-.062-2.691-1.427-3.824-5.588-3.742-6.653.131-12.558,5.778-15.518,3.349Z" transform="translate(-2283.775 98.808)" fill="#005fc5"/>
              </g>
            </g>
          </g>
        </g>
      </g>
    </g>
  </g>
</svg>
