<svg xmlns="http://www.w3.org/2000/svg" width="192.837" height="27.582" viewBox="0 0 192.837 27.582">
  <g id="Logo_Reserva" data-name="Logo Reserva" transform="translate(0 0)">
    <g id="Grupo_3962" data-name="Grupo 3962" transform="translate(0 0)">
      <g id="Grupo_3961" data-name="Grupo 3961" transform="translate(0 0)">
        <g id="Grupo_3960" data-name="Grupo 3960">
          <path id="Caminho_4655" data-name="Caminho 4655" d="M612.028-252.192c0-5.065-5.619-8.112-14.009-8.112H585l3.72,3.641v19.312l-3.72,3.4h16.581l-3.918-3.4v-6q.356.021.712.022c.242,0,.483-.006.724-.016,3.232,6.64,7.013,9.395,14.076,9.395h2.1a92.764,92.764,0,0,1-7.905-11.813C610.172-247.44,612.028-249.793,612.028-252.192Zm-14.167,6.134c-.064,0-.133,0-.2-.006V-258.25c3.7.47,5.105,2.31,5.105,6.493C602.768-248.155,601.542-246.058,597.861-246.058Z" transform="translate(-585 260.304)" fill="#0c0d11"/>
          <path id="Caminho_4656" data-name="Caminho 4656" d="M1175.165-223.144a.949.949,0,0,1-1.069-1.029v-8.191c0-6.371-4.313-8.548-10.249-8.548-5.659,0-10.17,2.533-10.17,5.54,0,1.86,1.464,2.651,3.245,2.651a6.522,6.522,0,0,0,4.828-1.82,3.917,3.917,0,0,1-1.306-2.651,1.665,1.665,0,0,1,1.781-1.86c2.1,0,4,2.176,4,5.342v.515c-9.537,1.464-13.139,5.3-13.139,9.022,0,3.285,2.454,5.224,5.5,5.224a8.156,8.156,0,0,0,7.321-4.986h.119v.475c0,3.443,2.058,4.511,4.353,4.511a8.184,8.184,0,0,0,7.2-4.789A6.027,6.027,0,0,1,1175.165-223.144Zm-8.943-5.342c0,2.849-1.227,3.957-2.81,3.957-1.345,0-2.453-1.306-2.453-3.087a2.482,2.482,0,0,1,2.612-2.651,4.905,4.905,0,0,1,2.651.752Z" transform="translate(-1007.02 245.898)" fill="#0c0d11"/>
          <path id="Caminho_4657" data-name="Caminho 4657" d="M709.312-228.72l11.677-4.045c-.238-4.472-3.878-7.994-9.5-7.994-5.382,0-10.289,4.511-10.289,11a11.017,11.017,0,0,0,11.16,11.041,9.377,9.377,0,0,0,9.616-8.31,8.4,8.4,0,0,1-5.5,1.9A9.192,9.192,0,0,1,709.312-228.72Zm.082-8.516c1.428,0,3.254,1.381,4.238,4.168l-5.415,2.663a8.449,8.449,0,0,1-1-3.824C707.217-236.247,708.167-237.236,709.394-237.236Z" transform="translate(-671.325 245.784)" fill="#0c0d11"/>
          <path id="Caminho_4658" data-name="Caminho 4658" d="M797.959-236.6c0-1.148.989-1.82,2.612-1.82,2.018,0,5.184,1.108,7.875,5.184l-.871-6.49a20.53,20.53,0,0,0-7.084-1.187c-5.936,0-9.933,3.087-9.933,7.361,0,7.242,11.555,6.45,11.555,10.012,0,1.306-.989,1.979-2.612,1.979-2.3,0-5.659-1.306-9.339-5.54l1.306,6.807c2.058,1.108,5.659,1.464,8.35,1.424,6.767-.119,10.051-2.928,10.051-7.36C809.87-234.066,797.959-232.8,797.959-236.6Z" transform="translate(-737.412 245.898)" fill="#0c0d11"/>
          <path id="Caminho_4659" data-name="Caminho 4659" d="M884.309-228.72l11.677-4.045c-.238-4.472-3.878-7.994-9.5-7.994-5.382,0-10.289,4.511-10.289,11a11.017,11.017,0,0,0,11.159,11.041,9.377,9.377,0,0,0,9.616-8.31,8.4,8.4,0,0,1-5.5,1.9A9.193,9.193,0,0,1,884.309-228.72Zm.082-8.516c1.428,0,3.254,1.381,4.238,4.168l-5.415,2.663a8.455,8.455,0,0,1-1-3.824C882.214-236.247,883.164-237.236,884.39-237.236Z" transform="translate(-801.327 245.784)" fill="#0c0d11"/>
          <path id="Caminho_4660" data-name="Caminho 4660" d="M981.044-234.021c0-3.641-2.928-5.659-11.2-5.659H957.617l3.443,3.878v13.85l-3.443,3.324h14.246l-3.126-3.443v-4.788h.594c.186,0,.372,0,.558-.006,3.427,6.621,5.919,8.237,11.749,8.237h2.1l-6.776-10.968C979.348-230.393,981.044-231.794,981.044-234.021ZM968.9-229.035h-.158V-237.7c3.245-.237,4.432,2.058,4.432,4.274C973.169-230.974,972.14-229.035,968.9-229.035Z" transform="translate(-861.811 244.983)" fill="#0c0d11"/>
          <path id="Caminho_4661" data-name="Caminho 4661" d="M1067.631-238.757a3.791,3.791,0,0,1,2.414,3.76,14.033,14.033,0,0,1-1.583,5.936l-1.409,2.877-1.321-2.442c-1.148-2.1-2.335-4.353-2.335-6.371a3.97,3.97,0,0,1,2.256-3.76h-14.919c1.306,1.069,2.77,4.116,3.839,6.015l9.1,16.027,8.943-15.671a25.019,25.019,0,0,1,4.749-6.371Z" transform="translate(-930.985 244.297)" fill="#0c0d11"/>
        </g>
      </g>
    </g>
    <path id="Caminho_4662" data-name="Caminho 4662" d="M1270.44-235.695c-.394-.31-2.188-1.494-3.062-2.272-.341-.3-.1-.653-.475-1.017-.479-.465-1.01-.969-1.534-1.507a21.245,21.245,0,0,1-1.567-1.836c-.455-.634-1.875-2.593-3.031-3.891-1.24-1.393-3.581-3.1-4.225-4.661-.038-.1-.074-.209-.105-.318h0a5.534,5.534,0,0,1-.193-1.714,4.324,4.324,0,0,1,.907-2.336c.763-1.162.627-1.673.362-1.714s-.543-.028-.26-1.241a2.171,2.171,0,0,0-.084-1.749c-.149-.247-.333-.377-.477-.347-.33.07-.579.843-.9,1.046-.083.052-.505.289-.422-.692.02-.232-.139-.311-.361-.174a2.832,2.832,0,0,0-1.056,1.741c-.016.063-.077.082-.105,0a1.428,1.428,0,0,1,.036-.748c.088-.366.238-.659.071-.7-.212-.051-.513.392-.744.895-.034.075-.046.1-.07.161s-.1.1-.1-.029a1.405,1.405,0,0,1,.065-.4c.021-.074-.019-.1-.048-.112-.069-.018-.155.02-.261.1a2.1,2.1,0,0,0-.636.929v0c-.018.047-.033.095-.048.142,0,.011-.008.021-.011.032l-.014.045c-.008.024-.014.05-.021.075s-.019.066-.028.1c0,.013-.006.025-.009.038h0c-.015.064-.03.128-.042.195h0q-.021.11-.035.219l0,.017,0,.013a3.833,3.833,0,0,0-.028.584v0c0,.032,0,.064,0,.1.006.1-.246.131-.191.366a12.371,12.371,0,0,0,.473,1.5.209.209,0,0,1-.136.276,14.51,14.51,0,0,0-3.061,1.252.16.16,0,0,0-.053.217c.05.075.172.065.229.046,1.185-.393,2.875-.946,3.692-.356.6.433.659,1.465.284,2.58-.124.413-.266.783-.4,1.161l0,0c-1.736,4.588,1.464,6.7,4.408,9.428a8.664,8.664,0,0,1,1.064,1.292,2.37,2.37,0,0,1,.552,1.358,9.427,9.427,0,0,1-.222,1.462c-.165.74-.344.375-1.512.08-.366-.093-.383-.059-.615.437-.241.514-.261.573-.2.606s2.241.013,2.486.059a.456.456,0,0,1,.11.035c.266.125,1.47.7,1.838.948a.189.189,0,0,0,.245-.033.161.161,0,0,0-.056-.224c-.542-.335-1.637-1.162-1.665-1.415a7.6,7.6,0,0,1,.121-.753c.2-1.273.228-1.751.749-1.994.483-.225,1.612.352,2.5.568a.075.075,0,0,1,.056.089c-.028.127-.1.426-.25.934a.382.382,0,0,1-.221.277,6.979,6.979,0,0,1-1.431-.339c-.21-.05-.271-.186-.745.812-.034.071-.021.1,0,.115s2.113.126,2.409.183a.629.629,0,0,1,.154.051c.783.382,1.412.726,1.834.957.227.124.3.18.383.1.108-.107-.009-.195-.089-.272-.044-.045-.519-.373-.971-.7-.434-.311-.851-.5-.839-.666a3.885,3.885,0,0,1,.081-.417c.014-.056.17-.638.227-.849a.075.075,0,0,1,.1-.051c2.233.756,2.919,2.2,4.62,3.092C1269.922-233.442,1272.181-234.328,1270.44-235.695Z" transform="translate(-1078.225 260.304)" fill="#d90018"/>
  </g>
</svg>
