<svg xmlns="http://www.w3.org/2000/svg" width="188.056" height="59.649" viewBox="0 0 188.056 59.649">
  <g id="Logo_Meridional" data-name="Logo Meridional" transform="translate(-29.143 -32.368)">
    <path id="Caminho_5211" data-name="Caminho 5211" d="M310.452,159.491H308.9c.281-6.407.56-12.758.843-19.189h4.073l5.849,15.118L325,140.273h4.071c.294,6.364.587,12.716.885,19.169h-3.53c-.24-5.34-.481-10.723-.723-16.1l-.238-.067-5.76,16.237h-1.983l-6.52-16.6Z" transform="translate(-208.827 -80.547)" fill="#0f453e"/>
    <path id="Caminho_5212" data-name="Caminho 5212" d="M656.595,179.362h-3.144V167.25h3.084v2.134a5.29,5.29,0,0,1,3.758-2.471c2.542-.319,4.339,1.146,4.461,3.881.125,2.808.028,5.627.028,8.521h-3.173c0-2.563.036-5.146-.016-7.728-.023-1.143-.214-2.337-1.517-2.763a2.775,2.775,0,0,0-2.961.828,2.107,2.107,0,0,0-.522,1.67C656.6,173.961,656.595,176.6,656.595,179.362Z" transform="translate(-466.02 -100.4)" fill="#0f453e"/>
    <path id="Caminho_5213" data-name="Caminho 5213" d="M762.051,159.584H759.06V140.4h2.991Z" transform="translate(-544.852 -80.643)" fill="#0f453e"/>
    <path id="Caminho_5214" data-name="Caminho 5214" d="M489.815,180.559V168.505h3.119v12.054Z" transform="translate(-343.872 -101.621)" fill="#0f453e"/>
    <path id="Caminho_5215" data-name="Caminho 5215" d="M454.7,180.559V168.505h3.119v12.054Z" transform="translate(-317.663 -101.621)" fill="#0f453e"/>
    <path id="Caminho_5216" data-name="Caminho 5216" d="M572.879,180.433V168.4h3.034v12.032Z" transform="translate(-405.876 -101.543)" fill="#0f453e"/>
    <path id="Caminho_5217" data-name="Caminho 5217" d="M492.492,142.531a1.869,1.869,0,0,1-1.926,1.856,1.749,1.749,0,0,1-1.9-1.846,1.772,1.772,0,0,1,1.945-1.935A1.882,1.882,0,0,1,492.492,142.531Z" transform="translate(-343.017 -80.795)" fill="#0f453e"/>
    <path id="Caminho_5218" data-name="Caminho 5218" d="M575.293,142.614a1.806,1.806,0,0,1-1.965,1.773,1.887,1.887,0,0,1,.121-3.773A1.833,1.833,0,0,1,575.293,142.614Z" transform="translate(-404.865 -80.8)" fill="#0f453e"/>
    <path id="Caminho_5219" data-name="Caminho 5219" d="M466.942,170.89c.662-2.171,1.924-3.112,4.351-3.192v2.856a7.826,7.826,0,0,0-4.37.315Z" transform="translate(-326.784 -101.018)" fill="#0f453e"/>
    <path id="Caminho_5220" data-name="Caminho 5220" d="M58.95,32.368A29.825,29.825,0,1,0,88.794,62.3,29.875,29.875,0,0,0,58.95,32.368Zm-.1,57.376A27.538,27.538,0,1,1,86.492,62.451,27.441,27.441,0,0,1,58.85,89.744Z" transform="translate(0 0)" fill="#0f453e"/>
    <path id="Caminho_5221" data-name="Caminho 5221" d="M519.9,140.268V149.1c-2.538-2.388-5.533-2.646-7.757-.538a7.247,7.247,0,0,0-.392,9.4c2.049,2.381,5.147,2.226,8.092-.05.047.451-.025,1.111.022,1.567h3.225V140.268Zm-.055,17.509-1.29.467a3.484,3.484,0,0,1-1.91.007c-1.888-.474-2.615-1.853-2.83-3.632a7.808,7.808,0,0,1,.277-3.421c.993-2.68,3.148-3.424,5.753-1.927Z" transform="translate(-359.096 -80.543)" fill="#0f453e"/>
    <path id="Caminho_5222" data-name="Caminho 5222" d="M599.545,166.958a6.307,6.307,0,0,0-6.709,6.392c-.029,3.769,2.712,6.42,6.64,6.424s6.648-2.622,6.625-6.421A6.257,6.257,0,0,0,599.545,166.958Zm2.393,10.276A2.681,2.681,0,0,1,599.5,178.9a2.51,2.51,0,0,1-2.432-1.65,9.44,9.44,0,0,1,.043-7.808,2.438,2.438,0,0,1,2.364-1.531,2.587,2.587,0,0,1,2.392,1.5,7.9,7.9,0,0,1,.79,4.032A7.783,7.783,0,0,1,601.938,177.234Z" transform="translate(-420.773 -100.465)" fill="#0f453e"/>
    <path id="Caminho_5223" data-name="Caminho 5223" d="M715.057,178.018a3.36,3.36,0,0,1-.347-1.958c-.019-2.123.313-4.25-.049-6.368a3.423,3.423,0,0,0-3.255-3.019c-2.752-.343-5.062.542-5.712,2.119a1.471,1.471,0,0,0,2.028,1.971,1.219,1.219,0,0,0,.66-1.535c-.212-.851-.257-1.582.843-1.776,1.146-.2,2.017.164,2.253,1.375a10.255,10.255,0,0,1,.032,3.784,13.325,13.325,0,0,0-4.991.867,3.024,3.024,0,0,0-1.064,5.021c1.607,1.579,4.211,1.278,6.122-.806a2.585,2.585,0,0,0,2.963,1.759,2.843,2.843,0,0,0,2.56-2.091C716.371,177.9,715.892,178.506,715.057,178.018Zm-3.555-.559a2.279,2.279,0,0,1-2.819.264,2.021,2.021,0,0,1-.685-2.335c.458-1.749,1.879-1.948,3.5-2.118Z" transform="translate(-504.138 -100.198)" fill="#0f453e"/>
    <path id="Caminho_5224" data-name="Caminho 5224" d="M404.572,177.636c-1.782-.884-2.709-3.389-2.039-5.718h8.089a4.907,4.907,0,0,0-5.163-4.966,6.307,6.307,0,0,0-6.56,6.015c-.177,3.769,2.03,6.486,5.5,6.766s5.839-1.412,6.232-4.614C408.689,177.917,406.7,178.694,404.572,177.636Zm.77-9.872c1.328.123,2,1.242,1.89,3.219H402.5C402.732,168.835,403.817,167.624,405.342,167.765Z" transform="translate(-275.999 -100.461)" fill="#0f453e"/>
    <path id="Caminho_5225" data-name="Caminho 5225" d="M312.007,87.167c1.578-.344,2.357-1.16,2.31-2.429a2.477,2.477,0,0,0-2.345-2.214c-1.016-.1-2.647.012-3.7.012,0,3.071.053,9.1.053,9.1l1.023-.006.012-4.451.945.012,3.458,4.427,1.651-.012S313.188,88.676,312.007,87.167Zm-2.644-.467c0-1.147,0-3.712,0-3.712,1.152-.077,2.737-.081,3.288.685a2.143,2.143,0,0,1,.048,2.285C311.9,86.976,310.727,86.689,309.363,86.7Z" transform="translate(-208.36 -37.409)" fill="#0f453e"/>
    <path id="Caminho_5226" data-name="Caminho 5226" d="M80.807,83.924h2.8l12.537,19.7,11.933-19.7h2.428c-.246.965-12.737,21.826-14.376,23.984-2.2-3.468-4.375-6.9-6.555-10.321-2.153-3.383-4.313-6.762-6.655-10.433C82.3,97.438,81.7,107.377,81.092,117.4h-2.3C79.463,106.258,80.131,95.149,80.807,83.924Z" transform="translate(-37.061 -38.484)" fill="#0f453e"/>
    <path id="Caminho_5227" data-name="Caminho 5227" d="M101.568,138.6h2.765l8.843,13.245,12.489-18.754h2.57c.668,6.982,1.335,13.952,2.01,21.012h-2.3c-.555-5.753-1.113-11.541-1.707-17.7l-11.8,17.732h-2.508Z" transform="translate(-54.062 -75.184)" fill="#0f453e"/>
    <path id="Caminho_5228" data-name="Caminho 5228" d="M340.018,99.929a2.421,2.421,0,0,1-1.053-2.633c1.243,0,3.1.027,4.359.027a2.45,2.45,0,0,0-2.409-2.5A3.142,3.142,0,0,0,337.8,97.8a2.839,2.839,0,0,0,2.625,3.157,2.418,2.418,0,0,0,2.9-2.145A2.472,2.472,0,0,1,340.018,99.929Zm.73-4.607a1.508,1.508,0,0,1,1.34,1.556c-.73,0-2.375.012-3.111.012A1.775,1.775,0,0,1,340.748,95.322Z" transform="translate(-230.399 -46.617)" fill="#0f453e"/>
    <path id="Caminho_5229" data-name="Caminho 5229" d="M391.553,99.929A2.421,2.421,0,0,1,390.5,97.3c1.243,0,3.1.027,4.359.027a2.45,2.45,0,0,0-2.409-2.5,3.142,3.142,0,0,0-3.111,2.979,2.839,2.839,0,0,0,2.625,3.157,2.418,2.418,0,0,0,2.9-2.145A2.472,2.472,0,0,1,391.553,99.929Zm.73-4.607a1.508,1.508,0,0,1,1.34,1.556c-.731,0-2.376.012-3.111.012A1.775,1.775,0,0,1,392.283,95.322Z" transform="translate(-268.868 -46.617)" fill="#0f453e"/>
    <path id="Caminho_5230" data-name="Caminho 5230" d="M366.5,82.563s-.014,2.853-.014,4.239a2.669,2.669,0,0,0-3.771-.256,3.428,3.428,0,0,0-.248,4.4,2.53,2.53,0,0,0,4.015-.251c0,.216.006.975.006.975l.8,0-.009-9.114Zm-.012,8.053a2.858,2.858,0,0,1-1.986.515,1.736,1.736,0,0,1-1.175-.888,2.646,2.646,0,0,1-.306-1.283,5.457,5.457,0,0,1,.133-1.462c.463-1.248,2.121-1.374,3.334-.676C366.49,88.112,366.49,89.254,366.49,90.616Z" transform="translate(-248.305 -37.46)" fill="#0f453e"/>
  </g>
</svg>
