<svg id="Logo_Marlin_Azul" data-name="Logo Marlin Azul" xmlns="http://www.w3.org/2000/svg" width="159.21" height="54.809" viewBox="0 0 159.21 54.809">
  <path id="Caminho_4711" data-name="Caminho 4711" d="M155.835,42.931a54.922,54.922,0,0,1-.021-7.4c.057-1.109.154-2.3.288-3.536.121-1.174.3-2.555.536-4.222l.078-.561-.547.157c-.789.223-1.611.428-2.51.626-.863.19-1.688.348-2.528.483l-.269.043-.038.27a11.846,11.846,0,0,1-.485,2.06,15.862,15.862,0,0,1-.918,2.178,37.539,37.539,0,0,1-2.506,4.194,16.786,16.786,0,0,1-2.129,2.67,10.925,10.925,0,0,1-1.52,1.025,8.779,8.779,0,0,0-1.958,1.528,5.982,5.982,0,0,0-1.1,1.8,6.9,6.9,0,0,0-.465,2.181,4.147,4.147,0,0,0,.286,1.89c.266.6.632.921,1.088.944.393.02,1.028-.229,2.707-2.265a44.7,44.7,0,0,0,3.716-5.439,2.577,2.577,0,0,1,.318-.049,3.876,3.876,0,0,1,.522,0,6.245,6.245,0,0,1,1.522.271,6.787,6.787,0,0,1,1.3.555c.088,1.525.212,2.848.369,3.933a24.339,24.339,0,0,0,.668,3.2l.1.345,4.62-1.17-.115-.372A25.192,25.192,0,0,1,155.835,42.931Zm-4.092-9.536c-.085.791-.153,1.464-.206,2.011-.095.992-.169,1.979-.218,2.935l-.052.984c-.189-.025-.357-.046-.52-.062-.273-.027-.571-.049-.939-.07-.114-.009-.252-.009-.416-.009h0c-.164,0-.353,0-.564.009a39.1,39.1,0,0,0,1.937-3.572Q151.283,34.528,151.743,33.395Z" transform="translate(-30.313 -5.903)" fill="#004f99"/>
  <path id="Caminho_4712" data-name="Caminho 4712" d="M191.247,39.859a3.609,3.609,0,0,0-1.28-2.1c-.854-.848-1.505-1.227-2.061-1.2-.719.038-1.157.973-1.469,3.128-.029.205-.05.36-.063.462a15.855,15.855,0,0,1-1.39,4.9,7.456,7.456,0,0,1-2.276,2.514l-.5-.449a47.862,47.862,0,0,0,1.449-5.355A17.287,17.287,0,0,0,184.1,37.7l-.06-1.126-4.771,1.523v.268a33.373,33.373,0,0,1-.435,5.1,47.613,47.613,0,0,1-1.265,5.622l-.016.058.042.814.059.085a6.885,6.885,0,0,0,1.323,1.5,2.091,2.091,0,0,0,1.271.548l.069,0c.337-.018.973-.189,2.585-1.464a20.241,20.241,0,0,0,2.713-2.627v.128c.008.348.02.687.038,1a12.631,12.631,0,0,0,.131,1.318,7.493,7.493,0,0,0,.235,1.063l.11.355,4.307-1.37-.072-.329c-.2-.9-.345-1.656-.454-2.324a18.068,18.068,0,0,1-.209-1.872,7.443,7.443,0,0,1,.709-3.453A6.4,6.4,0,0,0,191.247,39.859Z" transform="translate(-38.519 -7.932)" fill="#004f99"/>
  <path id="Caminho_4713" data-name="Caminho 4713" d="M174.536,37.293c-1.214.215-2.238.367-3.132.464a21.835,21.835,0,0,1-2.467.15,13.988,13.988,0,0,1-1.471-.079c-.5-.056-1-.132-1.545-.234l-.32-.061-1.193,3.731.3.135a5.007,5.007,0,0,0,1.253.368,9.362,9.362,0,0,0,1.552.114c.377,0,.745-.016,1.123-.046l.277-.024c-.669.843-1.467,1.745-2.384,2.691-1.161,1.2-2.561,2.518-4.159,3.907l-.194.169.092.241c.2.52.379,1.019.552,1.523q.283.809.626,1.846l.111.331.327-.085a16.443,16.443,0,0,1,2.095-.428,15.638,15.638,0,0,1,2.207-.148c.441,0,.912.016,1.4.049.563.038,1.088.081,1.606.136l.288.031,1.359-3.829-.392-.1a10.625,10.625,0,0,0-1.4-.245,16.944,16.944,0,0,0-1.816-.078c-.525,0-1.035.02-1.561.065-.263.02-.529.047-.8.078a36.465,36.465,0,0,1,2.82-3.182,50.42,50.42,0,0,1,4.351-3.885l.095-.079.974-3.628Z" transform="translate(-35.182 -8.068)" fill="#004f99"/>
  <path id="Caminho_4714" data-name="Caminho 4714" d="M201.557,45.743c-.2-.54-.392-1.128-.589-1.792-.179-.6-.352-1.258-.508-1.944a21.168,21.168,0,0,1,.516-11.2q.074-.269.131-.433a11.394,11.394,0,0,0,.435-1.695,3.064,3.064,0,0,0-.023-1.1,4.16,4.16,0,0,0-1.007-1.763,11.48,11.48,0,0,0-2.074-1.8l-.146-.1-.883.256-.051.2a52.479,52.479,0,0,0-1.584,10.623,35.282,35.282,0,0,0,.7,9.318c.116.5.268,1.048.449,1.615s.392,1.189.67,1.931l.157.418.379-.236c.6-.364,1.126-.676,1.62-.956.568-.319,1.115-.616,1.626-.881l.289-.15Z" transform="translate(-42.458 -5.186)" fill="#004f99"/>
  <path id="Caminho_4715" data-name="Caminho 4715" d="M82.507,27.236a9.769,9.769,0,0,0,1.027.045l.129,0c.435,0,.938-.025,1.532-.078l.488-.044L85,25.4l.2-1.93-.351-.662h-.222a6.7,6.7,0,0,0-2.981.583,2.191,2.191,0,0,0-1.377,1.716,1.664,1.664,0,0,0,.54,1.488A2.905,2.905,0,0,0,82.507,27.236Z" transform="translate(-17.41 -4.947)" fill="#004f99"/>
  <path id="Caminho_4716" data-name="Caminho 4716" d="M21.765,36.437c-.246-.9-.466-1.835-.652-2.79a32.024,32.024,0,0,1-.637-5.77,17.389,17.389,0,0,1,.548-4.687l.02-.078-.178-1.1-.038-.063a7.214,7.214,0,0,0-1.9-2.064,2.675,2.675,0,0,0-1.944-.7c-1,.194-1.145,1.7-1.168,2.814-.016,1-.06,1.839-.139,2.485a34.811,34.811,0,0,1-1.4,6.538,21.123,21.123,0,0,1-1.937,4.452,17.032,17.032,0,0,1-.833-2.178,38.917,38.917,0,0,1-.955-3.943c-.316-1.628-.538-3.081-.656-4.322a23.639,23.639,0,0,1-.112-3.436v-.06l-.329-1.166L4.4,22.832l.049.274A24.857,24.857,0,0,1,4.141,32.6,39.435,39.435,0,0,1,.21,43.057L0,43.447,4.15,44.77l.122-.319a32.744,32.744,0,0,0,1.891-7.537,52.975,52.975,0,0,0,.481-5.986c.081.446.164.9.252,1.348a51.881,51.881,0,0,0,1.716,6.8,11.482,11.482,0,0,0,1.992,3.855l.089.1.7.1.131-.185a28.8,28.8,0,0,0,2.911-6.035c.732-1.942,1.431-4.091,2.088-6.412q-.014.822.025,1.662a37.608,37.608,0,0,0,.68,5.325c.189.972.366,1.722.538,2.29a9.533,9.533,0,0,0,.6,1.55l.168.336,4.188-2.189-.106-.3C22.309,38.281,22.018,37.358,21.765,36.437Z" transform="translate(0 -4.161)" fill="#004f99"/>
  <path id="Caminho_4717" data-name="Caminho 4717" d="M87.915,43.24c.306-.9.565-1.644.776-2.193a11.219,11.219,0,0,1,1.938-3.392,5.188,5.188,0,0,1,2.147-1.538l.4.525a12.971,12.971,0,0,1-1.894,3.736c-1.269,1.733-1.4,2.092-1.42,2.293a4.241,4.241,0,0,0,.766,2.7c.625.987,1.236,1.5,1.868,1.566.8.088,1.458-.84,2.048-2.918a21.67,21.67,0,0,1,.682-2.138,12.338,12.338,0,0,1,1.958-3.554,4.8,4.8,0,0,1,2.1-1.528l.38.5a49.517,49.517,0,0,0-2.149,5.069A29.8,29.8,0,0,0,96.226,47.1l-.091.515,5.1-.863.04-.264a33.481,33.481,0,0,1,2.814-9.175,5.6,5.6,0,0,0,.6-1.55,1.583,1.583,0,0,0-.035-.594,1.647,1.647,0,0,0-.332-.583l-1.337-1.759-.19.006a7.01,7.01,0,0,0-3.127.93,14.088,14.088,0,0,0-2.389,1.7,4,4,0,0,0,.157-.722,2.375,2.375,0,0,0-.02-.645,1.482,1.482,0,0,0-.2-.568l-1.1-1.416h-.18a6.268,6.268,0,0,0-3.054,1.032A21.107,21.107,0,0,0,90.1,35.2c.057-.2.113-.39.165-.583a12.992,12.992,0,0,0,.366-1.981c.027-.248.039-.417.045-.528s.012-.212.012-.309v-.437l-4.7.83V32.5c0,.5-.022,1-.054,1.482-.042.565-.088,1.08-.141,1.577a19.03,19.03,0,0,1-.357,2.341,4.453,4.453,0,0,1-.452,1.237c-.187.26-.449.59-.759.954a3.866,3.866,0,0,0-1.075,1.869,4.228,4.228,0,0,0,.766,2.7c.626.989,1.24,1.5,1.867,1.566C86.518,46.313,87.16,45.418,87.915,43.24Z" transform="translate(-18.035 -6.804)" fill="#004f99"/>
  <path id="Caminho_4718" data-name="Caminho 4718" d="M43.362,27.729c-.16,0-.4.056-1,.47a8.343,8.343,0,0,0-1.031.861c-.384-.234-.744-.459-1.07-.67-.406-.266-.757-.514-1.077-.757l-.2-.157-.217.138a24.723,24.723,0,0,0-3.308,2.506,19.307,19.307,0,0,0-2.572,2.872,18.039,18.039,0,0,0-1.746,2.893,5.316,5.316,0,0,0-.716,2.1,2.91,2.91,0,0,0,.412,1.269,10.778,10.778,0,0,0,1.047,1.592,6.384,6.384,0,0,0,1.247,1.265,2.111,2.111,0,0,0,1.211.522,4.794,4.794,0,0,0,2.544-1.4,20.923,20.923,0,0,0,2.634-2.712c.056.674.13,1.283.213,1.819a12.038,12.038,0,0,0,.489,2.02l.116.333L44.57,41.41l-.123-.361a23.675,23.675,0,0,1-.819-2.992,12.935,12.935,0,0,1-.269-2.492,3.267,3.267,0,0,1,.058-.6c.038-.215.106-.493.195-.823a10.348,10.348,0,0,0,1.237-2,4.332,4.332,0,0,0,.482-1.8,2.809,2.809,0,0,0-.718-1.654C44.082,28.017,43.708,27.729,43.362,27.729Zm-3.256,3.225a12.259,12.259,0,0,0-.47,1.576,15.151,15.151,0,0,0-.327,2.336,15.5,15.5,0,0,1-1.633,2.2,10.292,10.292,0,0,1-1.612,1.46l-.481-.414a10.227,10.227,0,0,1,1.608-3.923A13.467,13.467,0,0,1,40.106,30.954Z" transform="translate(-6.6 -5.961)" fill="#004f99"/>
  <path id="Caminho_4719" data-name="Caminho 4719" d="M82.661,30.695l-.738.053c-1.448.1-2.381.192-2.935.27a9.326,9.326,0,0,0-1.514.313l-.14.044-.071.129a30.792,30.792,0,0,0-2.241,5.441,75.168,75.168,0,0,0-1.953,7.7l-.088.436.444.007h.114a10.275,10.275,0,0,0,1.479-.117c.571-.081,1.4-.244,2.542-.493l.258-.056.03-.262a32.135,32.135,0,0,1,1.539-6.864,27.405,27.405,0,0,1,2.873-5.977Z" transform="translate(-15.832 -6.659)" fill="#004f99"/>
  <path id="Caminho_4720" data-name="Caminho 4720" d="M69.421,36.929a21.163,21.163,0,0,1,3.955-10.493c.1-.155.188-.278.258-.371a11.389,11.389,0,0,0,.936-1.478,3.019,3.019,0,0,0,.319-1.058,4.172,4.172,0,0,0-.412-1.987,11.386,11.386,0,0,0-1.417-2.355l-.106-.141-.919-.029-.114.179a52.528,52.528,0,0,0-4.79,9.614,35.257,35.257,0,0,0-2.209,9.08c-.046.515-.072,1.08-.072,1.675s.006,1.251.041,2.043l.02.446.434-.109c.7-.167,1.283-.3,1.836-.408.637-.129,1.249-.243,1.819-.336l.321-.053-.013-.325c-.021-.579-.023-1.2-.005-1.886C69.32,38.3,69.36,37.629,69.421,36.929Z" transform="translate(-14.068 -4.125)" fill="#004f99"/>
  <path id="Caminho_4721" data-name="Caminho 4721" d="M62.3,29.8l-.168-.186a5.828,5.828,0,0,0-.59-.565,6.3,6.3,0,0,0-.619-.45l-.075-.047-.9-.085-.1.057A7.58,7.58,0,0,0,57.9,30.235a19.81,19.81,0,0,0-1.2,1.6c.041-.27.079-.535.114-.792.094-.706.159-1.4.193-2.051l.005-.11v-.017a4.946,4.946,0,0,1,.005-.539l.025-.482-4.424.965.041.334a16.4,16.4,0,0,1,.115,1.663c.012.575,0,1.294-.052,2.2v.72a5.065,5.065,0,0,1-.331,1.469,13.178,13.178,0,0,1-.865,1.828c-.11.176-.246.4-.422.682a3.144,3.144,0,0,0-.627,1.359,4.051,4.051,0,0,0,.916,2.427,2.864,2.864,0,0,0,2.061,1.5H53.5a1.281,1.281,0,0,0,1.074-.739,7.08,7.08,0,0,0,.7-1.913c.078-.291.179-.708.305-1.236l.036-.194a11.441,11.441,0,0,1,2.349-5.256c.309.071.594.145.869.222.36.1.745.218,1.143.348l.332.108.126-.326c.26-.666.53-1.326.808-1.962.312-.713.619-1.373.94-2.016Z" transform="translate(-10.949 -6.041)" fill="#004f99"/>
  <path id="Caminho_4722" data-name="Caminho 4722" d="M140.9.475q.129-.241.26-.475a5.672,5.672,0,0,0-.967.833c-4.616,6.008-23.371,42.055-42.8,49.1A60.478,60.478,0,0,1,86,52.164l50.455,2.645C112.567,52.157,116.544,44.975,140.9.475Z" transform="translate(-18.656)" fill="#004f99"/>
</svg>
