<svg xmlns="http://www.w3.org/2000/svg" width="133.699" height="37.313" viewBox="0 0 133.699 37.313">
  <path id="Logo_Wine" data-name="Logo Wine" d="M132.505,36.47a55.592,55.592,0,0,1-11.314.842c-7.741,0-13.756-2.106-13.756-12.329l0-12.654C107.439,2.106,113.454,0,121.195,0a55.592,55.592,0,0,1,11.314.842c.893.121,1.19.42,1.19,1.262V5.954a1.2,1.2,0,0,1-1.19,1.2H120.361c-3.454,0-4.705,1.2-4.705,5.173v2.4h16.138a1.2,1.2,0,0,1,1.19,1.2v4.331a1.2,1.2,0,0,1-1.19,1.2H115.656l0,3.514c0,3.969,1.25,5.173,4.7,5.173h12.148a1.2,1.2,0,0,1,1.19,1.2v3.848c0,.842-.3,1.143-1.19,1.264ZM61.857,2.4,55.639,36.142a1.4,1.4,0,0,1-1.274,1.169h-.638a.869.869,0,0,1-.892-.923v-.246L59.052,2.4A1.4,1.4,0,0,1,60.327,1.23h.638a.869.869,0,0,1,.892.923V2.4ZM47.682,2.264,42.753,32.382c-.542,3.836-2.292,4.93-5.428,4.93H34.066c-2.714,0-4.162-1.34-5.006-4.869L24.294,17.3c-.121-.547-.121-.669-.361-.669s-.3.122-.423.669l-4.766,15.14c-.845,3.53-2.291,4.869-5.006,4.869H10.481c-3.138,0-4.888-1.1-5.43-4.93L0,2.264V2.082a.915.915,0,0,1,1.026-.853H7.419a1.117,1.117,0,0,1,1.026,1.1L12.17,29.035c.06.547.06.913.3.913s.241-.366.362-.913l5.186-16.418c.363-1.461,1.208-2.739,3.8-2.739h4.163c2.593,0,3.438,1.277,3.8,2.737l5.186,16.419c.122.547.122.913.363.913s.241-.366.3-.913l3.6-26.711A1.117,1.117,0,0,1,40.26,1.23h6.4a.914.914,0,0,1,1.026.852v.182ZM98.4,1.229c.588,0,.823.433.823.924V2.4L93.9,34.234c-.349,1.955-1.627,3.06-3.082,3.078v0l-.034,0H90.77a2.377,2.377,0,0,1-2.694-1.971l-9.6-31.094A.568.568,0,0,0,78,3.827v-.01c-.019,0-.037-.01-.057-.01a.251.251,0,0,0-.055.014V3.808a.492.492,0,0,0-.3.418L72.175,36.141A1.334,1.334,0,0,1,71,37.311h-.588a.84.84,0,0,1-.822-.923v-.246L75.008,4.226a3.313,3.313,0,0,1,2.884-3v.012L78,1.229v.01q.119-.01.238-.01a2.587,2.587,0,0,1,2.645,1.91l9.6,31.155c.052.216.112.374.284.413.016,0,.027.012.045.012a.083.083,0,0,0,.025.007.864.864,0,0,0,.412-.493L96.582,2.4A1.281,1.281,0,0,1,97.7,1.229Z" fill="#1d1d1b"/>
</svg>
