<svg id="Logo_CleanClic" data-name="Logo CleanClic" xmlns="http://www.w3.org/2000/svg" width="160.283" height="50.894" viewBox="0 0 160.283 50.894">
  <path id="Caminho_64" data-name="Caminho 64" d="M41.59,33.57a8.644,8.644,0,0,0-4.6-1.232,5.378,5.378,0,0,0-3.552,1.2,4.529,4.529,0,0,0-1.023,5.249,4.454,4.454,0,0,0,1.144,1.445,5.217,5.217,0,0,0,1.682.923,6.208,6.208,0,0,0,2.031.329,10,10,0,0,0,2.308-.257,10.634,10.634,0,0,0,2.275-.851l-.269,3.335a3.11,3.11,0,0,1-2.408,2.773h-.028a13.85,13.85,0,0,1-2.934.289,11.236,11.236,0,0,1-3.877-.678,9.936,9.936,0,0,1-3.3-1.97,9.483,9.483,0,0,1-2.3-3.11,9.631,9.631,0,0,1-.843-4.085,9.856,9.856,0,0,1,.843-4.142A9.331,9.331,0,0,1,29,29.673a10.033,10.033,0,0,1,3.283-1.95,11.321,11.321,0,0,1,3.877-.674,14.446,14.446,0,0,1,3.323.349,9.784,9.784,0,0,1,2.584.963Z" transform="translate(-16.706 -16.996)" fill="#0f7d9f"/>
  <path id="Caminho_65" data-name="Caminho 65" d="M84.271,30.726a2.167,2.167,0,0,1-2.761.8h0A6.26,6.26,0,0,1,79.7,30.216a6.505,6.505,0,0,1-1.332-2.071,7.248,7.248,0,0,1-.514-2.829V2h5.947V24.851a2.926,2.926,0,0,0,.678,2.051,3.01,3.01,0,0,0,1.605.943Z" transform="translate(-47.813 -2)" fill="#0f7d9f"/>
  <path id="Caminho_66" data-name="Caminho 66" d="M121.818,34.433h0a4.086,4.086,0,0,1-1.264,2.873l-.108.1a4.282,4.282,0,0,1-3.006,1.256h-7.517a4.374,4.374,0,0,0,.574,1.248,4.2,4.2,0,0,0,1.088,1.132,6.193,6.193,0,0,0,1.605.8,6.534,6.534,0,0,0,2.171.329,10.109,10.109,0,0,0,5.378-1.437l-.534,4.964a11,11,0,0,1-2.32.758,14.888,14.888,0,0,1-3.21.309,12.758,12.758,0,0,1-4.25-.7,10.274,10.274,0,0,1-3.463-2.007,9.339,9.339,0,0,1-2.32-3.158,9.76,9.76,0,0,1-.843-4.1,10.112,10.112,0,0,1,.8-4.061,9.17,9.17,0,0,1,5.177-5.024,10.209,10.209,0,0,1,3.732-.674,9.451,9.451,0,0,1,3.487.614,7.938,7.938,0,0,1,2.625,1.641,7.148,7.148,0,0,1,1.641,2.36A6.874,6.874,0,0,1,121.818,34.433Zm-5.5-.044a2.809,2.809,0,0,0-.758-1.946,2.645,2.645,0,0,0-2.071-.843,3.612,3.612,0,0,0-2.408.883,4.13,4.13,0,0,0-1.373,2.32h6.569A1.447,1.447,0,0,0,116.32,34.389Z" transform="translate(-63.344 -16.996)" fill="#0f7d9f"/>
  <path id="Caminho_67" data-name="Caminho 67" d="M167.635,45.843a4.033,4.033,0,0,1-1.071-1.168,5.678,5.678,0,0,1-2.316,1.581,8.516,8.516,0,0,1-5.522.1,6.261,6.261,0,0,1-2.151-1.2,5.52,5.52,0,0,1-1.437-1.93,6.127,6.127,0,0,1-.514-2.564A5.281,5.281,0,0,1,156.41,36.5a7.89,7.89,0,0,1,4.535-1.854l3.692-.369V33.6a1.689,1.689,0,0,0-.678-1.393,3.661,3.661,0,0,0-2.235-.534,12.508,12.508,0,0,0-3.078.369c-.261.064-.51.132-.742.2a1.4,1.4,0,0,1-1.822-1.2l-.265-2.7a10.534,10.534,0,0,1,2.809-.943,16.213,16.213,0,0,1,3.447-.369,9.165,9.165,0,0,1,6.152,1.926,6.882,6.882,0,0,1,2.255,5.538v5.341a2.881,2.881,0,0,0,.574,1.91,2.516,2.516,0,0,0,1.561.839l-1.136,2.271a2.6,2.6,0,0,1-3.845.987Zm-2.829-7.769-2.5.245a2.36,2.36,0,0,0-2.408,2.408A1.705,1.705,0,0,0,160.447,42a1.947,1.947,0,0,0,1.413.534,3.082,3.082,0,0,0,2.031-.779,2.468,2.468,0,0,0,.915-1.958Z" transform="translate(-93.771 -16.986)" fill="#0f7d9f"/>
  <path id="Caminho_68" data-name="Caminho 68" d="M217.687,46.323V35.243a2.629,2.629,0,0,0-.694-1.8,2.721,2.721,0,0,0-2.135-.783,3.074,3.074,0,0,0-2.215.783,2.5,2.5,0,0,0-.8,1.886v11h-6.02V27.738h5.293l.161,1.846a5.815,5.815,0,0,1,2.2-1.706,8.086,8.086,0,0,1,3.387-.634,7.9,7.9,0,0,1,2.789.474,6.252,6.252,0,0,1,2.175,1.332,6.128,6.128,0,0,1,1.385,2.107,7.137,7.137,0,0,1,.514,2.789V43.5a2.809,2.809,0,0,1-2.809,2.809Z" transform="translate(-124.424 -17.111)" fill="#0f7d9f"/>
  <path id="Caminho_69" data-name="Caminho 69" d="M273.742,33.57a8.644,8.644,0,0,0-4.595-1.232,5.366,5.366,0,0,0-3.548,1.2,4.524,4.524,0,0,0-1.027,5.249,4.512,4.512,0,0,0,1.148,1.437,5.217,5.217,0,0,0,1.686.923,6.189,6.189,0,0,0,2.031.329,9.961,9.961,0,0,0,2.316-.257,10.584,10.584,0,0,0,2.28-.851l-.309,3.335a3.106,3.106,0,0,1-2.408,2.773h-.024a13.874,13.874,0,0,1-2.934.289,11.237,11.237,0,0,1-3.877-.678,9.9,9.9,0,0,1-3.3-1.97,9.438,9.438,0,0,1-2.279-3.114,9.708,9.708,0,0,1-.839-4.085,9.917,9.917,0,0,1,.839-4.142,9.338,9.338,0,0,1,2.259-3.118,9.933,9.933,0,0,1,3.3-1.938,11.321,11.321,0,0,1,3.877-.674,14.511,14.511,0,0,1,3.323.349,9.84,9.84,0,0,1,2.584.963Z" transform="translate(-155.697 -16.996)" fill="#faba1f"/>
  <path id="Caminho_70" data-name="Caminho 70" d="M314.42,30.726a2.139,2.139,0,0,1-2.677.831l-.084-.04a6.3,6.3,0,0,1-1.8-1.312,6.513,6.513,0,0,1-1.336-2.071A7.32,7.32,0,0,1,308,25.3V2h5.939V24.851a2.906,2.906,0,0,0,.678,2.051,3.015,3.015,0,0,0,1.605.943Z" transform="translate(-185.596 -2)" fill="#faba1f"/>
  <path id="Caminho_71" data-name="Caminho 71" d="M342.9,8.594a1.741,1.741,0,0,1-.349.9,6.378,6.378,0,0,1-.843,1.027,5.448,5.448,0,0,1-1.023.8,1.818,1.818,0,0,1-.9.329,1.794,1.794,0,0,1-.9-.329,4.881,4.881,0,0,1-1-.8,6.945,6.945,0,0,1-.823-1.027,1.742,1.742,0,0,1-.349-.9,1.742,1.742,0,0,1,.349-.9,6.945,6.945,0,0,1,.823-1.027,5.628,5.628,0,0,1,1-.843,1.766,1.766,0,0,1,.9-.345,1.789,1.789,0,0,1,.9.345,6.822,6.822,0,0,1,1.866,1.87,1.74,1.74,0,0,1,.349.9Zm-6.112,24.7V14.71h6.056V31.116a2.179,2.179,0,0,1-2.179,2.179Z" transform="translate(-202.78 -4.083)" fill="#faba1f"/>
  <path id="Caminho_72" data-name="Caminho 72" d="M376.6,33.57a8.644,8.644,0,0,0-4.6-1.232,5.366,5.366,0,0,0-3.548,1.2,4.524,4.524,0,0,0-1.027,5.249,4.508,4.508,0,0,0,1.144,1.445,5.216,5.216,0,0,0,1.685.923,6.188,6.188,0,0,0,2.031.329,9.961,9.961,0,0,0,2.316-.257,10.582,10.582,0,0,0,2.279-.851l-.309,3.335a3.106,3.106,0,0,1-2.408,2.773h-.024a13.874,13.874,0,0,1-2.934.289,11.237,11.237,0,0,1-3.877-.678,9.9,9.9,0,0,1-3.3-1.97,9.441,9.441,0,0,1-2.28-3.11,9.709,9.709,0,0,1-.839-4.085,9.917,9.917,0,0,1,.839-4.142,9.338,9.338,0,0,1,2.26-3.118,9.931,9.931,0,0,1,3.283-1.95,11.321,11.321,0,0,1,3.877-.674,14.51,14.51,0,0,1,3.323.349,9.839,9.839,0,0,1,2.584.963Z" transform="translate(-217.272 -16.996)" fill="#faba1f"/>
  <path id="Caminho_73" data-name="Caminho 73" d="M31.131,112.588a3.937,3.937,0,0,1-1.862-.4l-.169-1.681a3.359,3.359,0,0,0,1.838.634c.349,0,.57-.181.57-.4s-.2-.349-.53-.453c-1.128-.325-1.8-.891-1.8-1.914a1.963,1.963,0,0,1,2.2-1.89,4.375,4.375,0,0,1,1.734.349l-.321,1.4a2.689,2.689,0,0,0-1.2-.325c-.313,0-.518.14-.518.373s.157.337.518.429c1.316.349,1.862,1.007,1.862,2.007S32.708,112.588,31.131,112.588Z" transform="translate(-18.624 -64.552)" fill="#0f7d9f"/>
  <path id="Caminho_74" data-name="Caminho 74" d="M52.493,112.639v-.8h0a1.72,1.72,0,0,1-1.8.967,1.836,1.836,0,0,1-2.055-1.95V106.78h1.9v3.612a.8.8,0,0,0,.879.8.843.843,0,0,0,.919-.839V106.8h1.9v5.859Z" transform="translate(-30.322 -64.731)" fill="#0f7d9f"/>
  <path id="Caminho_75" data-name="Caminho 75" d="M75.641,112.594a1.272,1.272,0,0,1-.9-.775,1.611,1.611,0,0,1-1.529.71,1.882,1.882,0,0,1-1.95-1.942,1.987,1.987,0,0,1,2.007-1.914l1.164-.116v-.2c0-.349-.285-.582-.919-.582a3.239,3.239,0,0,0-1.629.453l-.325-1.425a4.07,4.07,0,0,1,2.055-.518c1.553,0,2.653.714,2.653,2.123v1.914c0,.686.257,1.047.71,1.2Zm-1.2-2.809-.71.068a.71.71,0,0,0-.722.734.562.562,0,0,0,.594.57.8.8,0,0,0,.827-.855Z" transform="translate(-43.863 -64.436)" fill="#0f7d9f"/>
  <path id="Caminho_76" data-name="Caminho 76" d="M110.856,108.621a1.432,1.432,0,0,0-.57-.14,1.1,1.1,0,0,0-1.164,1.256v2.729h-1.9v-5.859H109.1V107.9h0a1.661,1.661,0,0,1,1.665-1.409,1.776,1.776,0,0,1,.546.076Z" transform="translate(-65.393 -64.556)" fill="#0f7d9f"/>
  <path id="Caminho_77" data-name="Caminho 77" d="M129.412,109.1l-.843.855H125.7a1.659,1.659,0,0,0,1.734,1.023,3.054,3.054,0,0,0,1.605-.441l-.181,1.629a4.146,4.146,0,0,1-1.862.4,3.078,3.078,0,0,1-3.21-3.154,2.966,2.966,0,0,1,3.05-3.094,2.434,2.434,0,0,1,2.625,2.344A2.569,2.569,0,0,1,129.412,109.1Zm-2.576-1.368a1.2,1.2,0,0,0-1.136.955h1.978v-.128A.855.855,0,0,0,126.836,107.731Z" transform="translate(-75.309 -64.454)" fill="#0f7d9f"/>
  <path id="Caminho_78" data-name="Caminho 78" d="M150.733,107.64v-.726h0a1.94,1.94,0,0,1-1.81.891,2.848,2.848,0,0,1-2.809-3.09,2.954,2.954,0,0,1,2.974-3.114,2.733,2.733,0,0,1,1.485.4V98.43h1.85v9.21Zm-.185-3.845a1.469,1.469,0,1,0-1.148,2.448,1.36,1.36,0,0,0,1.148-.61Z" transform="translate(-88.676 -59.732)" fill="#0f7d9f"/>
  <path id="Caminho_79" data-name="Caminho 79" d="M176.2,109.1l-.839.855H172.49a1.666,1.666,0,0,0,1.734,1.023,3.082,3.082,0,0,0,1.605-.441l-.181,1.629a4.158,4.158,0,0,1-1.862.4,3.082,3.082,0,0,1-3.211-3.154,2.966,2.966,0,0,1,3.054-3.094,2.434,2.434,0,0,1,2.625,2.344A2.555,2.555,0,0,1,176.2,109.1Zm-2.572-1.368a1.2,1.2,0,0,0-1.14.955h1.978v-.128A.855.855,0,0,0,173.63,107.731Z" transform="translate(-103.322 -64.454)" fill="#0f7d9f"/>
  <path id="Caminho_80" data-name="Caminho 80" d="M211.247,107.64v-.726h0a1.947,1.947,0,0,1-1.814.891,2.85,2.85,0,0,1-2.809-3.09A2.954,2.954,0,0,1,209.6,101.6a2.749,2.749,0,0,1,1.489.4V98.43h1.85v9.21Zm-.181-3.845a1.469,1.469,0,1,0-1.152,2.448,1.368,1.368,0,0,0,1.152-.61Z" transform="translate(-124.902 -59.732)" fill="#0f7d9f"/>
  <path id="Caminho_81" data-name="Caminho 81" d="M236.7,109.1l-.851.855H232.98a1.666,1.666,0,0,0,1.734,1.023,3.07,3.07,0,0,0,1.605-.442l-.181,1.629a4.158,4.158,0,0,1-1.862.4,3.082,3.082,0,0,1-3.21-3.154,2.966,2.966,0,0,1,3.054-3.094,2.434,2.434,0,0,1,2.625,2.344A2.223,2.223,0,0,1,236.7,109.1Zm-2.572-1.368a1.2,1.2,0,0,0-1.14.955h1.982v-.128A.855.855,0,0,0,234.132,107.731Z" transform="translate(-139.536 -64.454)" fill="#0f7d9f"/>
  <path id="Caminho_82" data-name="Caminho 82" d="M272.692,109.1l-.843.855H268.98a1.666,1.666,0,0,0,1.734,1.023,3.082,3.082,0,0,0,1.605-.441l-.181,1.629a4.171,4.171,0,0,1-1.862.4,3.082,3.082,0,0,1-3.211-3.154,2.966,2.966,0,0,1,3.054-3.094,2.434,2.434,0,0,1,2.625,2.344A2.563,2.563,0,0,1,272.692,109.1Zm-2.572-1.368a1.2,1.2,0,0,0-1.14.955h1.979v-.128A.855.855,0,0,0,270.12,107.731Z" transform="translate(-161.089 -64.454)" fill="#0f7d9f"/>
  <path id="Caminho_83" data-name="Caminho 83" d="M293.586,112.37v-3.612a.8.8,0,0,0-.863-.8.847.847,0,0,0-.931.827v3.572h-1.9v-5.859h1.746v.8h0a1.706,1.706,0,0,1,1.786-.967,1.845,1.845,0,0,1,2.055,1.962v4.077Z" transform="translate(-174.755 -64.462)" fill="#0f7d9f"/>
  <path id="Caminho_84" data-name="Caminho 84" d="M318.162,109.1l-.839.855H314.45a1.666,1.666,0,0,0,1.734,1.023,3.071,3.071,0,0,0,1.605-.442l-.181,1.629a4.158,4.158,0,0,1-1.862.4,3.082,3.082,0,0,1-3.21-3.154,2.966,2.966,0,0,1,3.054-3.094,2.434,2.434,0,0,1,2.625,2.344A2.221,2.221,0,0,1,318.162,109.1Zm-2.572-1.368a1.2,1.2,0,0,0-1.14.955h1.979v-.128A.855.855,0,0,0,315.59,107.731Z" transform="translate(-188.311 -64.454)" fill="#0f7d9f"/>
  <path id="Caminho_85" data-name="Caminho 85" d="M339,108.621a1.433,1.433,0,0,0-.57-.14,1.1,1.1,0,0,0-1.164,1.256v2.729h-1.9v-5.859h1.862V107.9h0a1.661,1.661,0,0,1,1.665-1.409,1.8,1.8,0,0,1,.546.076Z" transform="translate(-201.978 -64.556)" fill="#0f7d9f"/>
  <path id="Caminho_86" data-name="Caminho 86" d="M354.864,115.332c-1.706,0-2.845-.971-2.845-2.2a1.581,1.581,0,0,1,1.2-1.577l-.75-.75a1.172,1.172,0,0,1,.71-.839,1.854,1.854,0,0,1-.851-1.565,2.122,2.122,0,0,1,2.408-2.111,3.283,3.283,0,0,1,.867.117,3.538,3.538,0,0,0,.842.1,2.316,2.316,0,0,0,.915-.193l.349,1.449a1.429,1.429,0,0,1-.722.181,1.5,1.5,0,0,1,.14.594,1.938,1.938,0,0,1-1.91,1.89c-.233,0-.4.064-.4.217a.213.213,0,0,0,.157.185l.9.321c1.152.4,1.774,1,1.774,2.071C357.674,114.425,356.574,115.332,354.864,115.332Zm.4-2.753-.7-.2a.766.766,0,0,0-.8.763c0,.4.349.738,1.031.738s1.035-.309,1.035-.646a.718.718,0,0,0-.566-.642Zm-.518-4.9a.726.726,0,0,0-.751.7.768.768,0,1,0,.751-.7Z" transform="translate(-211.951 -64.438)" fill="#0f7d9f"/>
  <path id="Caminho_87" data-name="Caminho 87" d="M375.574,101.822a1.554,1.554,0,0,1-1.023-1.023,1.023,1.023,0,0,1,2.043,0A1.557,1.557,0,0,1,375.574,101.822Zm-.959,6.662v-5.859h1.914v5.859Z" transform="translate(-225.44 -60.576)" fill="#0f7d9f"/>
  <path id="Caminho_88" data-name="Caminho 88" d="M392.565,112.582a1.284,1.284,0,0,1-.907-.775,1.6,1.6,0,0,1-1.525.71,1.886,1.886,0,0,1-1.954-1.938,1.99,1.99,0,0,1,2.007-1.914l1.164-.116v-.2c0-.349-.285-.582-.919-.582a3.211,3.211,0,0,0-1.629.453l-.337-1.437a4.073,4.073,0,0,1,2.059-.518c1.549,0,2.649.714,2.649,2.123v1.914a1.1,1.1,0,0,0,.71,1.2Zm-1.2-2.809-.71.068a.714.714,0,0,0-.714.734.566.566,0,0,0,.6.57.827.827,0,0,0,.827-.855Z" transform="translate(-233.599 -64.424)" fill="#0f7d9f"/>
  <path id="Caminho_89" data-name="Caminho 89" d="M7.17,41.034l-3.239-.385a.8.8,0,0,1-.686-1.015L4.02,36.74a.8.8,0,0,1,1.1-.534l3.01,1.3a.8.8,0,0,1,.466.955l-.534,1.978A.8.8,0,0,1,7.17,41.034Z" transform="translate(-3.127 -22.438)" fill="#faba1f"/>
  <path id="Caminho_90" data-name="Caminho 90" d="M11.967,26.442,9.158,24.717a.8.8,0,0,1-.193-1.2l1.922-2.3a.8.8,0,0,1,1.224,0l2.183,2.444a.8.8,0,0,1,0,1.063l-1.316,1.569A.8.8,0,0,1,11.967,26.442Z" transform="translate(-6.455 -13.335)" fill="#faba1f"/>
  <path id="Caminho_91" data-name="Caminho 91" d="M6.97,53.69l-3.259.4a.8.8,0,0,0-.686,1.015L3.8,57.98a.8.8,0,0,0,1.1.538l3.01-1.3a.8.8,0,0,0,.466-.955l-.53-1.982A.8.8,0,0,0,6.97,53.69Z" transform="translate(-2.995 -32.943)" fill="#faba1f"/>
  <path id="Caminho_92" data-name="Caminho 92" d="M11.787,67.2,8.978,68.917a.8.8,0,0,0-.193,1.2l1.922,2.291a.8.8,0,0,0,1.228,0l2.183-2.448a.8.8,0,0,0,0-1.059l-1.284-1.541A.8.8,0,0,0,11.787,67.2Z" transform="translate(-6.347 -40.958)" fill="#faba1f"/>
</svg>
