<svg id="Ícone_-_QA" data-name="Ícone - QA" xmlns="http://www.w3.org/2000/svg" width="72.362" height="72.362" viewBox="0 0 72.362 72.362">
  <rect id="Retângulo_1854" data-name="Retângulo 1854" width="72.362" height="72.362" transform="translate(0)" fill="none"/>
  <path id="Caminho_7446" data-name="Caminho 7446" d="M193.089,173.464A7.7,7.7,0,0,0,194.553,164a8.416,8.416,0,0,0,.972-4.724,8.223,8.223,0,0,0-8.17-7.409H175.862a31.958,31.958,0,0,0,1.131-7.4c0-6.225-5.084-11.763-9.094-11.763a9.167,9.167,0,0,0-5.533,1.934,3.379,3.379,0,0,0-1.242,2.637v7.646l-5.284,11.816a3.2,3.2,0,0,0-.708-.079h-11.61a8.058,8.058,0,0,0-7.932,8.164v19.166a8.058,8.058,0,0,0,7.932,8.164h6.965a7.991,7.991,0,0,0,6.421-3.371,17.008,17.008,0,0,0,5.189.972H183.4a7.518,7.518,0,0,0,7.335-5.9,7.814,7.814,0,0,0,.026-3.208A7.578,7.578,0,0,0,193.237,175,7.423,7.423,0,0,0,193.089,173.464Zm-6.753,7.292a3.328,3.328,0,0,1,.243,2.172A3.218,3.218,0,0,1,183.4,185.4H162.091a12.763,12.763,0,0,1-3.995-.824L158.4,161.4a.952.952,0,0,0,.1-.164l6.69-14.944a2.273,2.273,0,0,0,.2-.914l-.116-7.52a5.116,5.116,0,0,1,2.626-.814c1.2,0,4.83,2.991,4.83,7.4a33.025,33.025,0,0,1-1.744,8.91,2.2,2.2,0,0,0,.3,1.939,2.112,2.112,0,0,0,1.733.914h14.336a3.9,3.9,0,0,1,3.932,3.445,3.855,3.855,0,0,1-.941,2.917,2.21,2.21,0,0,0,.063,2.986,3.249,3.249,0,0,1-.809,5.094,2.194,2.194,0,0,0-.941,2.9,3.231,3.231,0,0,1,.322,1.432,3.186,3.186,0,0,1-1.7,2.848A2.224,2.224,0,0,0,186.336,180.756Zm-46.481-15.938a3.746,3.746,0,0,1,3.667-3.81h10.627l-.322,24.5a3.673,3.673,0,0,1-3.34,2.283h-6.965a3.742,3.742,0,0,1-3.667-3.81Z" transform="translate(-129.321 -126.407)"/>
</svg>
