<svg id="Logo_-_Global_Academy" data-name="Logo - Global Academy" xmlns="http://www.w3.org/2000/svg" width="193.791" height="45.219" viewBox="0 0 193.791 45.219">
  <path id="Caminho_4525" data-name="Caminho 4525" d="M253.344,177.716l3.209,2.33v.619c0,1.464,4.328,1.956,6.3,1.956s6.3-.492,6.3-1.956v-.619l2.172-1.579V181.1a1.087,1.087,0,1,0,1.3,0v-3.943a.652.652,0,0,0-.307-.529l-9.128-5.651a.654.654,0,0,0-.689,0l-9.127,5.65a.652.652,0,0,0-.039,1.083Zm14.51,2.74a14.939,14.939,0,0,1-10,0v-.22c.05-.222,1.488-1.092,5-1.092s4.948.87,5,1.086Zm0-1.792a15.566,15.566,0,0,0-10,0v-1.036c.051-.222,1.488-1.092,5-1.092s4.948.87,5,1.086Zm-5-6.357,7.959,4.926-1.656,1.2v-.812c0-1.765-3.4-2.391-6.3-2.391s-6.3.626-6.3,2.391v.812l-1.656-1.2Z" transform="translate(-227.423 -170.885)" fill="#287add"/>
  <path id="Caminho_4526" data-name="Caminho 4526" d="M251.927,224.839H219.922a2.853,2.853,0,0,0-2.943,2.486v18.369a.613.613,0,0,0,0,.24v1.593a2.953,2.953,0,0,0,2.943,3.152h12.011l-.436,1.908-1.736,0h0a1.683,1.683,0,0,0-1.185.477,1.4,1.4,0,0,0-.422,1v1.825a.642.642,0,0,0,.642.642l14.26.018h0a.643.643,0,0,0,.643-.643v-1.828a1.546,1.546,0,0,0-1.6-1.471l-1.746,0-.459-1.919h12.04a2.886,2.886,0,0,0,2.943-2.819v-20.2A2.886,2.886,0,0,0,251.927,224.839Zm-9.837,29.046c.193,0,.321.112.321.186v1.185l-12.975-.017v-1.183a.133.133,0,0,1,.045-.086.4.4,0,0,1,.277-.1h0Zm-9.275-1.3.361-1.58h5.467l.378,1.58Zm20.769-4.724a1.6,1.6,0,0,1-1.657,1.534H219.922a1.7,1.7,0,0,1-1.658-1.867v-1.07h35.32Zm0-2.689h-35.32V227.325a1.628,1.628,0,0,1,1.658-1.2h32.005a1.6,1.6,0,0,1,1.657,1.534Z" transform="translate(-200.269 -211.461)" fill="#287add"/>
  <path id="Caminho_4527" data-name="Caminho 4527" d="M389.478,227.173a6.478,6.478,0,0,0,1.351,1.351,3.783,3.783,0,0,0,1.462.717.723.723,0,0,0,.121.011.666.666,0,0,0,.638-.479A3.163,3.163,0,0,0,393,227a6.034,6.034,0,0,0-.968-1.849,6.462,6.462,0,0,0-1.557-1.382,3.437,3.437,0,0,0-1.6-.466h-.062a.664.664,0,0,0-.645.617,3.355,3.355,0,0,0,.329,1.593A5.967,5.967,0,0,0,389.478,227.173Zm.332-2.251A5.09,5.09,0,0,1,391,225.987a4.678,4.678,0,0,1,.737,1.418c.016.052.03.1.042.157-.061-.04-.121-.083-.18-.125a5.281,5.281,0,0,1-1.081-1.1,4.727,4.727,0,0,1-.787-1.333c-.024-.054-.047-.106-.067-.16C389.711,224.871,389.761,224.9,389.81,224.922Z" transform="translate(-329.018 -210.308)" fill="#287add"/>
  <path id="Caminho_4528" data-name="Caminho 4528" d="M392.113,253.523a4.122,4.122,0,0,0,3.172-1.9,7.323,7.323,0,0,0,.984-6.1.667.667,0,0,0-.535-.453,2.555,2.555,0,0,0-2.069.725,7.043,7.043,0,0,0-1.53,2.015c-.124.225-.24.452-.35.678a15.936,15.936,0,0,0-.357-2.39l-.065-.3a2.972,2.972,0,0,0,2.059-2.418,6.021,6.021,0,0,0,.021-2.276,5.7,5.7,0,0,0-.82-1.942.664.664,0,0,0-.674-.275c-1,.194-1.752,1.243-2,2.812a8.236,8.236,0,0,0-.094,1.051,4.094,4.094,0,0,0-.912-.618,2.966,2.966,0,0,0-3.291.2.663.663,0,0,0-.193.685,3.3,3.3,0,0,0,.833,1.376,5,5,0,0,0,1.365,1.093,4.175,4.175,0,0,0,2.1.661,2.616,2.616,0,0,0,.316-.019l.059.274a13.58,13.58,0,0,1,.268,1.575c-.02-.021-.038-.044-.058-.065a4.3,4.3,0,0,0-2.1-1.207,3.428,3.428,0,0,0-2.019.152.666.666,0,0,0-.415.606,6.08,6.08,0,0,0,1.553,3.687A6.756,6.756,0,0,0,389,252.711a3.52,3.52,0,0,0,1.175.519,19.2,19.2,0,0,1-.647,2.375c-.034-.122-.071-.242-.113-.361a4.144,4.144,0,0,0-3.624-2.978.656.656,0,0,0-.627.383,7.167,7.167,0,0,0-.147,4.6,5.489,5.489,0,0,0,2.092,3.415,28.9,28.9,0,0,1-1.674,2.411c-.521.672-1.064,1.314-1.66,1.963-.409.444-.657.69-.664.7a.666.666,0,0,0,.934.948s.267-.263.71-.745c.621-.676,1.188-1.346,1.73-2.047a30.025,30.025,0,0,0,1.771-2.552,3.229,3.229,0,0,0,1.877.558,5.364,5.364,0,0,0,2.685-.811,7.93,7.93,0,0,0,3.68-5.564.666.666,0,0,0-.3-.636,2.439,2.439,0,0,0-1.352-.381,6.444,6.444,0,0,0-3.488,1.466q-.4.3-.764.614a21.175,21.175,0,0,0,.893-3.134A2.616,2.616,0,0,0,392.113,253.523Zm1.2-5.088a5.731,5.731,0,0,1,1.235-1.64,1.853,1.853,0,0,1,.587-.364,6.051,6.051,0,0,1-.92,4.406,2.771,2.771,0,0,1-2.195,1.352A10.386,10.386,0,0,1,393.309,248.435Zm-4.991-4.1a3.823,3.823,0,0,1-1.054-.847,2.371,2.371,0,0,1-.31-.379,2.058,2.058,0,0,1,1.4.216,2.952,2.952,0,0,1,1.385,1.491A2.972,2.972,0,0,1,388.318,244.331Zm1.415,7.269a5.416,5.416,0,0,1-1.31-1.262,5.88,5.88,0,0,1-1.234-2.372,2.323,2.323,0,0,1,.775.038,2.934,2.934,0,0,1,1.433.842,3.98,3.98,0,0,1,1.031,2.648c-.012.1-.023.2-.032.3,0,.037-.007.075-.01.112A2.37,2.37,0,0,1,389.733,251.6Zm-1.958,7.905a4.409,4.409,0,0,1-1.466-2.58,6.779,6.779,0,0,1-.106-3.257,3,3,0,0,1,1.958,2.02A4.659,4.659,0,0,1,387.774,259.506Zm4.382-2.473a4.5,4.5,0,0,1,2.934-1.181,6.7,6.7,0,0,1-2.949,4.081,3.208,3.208,0,0,1-2.969.411A10.463,10.463,0,0,1,392.157,257.032Zm-.9-15.131a3.025,3.025,0,0,1,.565-1.455,4.727,4.727,0,0,1,.314.921,4.6,4.6,0,0,1-.012,1.7,2.2,2.2,0,0,1-.773,1.3A6.2,6.2,0,0,1,391.26,241.9Z" transform="translate(-325.066 -222.013)" fill="#287add"/>
  <path id="Caminho_4529" data-name="Caminho 4529" d="M180.631,229.251a.729.729,0,0,0,.12-.01,3.759,3.759,0,0,0,1.459-.713,6.427,6.427,0,0,0,1.343-1.337,5.909,5.909,0,0,0,.975-1.634,3.4,3.4,0,0,0,.344-1.632.664.664,0,0,0-.643-.616h-.066a3.483,3.483,0,0,0-1.632.486A6.5,6.5,0,0,0,181,225.171a6,6,0,0,0-.958,1.839,3.145,3.145,0,0,0-.045,1.762A.666.666,0,0,0,180.631,229.251Zm.676-1.84a4.663,4.663,0,0,1,.727-1.407,5.151,5.151,0,0,1,1.166-1.06c.061-.034.122-.064.181-.092q-.037.1-.082.193a4.734,4.734,0,0,1-.784,1.313,5.229,5.229,0,0,1-1.074,1.083c-.057.04-.115.082-.175.121C181.279,227.511,181.293,227.461,181.308,227.411Z" transform="translate(-172.385 -210.308)" fill="#287add"/>
  <path id="Caminho_4530" data-name="Caminho 4530" d="M162.255,264.27c-.6-.645-1.156-1.287-1.689-1.964a28.907,28.907,0,0,1-1.713-2.419,5.238,5.238,0,0,0,2.314-3.544,7.163,7.163,0,0,0-.148-4.592.66.66,0,0,0-.628-.383,4.145,4.145,0,0,0-3.623,2.976,5.411,5.411,0,0,0-.237.926,20.237,20.237,0,0,1-.85-2.885,3.313,3.313,0,0,0,1.5-.572,6.732,6.732,0,0,0,1.627-1.551,6.1,6.1,0,0,0,1.561-3.7.665.665,0,0,0-.414-.606,3.44,3.44,0,0,0-2.018-.152,4.322,4.322,0,0,0-2.109,1.217,4.62,4.62,0,0,0-.475.585,14.642,14.642,0,0,1,.312-2.2l.054-.262a2.363,2.363,0,0,0,.7.106,4.142,4.142,0,0,0,2.077-.645,4.988,4.988,0,0,0,1.363-1.078,3.378,3.378,0,0,0,.862-1.406.664.664,0,0,0-.193-.686,2.972,2.972,0,0,0-3.288-.2,4.1,4.1,0,0,0-.915.62,8.256,8.256,0,0,0-.094-1.055c-.251-1.565-1-2.614-2-2.809a.658.658,0,0,0-.674.275,5.716,5.716,0,0,0-.826,1.973,6,6,0,0,0,.033,2.276,3.161,3.161,0,0,0,1.671,2.264l-.007.034-.064.309a15.421,15.421,0,0,0-.293,1.846l-.019-.036a7.078,7.078,0,0,0-1.539-2.03,2.56,2.56,0,0,0-2.069-.724.666.666,0,0,0-.534.453,7.317,7.317,0,0,0,.986,6.1,4.116,4.116,0,0,0,3.17,1.9h0a2.645,2.645,0,0,0,.3-.017,20.955,20.955,0,0,0,.76,2.7q-.151-.12-.307-.237a6.435,6.435,0,0,0-3.485-1.465,2.443,2.443,0,0,0-1.352.38.667.667,0,0,0-.3.636,7.926,7.926,0,0,0,3.676,5.562,5.358,5.358,0,0,0,2.688.814h0a3.308,3.308,0,0,0,1.663-.422,30.234,30.234,0,0,0,1.81,2.558c.555.7,1.131,1.373,1.761,2.047.452.482.724.744.724.744a.666.666,0,0,0,.924-.958C162.923,264.958,162.671,264.714,162.255,264.27Zm-5.482-16.309a2.962,2.962,0,0,1,1.444-.854,2.359,2.359,0,0,1,.5-.055,2.171,2.171,0,0,1,.275.018,5.921,5.921,0,0,1-1.243,2.384,5.4,5.4,0,0,1-1.3,1.25,2.328,2.328,0,0,1-.668.315A3.946,3.946,0,0,1,156.773,247.961Zm1.06-5.537a2.317,2.317,0,0,1,1.015-.264,1.445,1.445,0,0,1,.379.049,2.714,2.714,0,0,1-.339.411,3.8,3.8,0,0,1-1.053.831,2.916,2.916,0,0,1-1.389.466A2.954,2.954,0,0,1,157.833,242.423Zm-3.766,8.872a2.839,2.839,0,0,1-2.1-1.353,6.057,6.057,0,0,1-.92-4.408,1.857,1.857,0,0,1,.587.364,5.751,5.751,0,0,1,1.242,1.655,10.953,10.953,0,0,1,1.207,3.223c.012.1.023.194.033.291q.012.113.025.226Zm.76-7.82a2.144,2.144,0,0,1-.766-1.271,4.592,4.592,0,0,1-.025-1.7,4.963,4.963,0,0,1,.319-.95A3,3,0,0,1,154.92,241,6.211,6.211,0,0,1,154.827,243.476Zm1.221,16.189h0a4.046,4.046,0,0,1-2.014-.631,6.7,6.7,0,0,1-2.944-4.079,4.5,4.5,0,0,1,2.933,1.18,10.479,10.479,0,0,1,2.985,3.313A2.026,2.026,0,0,1,156.048,259.665Zm2.356-1.055a4.758,4.758,0,0,1-.385-3.819,3.008,3.008,0,0,1,1.957-2.019,6.75,6.75,0,0,1-.1,3.252A4.414,4.414,0,0,1,158.4,258.61Z" transform="translate(-149.627 -221.338)" fill="#287add"/>
  <path id="Caminho_4531" data-name="Caminho 4531" d="M467.724,227.765H470.1v3.055a7.766,7.766,0,0,1-4.229,1.1,5.776,5.776,0,0,1,0-11.55,8.055,8.055,0,0,1,4.968,1.553l1.98-2.937a11.907,11.907,0,0,0-6.948-2.349,9.508,9.508,0,1,0,0,19.014,11.378,11.378,0,0,0,7.8-2.973v-8h-5.945Z" transform="translate(-380.233 -205.292)" fill="#287add"/>
  <path id="Caminho_4532" data-name="Caminho 4532" d="M556.175,218.516h-3.957V236.6H564.3v-3.85h-8.124Z" transform="translate(-452.392 -206.706)" fill="#287add"/>
  <path id="Caminho_4533" data-name="Caminho 4533" d="M639.219,226.165a9.547,9.547,0,1,0-9.547,9.5A9.531,9.531,0,0,0,639.219,226.165Zm-9.547,5.773a5.775,5.775,0,1,1,5.623-5.773A5.93,5.93,0,0,1,629.672,231.938Z" transform="translate(-503.46 -205.31)" fill="#287add"/>
  <path id="Caminho_4534" data-name="Caminho 4534" d="M729.967,225.455c2.074-2.156,1.114-6.939-3.858-6.939h-5.456V236.6H728.1C733.884,236.6,735.641,227.523,729.967,225.455Zm-5.469-3.309h1.571c.586,0,1,.754,1,1.34s-.412,1.288-1,1.288H724.5Zm0,10.608v-4.582h2.619a2.194,2.194,0,0,1,2.268,2.235,2.257,2.257,0,0,1-2.268,2.346Z" transform="translate(-579.061 -206.705)" fill="#287add"/>
  <path id="Caminho_4535" data-name="Caminho 4535" d="M796.479,218.516,789.888,236.6h4.1l1.326-3.639h6.43l1.325,3.639h4.1l-6.591-18.088Zm.226,10.632,1.824-5,1.824,5Z" transform="translate(-631.129 -206.705)" fill="#287add"/>
  <path id="Caminho_4536" data-name="Caminho 4536" d="M886.4,232.755V218.516h-3.957V236.6h12.081v-3.85Z" transform="translate(-700.737 -206.706)" fill="#287add"/>
  <path id="Caminho_4537" data-name="Caminho 4537" d="M460.1,309.885l-3.83,10.509H458.3l.814-2.237,3.661,0,.816,2.242h2.037l-3.83-10.509Zm-.28,6.354,1.133-3.107,1.132,3.107Z" transform="translate(-380.233 -275.419)" fill="#287add"/>
  <path id="Caminho_4538" data-name="Caminho 4538" d="M535.19,310.82a3.981,3.981,0,0,1,2.62.964l.365.317,1.256-1.442-.365-.317a5.9,5.9,0,0,0-3.876-1.434,5.5,5.5,0,1,0,0,10.995,5.9,5.9,0,0,0,3.876-1.434l.365-.317-1.256-1.442-.365.317a3.982,3.982,0,0,1-2.62.964,3.593,3.593,0,1,1,0-7.169Z" transform="translate(-435.258 -274.683)" fill="#287add"/>
  <path id="Caminho_4539" data-name="Caminho 4539" d="M608.978,309.885l-3.829,10.509h2.036l.815-2.237,3.661,0,.816,2.242h2.037l-3.83-10.509Zm-.279,6.354,1.133-3.107,1.132,3.107Z" transform="translate(-492.198 -275.419)" fill="#287add"/>
  <path id="Caminho_4540" data-name="Caminho 4540" d="M681.926,309.885h-3.609v10.509h3.609a5.255,5.255,0,0,0,0-10.509Zm0,8.6h-1.7V311.8h1.7a3.341,3.341,0,1,1,0,6.682Z" transform="translate(-547.223 -275.419)" fill="#287add"/>
  <path id="Caminho_4541" data-name="Caminho 4541" d="M749.46,320.394h7.307v-1.913h-5.394V316.1h5.234v-1.913h-5.234V311.8h5.394v-1.913H749.46Z" transform="translate(-600.726 -275.419)" fill="#287add"/>
  <path id="Caminho_4542" data-name="Caminho 4542" d="M819.732,314.593l-3.5-4.708h-1.905v10.509h1.913V313.1l3.49,4.7,3.49-4.7v7.291h1.914V309.885h-1.906Z" transform="translate(-649.51 -275.419)" fill="#287add"/>
  <path id="Caminho_4543" data-name="Caminho 4543" d="M898,315.065l-2.56-5.18h-2.134l3.737,7.561v2.948h1.913v-2.948l3.737-7.561h-2.134Z" transform="translate(-708.907 -275.419)" fill="#287add"/>
</svg>
