<svg xmlns="http://www.w3.org/2000/svg" width="113" height="113" viewBox="0 0 113 113">
  <g id="Grupo_5807" data-name="Grupo 5807" transform="translate(-588.438 -4681.23)">
    <rect id="Retângulo_1869" data-name="Retângulo 1869" width="113" height="113" transform="translate(588.438 4681.23)" fill="rgba(255,255,255,0)"/>
    <g id="Grupo_3466" data-name="Grupo 3466" transform="translate(599.055 4693.93)">
      <path id="Caminho_4475" data-name="Caminho 4475" d="M1078.044,289.469l-6.8,3.07H1067.3l-8-8.333,1.535-5.482,7.127-2.083,1.1-9.429-.877-4.824,6.359-.987,2.522,3.728,5.372-3.18-1.206-5.263,9.648-1.206,3.4,7.675,13.486-1.535,2.96-3.508,3.728,8.113,18.941,5.985,12.855,8.268,3.837.11.986,7.455L1144.6,294.4l-5.7,5.592-1.973,11.4-7.894,10.525-14.8,5.482-.878,6.359-9.977,9.319-8.223-7.455,8.442-7.126-3.947-11.183-4.824-.329-4.166-14.253-1.1-4.824-10.854-4.6Z" transform="translate(-1059.296 -255.481)" fill="none" stroke="#fff" stroke-linecap="round" stroke-linejoin="round" stroke-width="4"/>
    </g>
  </g>
</svg>
