<svg xmlns="http://www.w3.org/2000/svg" viewBox="0 0 113 113">
  <g id="Grupo_5812" data-name="Grupo 5812" transform="translate(-984.938 -4464.293)">
    <rect id="Retângulo_1870" data-name="Retângulo 1870" width="113" height="113" transform="translate(984.938 4464.293)" fill="none"/>
    <g id="Grupo_5811" data-name="Grupo 5811">
      <path id="Caminho_7459" data-name="Caminho 7459" d="M208.963,86.93,198.084,92.37,184,65.4,194.989,59.9a3.521,3.521,0,0,1,4.7,1.519l10.824,20.728a3.521,3.521,0,0,1-1.546,4.779Z" transform="translate(882.25 4431.292)" fill="none" stroke="#fff" stroke-linecap="round" stroke-linejoin="round" stroke-width="4"/>
      <path id="Caminho_7460" data-name="Caminho 7460" d="M23.685,91.3,12.806,85.858a3.521,3.521,0,0,1-1.546-4.779L22.084,60.351a3.521,3.521,0,0,1,4.7-1.519l10.989,5.495Z" transform="translate(979.188 4431.893)" fill="none" stroke="#fff" stroke-linecap="round" stroke-linejoin="round" stroke-width="4"/>
      <path id="Caminho_7461" data-name="Caminho 7461" d="M117.461,133.544l-7.042,8.238L94.224,157.977a3.521,3.521,0,0,1-3.344.926l-25.508-6.377a3.521,3.521,0,0,1-1.315-.642L40,133.072" transform="translate(962.873 4390.118)" fill="none" stroke="#fff" stroke-linecap="round" stroke-linejoin="round" stroke-width="4"/>
      <path id="Caminho_7462" data-name="Caminho 7462" d="M141.873,108.071,122.507,93.987l-5.633,4.225a14.084,14.084,0,0,1-16.9,0l-2.386-1.79a3.521,3.521,0,0,1-.377-5.306l17.224-17.224a3.521,3.521,0,0,1,2.49-1.031h17.907" transform="translate(931.418 4423.829)" fill="none" stroke="#fff" stroke-linecap="round" stroke-linejoin="round" stroke-width="4"/>
      <path id="Caminho_7463" data-name="Caminho 7463" d="M72.574,63.234l22.587-6.585a3.521,3.521,0,0,1,2.437.172l15.214,6.884" transform="translate(944.635 4432.985)" fill="none" stroke="#fff" stroke-linecap="round" stroke-linejoin="round" stroke-width="4"/>
      <path id="Caminho_7464" data-name="Caminho 7464" d="M80.647,196.7l-13.265-3.316a3.521,3.521,0,0,1-1.456-.758L56,184" transform="translate(953.914 4361.604)" fill="none" stroke="#fff" stroke-linecap="round" stroke-linejoin="round" stroke-width="4"/>
    </g>
  </g>
</svg>
