<svg xmlns="http://www.w3.org/2000/svg" xmlns:xlink="http://www.w3.org/1999/xlink" viewBox="0 0 93 93">
  <defs>
    <filter id="Elipse_465" x="0" y="0" width="93" height="93" filterUnits="userSpaceOnUse">
      <feOffset dy="6" input="SourceAlpha"/>
      <feGaussianBlur stdDeviation="3" result="blur"/>
      <feFlood flood-color="#2e4568" flood-opacity="0.161"/>
      <feComposite operator="in" in2="blur"/>
      <feComposite in="SourceGraphic"/>
    </filter>
  </defs>
  <g id="Seta_Portfólio_Esquerda" data-name="Seta Portfólio Esquerda" transform="translate(-68 -1836)">
    <g transform="matrix(1, 0, 0, 1, 68, 1836)" filter="url(#Elipse_465)">
      <circle id="Elipse_465-2" data-name="Elipse 465" cx="37.5" cy="37.5" r="37.5" transform="translate(9 3)" fill="#fff"/>
    </g>
    <g id="Grupo_3956" data-name="Grupo 3956" transform="translate(-3529.503 -3058.504) rotate(180)">
      <g id="Caminho_4782" data-name="Caminho 4782" transform="translate(-3682 -4973)" fill="#fafafa">
        <path d="M37.749,0A37.749,37.749,0,1,1,0,37.749,37.749,37.749,0,0,1,37.749,0Z" stroke="none"/>
        <path d="M 37.74853515625 1 C 32.78706741333008 1 27.97454452514648 1.971488952636719 23.44465637207031 3.887466430664062 C 19.06877899169922 5.738311767578125 15.13863372802734 8.388160705566406 11.76338958740234 11.76338958740234 C 8.388160705566406 15.13863372802734 5.738311767578125 19.06877899169922 3.887466430664062 23.44465637207031 C 1.971488952636719 27.97454452514648 1 32.78706741333008 1 37.74853515625 C 1 42.70999145507812 1.971488952636719 47.52251434326172 3.887466430664062 52.05241394042969 C 5.738311767578125 56.42827987670898 8.388160705566406 60.35842514038086 11.76338958740234 63.73366928100586 C 15.13863372802734 67.10890960693359 19.06877899169922 69.75875854492188 23.44465637207031 71.60960388183594 C 27.97454452514648 73.52558135986328 32.78706741333008 74.4970703125 37.74853515625 74.4970703125 C 42.70999145507812 74.4970703125 47.52251434326172 73.52558135986328 52.05241394042969 71.60960388183594 C 56.42827987670898 69.75875854492188 60.35842514038086 67.10890960693359 63.73366928100586 63.73366928100586 C 67.10890960693359 60.35842514038086 69.75875854492188 56.42827987670898 71.60960388183594 52.05241394042969 C 73.52558135986328 47.52251434326172 74.4970703125 42.70999145507812 74.4970703125 37.74853515625 C 74.4970703125 32.78706741333008 73.52558135986328 27.97454452514648 71.60960388183594 23.44465637207031 C 69.75875854492188 19.06877899169922 67.10890960693359 15.13863372802734 63.73366928100586 11.76338958740234 C 60.35842514038086 8.388160705566406 56.42827987670898 5.738311767578125 52.05241394042969 3.887466430664062 C 47.52251434326172 1.971488952636719 42.70999145507812 1 37.74853515625 1 M 37.74853515625 0 C 58.59646606445312 0 75.4970703125 16.90058898925781 75.4970703125 37.74853515625 C 75.4970703125 58.59646606445312 58.59646606445312 75.4970703125 37.74853515625 75.4970703125 C 16.90058898925781 75.4970703125 0 58.59646606445312 0 37.74853515625 C 0 16.90058898925781 16.90058898925781 0 37.74853515625 0 Z" stroke="none" fill="rgba(40,122,221,0)"/>
      </g>
      <path id="Icon_metro-arrow-right" data-name="Icon metro-arrow-right" d="M25.98,34.667,38.316,22.331a2.467,2.467,0,0,0,0-3.489L25.98,6.507A2.467,2.467,0,0,0,22.491,10l8.124,8.124H6.966a2.467,2.467,0,1,0,0,4.934H30.615l-8.124,8.124a2.467,2.467,0,0,0,3.489,3.489Z" transform="translate(-3666.025 -4955.751)" fill="#287add"/>
    </g>
  </g>
</svg>
