<svg xmlns="http://www.w3.org/2000/svg" xmlns:xlink="http://www.w3.org/1999/xlink" viewBox="0 0 93 93">
  <defs>
    <filter id="Elipse_465" x="0" y="0" width="93" height="93" filterUnits="userSpaceOnUse">
      <feOffset dy="6" input="SourceAlpha"/>
      <feGaussianBlur stdDeviation="3" result="blur"/>
      <feFlood flood-color="#2e4568" flood-opacity="0.161"/>
      <feComposite operator="in" in2="blur"/>
      <feComposite in="SourceGraphic"/>
    </filter>
  </defs>
  <g id="Seta_Portfólio_Direita" data-name="Seta Portfólio Direita" transform="translate(8.503 2.999)">
    <g transform="matrix(1, 0, 0, 1, -8.5, -3)" filter="url(#Elipse_465)">
      <circle id="Elipse_465-2" data-name="Elipse 465" cx="37.5" cy="37.5" r="37.5" transform="translate(9 3)" fill="#fff"/>
    </g>
    <g id="Grupo_3956" data-name="Grupo 3956">
      <g id="Caminho_4782" data-name="Caminho 4782" fill="#fff">
        <path d="M37.749,75.5A37.749,37.749,0,1,0,0,37.749,37.749,37.749,0,0,0,37.749,75.5Z" stroke="none"/>
        <path d="M 37.74853515625 74.4970703125 C 42.71000289916992 74.4970703125 47.52252578735352 73.52558135986328 52.05241394042969 71.60960388183594 C 56.42829132080078 69.75875854492188 60.35843658447266 67.10890960693359 63.73368072509766 63.73368072509766 C 67.10890960693359 60.35843658447266 69.75875854492188 56.42829132080078 71.60960388183594 52.05241394042969 C 73.52558135986328 47.52252578735352 74.4970703125 42.71000289916992 74.4970703125 37.74853515625 C 74.4970703125 32.78707885742188 73.52558135986328 27.97455787658691 71.60960388183594 23.44465827941895 C 69.75875854492188 19.06879043579102 67.10890960693359 15.13864612579346 63.73368072509766 11.76340198516846 C 60.35843658447266 8.388157844543457 56.42829132080078 5.738312721252441 52.05241394042969 3.887468576431274 C 47.52252578735352 1.971490740776062 42.71000289916992 1.000001788139343 37.74853515625 1.000001788139343 C 32.78707885742188 1.000001788139343 27.97455787658691 1.971490740776062 23.44465827941895 3.887468576431274 C 19.06879043579102 5.738312721252441 15.13864612579346 8.388157844543457 11.76340198516846 11.76340198516846 C 8.388157844543457 15.13864612579346 5.738312721252441 19.06879043579102 3.887468576431274 23.44465827941895 C 1.971490740776062 27.97455787658691 1.000001788139343 32.78707885742188 1.000001788139343 37.74853515625 C 1.000001788139343 42.71000289916992 1.971490740776062 47.52252578735352 3.887468576431274 52.05241394042969 C 5.738312721252441 56.42829132080078 8.388157844543457 60.35843658447266 11.76340198516846 63.73368072509766 C 15.13864612579346 67.10890960693359 19.06879043579102 69.75875854492188 23.44465827941895 71.60960388183594 C 27.97455787658691 73.52558135986328 32.78707885742188 74.4970703125 37.74853515625 74.4970703125 M 37.74853515625 75.4970703125 C 16.90060234069824 75.4970703125 1.82291671535495e-06 58.59648132324219 1.82291671535495e-06 37.74853515625 C 1.82291671535495e-06 16.90060234069824 16.90060234069824 1.82291671535495e-06 37.74853515625 1.82291671535495e-06 C 58.59648132324219 1.82291671535495e-06 75.4970703125 16.90060234069824 75.4970703125 37.74853515625 C 75.4970703125 58.59648132324219 58.59648132324219 75.4970703125 37.74853515625 75.4970703125 Z" stroke="none" fill="rgba(40,122,221,0)"/>
      </g>
      <path id="Icon_metro-arrow-right" data-name="Icon metro-arrow-right" d="M21.482.723,33.817,13.058a2.467,2.467,0,0,1,0,3.489L21.482,28.883a2.467,2.467,0,0,1-3.489-3.489l8.124-8.124H2.467a2.467,2.467,0,1,1,0-4.934H26.117L17.992,4.212A2.467,2.467,0,0,1,21.482.723Z" transform="translate(20.474 22.858)" fill="#287add"/>
    </g>
  </g>
</svg>
