<svg xmlns="http://www.w3.org/2000/svg" xmlns:xlink="http://www.w3.org/1999/xlink" width="143.999" height="65" viewBox="0 0 143.999 65">
  <defs>
    <linearGradient id="linear-gradient" x1="0.5" x2="0.5" y2="1" gradientUnits="objectBoundingBox">
      <stop offset="0" stop-color="#00d1ff"/>
      <stop offset="0.236" stop-color="#23deec"/>
      <stop offset="0.582" stop-color="#52f0d3"/>
      <stop offset="0.848" stop-color="#70fac4"/>
      <stop offset="1" stop-color="#7bffbf"/>
    </linearGradient>
  </defs>
  <g id="Vetor_-_Elipses" data-name="Vetor - Elipses" transform="translate(0.092 -0.423)" opacity="0.8">
    <ellipse id="Elipse_450" data-name="Elipse 450" cx="6" cy="5.5" rx="6" ry="5.5" transform="translate(78.908 0.423)" fill="url(#linear-gradient)"/>
    <ellipse id="Elipse_441" data-name="Elipse 441" cx="6" cy="5.5" rx="6" ry="5.5" transform="translate(52.909 27.423)" fill="url(#linear-gradient)"/>
    <ellipse id="Elipse_451" data-name="Elipse 451" cx="6" cy="5.5" rx="6" ry="5.5" transform="translate(52.909 0.423)" fill="url(#linear-gradient)"/>
    <circle id="Elipse_435" data-name="Elipse 435" cx="5.5" cy="5.5" r="5.5" transform="translate(132.908 27.423)" fill="url(#linear-gradient)"/>
    <ellipse id="Elipse_440" data-name="Elipse 440" cx="6" cy="5.5" rx="6" ry="5.5" transform="translate(25.908 27.423)" fill="url(#linear-gradient)"/>
    <ellipse id="Elipse_452" data-name="Elipse 452" cx="6" cy="5.5" rx="6" ry="5.5" transform="translate(25.908 0.423)" fill="url(#linear-gradient)"/>
    <ellipse id="Elipse_436" data-name="Elipse 436" cx="6" cy="5.5" rx="6" ry="5.5" transform="translate(105.908 27.423)" fill="url(#linear-gradient)"/>
    <ellipse id="Elipse_443" data-name="Elipse 443" cx="6" cy="5.5" rx="6" ry="5.5" transform="translate(79.908 27.423)" fill="url(#linear-gradient)"/>
    <ellipse id="Elipse_439" data-name="Elipse 439" cx="6" cy="5.5" rx="6" ry="5.5" transform="translate(-0.092 27.423)" fill="url(#linear-gradient)"/>
    <ellipse id="Elipse_438" data-name="Elipse 438" cx="6" cy="5.5" rx="6" ry="5.5" transform="translate(79.908 54.423)" fill="url(#linear-gradient)"/>
    <ellipse id="Elipse_553" data-name="Elipse 553" cx="6" cy="5.5" rx="6" ry="5.5" transform="translate(105.908 54.423)" fill="url(#linear-gradient)"/>
  </g>
</svg>
