<svg xmlns="http://www.w3.org/2000/svg" width="26.639" height="26.64" viewBox="0 0 26.639 26.64">
  <path id="Caminho_21" data-name="Caminho 21" d="M24.915,18.422,19.53,16.11a1.154,1.154,0,0,0-1.346.332L15.8,19.355a17.82,17.82,0,0,1-8.521-8.519l2.914-2.385a1.151,1.151,0,0,0,.332-1.346L8.217,1.722a1.162,1.162,0,0,0-1.322-.671l-5,1.154A1.154,1.154,0,0,0,1,3.33,22.307,22.307,0,0,0,23.305,25.639h0a1.154,1.154,0,0,0,1.125-.894l1.154-5a1.167,1.167,0,0,0-.674-1.327Z" transform="translate(0 0.001)" fill="none" stroke="#2e4765" stroke-width="2"/>
</svg>
